<?xml version="1.0" encoding="UTF-8"?>
<svg id="uuid-b3b72e7d-374e-42e8-bbdb-79bc41ad53da" data-name="Capa 1" xmlns="http://www.w3.org/2000/svg" viewBox="0 0 423 119">
  <defs>
    <style>
      .uuid-e56b4d64-9048-48a3-a5f3-86924ef4137a {
        fill: #070707;
      }

      .uuid-8a065d57-4a55-46f7-b863-0a777b11f3d5 {
        fill: #fe9a04;
      }

      .uuid-ffa99b5a-dea2-47f2-bfb1-56b44efc97dd {
        fill: #0b0b0b;
      }

      .uuid-45100ef2-4349-473e-85be-d2862f6e96dd {
        fill: #121212;
      }
    </style>
  </defs>
  <path class="uuid-8a065d57-4a55-46f7-b863-0a777b11f3d5" d="M80.1,85.1L6.7,99.8l2.2-57.6,5.8-1.4c.5-10.9,8.1-19.4,18.1-21.2s20.6,3.1,25.2,13c2.1.5,3.7-.1,6.2-.6l15.9,53.1ZM40.3,53.2c-5.6-2.5-11-3.1-15.8-6s-2-5.8-1-7.6l30.4-6c-5-9.8-16.3-12.8-24.8-8.5s-12.6,14.5-8.8,24.1l-6.5,16.6,14.2,27.5,26.2-13.2-13.8-26.9Z"/>
  <path class="uuid-ffa99b5a-dea2-47f2-bfb1-56b44efc97dd" d="M310,53c-.5-.2-1.1,0-1.2.5-.2.7,0,1.3.5,1.5s1,0,1.5,0v28.9c-4.2.5-7.9.5-12,0-.8-9.2.6-17.6-.7-26.6-.5-3.6-9.4-4.7-10-1.6-1.8,9.9.2,19.1-.9,28.3-4.2.2-8.1.4-11.9,0-1.8-8.4,3.9-31-5.9-29.6-1.8.2-5.4.9-5.4,3.6l-.2,26.1c-4.2.5-7.7.4-12.1,0v-38.9c4-.4,7.4-.7,11.1,0s.8,3.1,1.6,4.1c3.7-3.1,7.4-5,11.8-4.9s7.4,2.5,10.2,6.4c3.7-3.2,7-5.8,11.4-6.3s11.7,3.1,12.2,8.8Z"/>
  <path class="uuid-45100ef2-4349-473e-85be-d2862f6e96dd" d="M129.8,52.4c4.8,7,4.5,17,1.4,23.9s-12.7,9.8-20.8,7.4-8.4,2.3-12.2,0v-48.5c3.4-.7,6.8-.4,10.9-.2l.7,16.6c6-4.8,15.2-6.3,20,.7ZM120,73.8c2.8-4.6,2.9-11.7-.3-15.6s-7.8-2-10.4.3v17.4c3,1.7,8.2,1.9,10.6-2Z"/>
  <path class="uuid-ffa99b5a-dea2-47f2-bfb1-56b44efc97dd" d="M322.7,83.3c-5.4-2.1-7.3-7.6-6.8-12.5,1-11.6,15.3-11,23.3-12.5,1.9-7.6-13.9-5.7-19.6-2.7-.8-3.2-.7-6-.3-9.2,9.1-2.5,32-4.6,32,9.8v27.5c-3.6.4-6.9.8-10.4.2-1.5-.3-.9-3-1.9-4-4.6,4.1-10.4,5.6-16.2,3.3ZM339.5,73.6c.3-3.1.4-5,0-7.5-3.4-.2-6.8-.1-9.9,1.9s-2.4,5.8-.1,7.1c3.2,1.9,7.5,1.1,10-1.5Z"/>
  <path class="uuid-ffa99b5a-dea2-47f2-bfb1-56b44efc97dd" d="M175,56c-.5-.2-1.1,0-1.2.5-.2.7,0,1.3.5,1.5s1,0,1.5,0c.2,4.6,1.6,8.8-1.9,8.9.4-.6-.2-1.8-1.1-1.8h-21.1c-1.3,0-1,1.5-1.1,2-.4,2.5,1.7,7.1,5.2,8.2,6.7,1.9,12.7.4,19.1-3.5,1.6,3,1.8,6.5.6,9.2s-4.3,1.5-5.8,2.3c.2-1.6-1.4-1.1-2.5-1.2s-1.8.8-1.5,2.1c-1.2-.1-2.8.5-4,.2.2-1.8-2.2-1.8-2,0-1.3.4-2.8-.4-4-.2,2.3-2.4-9.1-3.5-7.1-2-6.9-2.5-10.3-9.4-10.2-17s1.7-11.4,5.7-15.2,9.7-5.2,15.7-5.1,14.4,4.1,15.2,11.3ZM164.5,59.8c-.1-5.4-3.8-7.4-7.2-7.2s-7.1,3.1-6.8,7.5c5,0,9.3.5,13.9-.2Z"/>
  <path class="uuid-e56b4d64-9048-48a3-a5f3-86924ef4137a" d="M206.7,81.8c-7.8,3.6-16.9,3.2-24.7-.4-1.6-2.1-.9-6.7-.2-9.8,5.3,4.2,18.7,7,19.6,1.8s-19.1-1.4-20-14.9,1.8-9.1,6.4-11.3c7.4-3.6,16-3,23.8,0,.5,3.4.6,6.2,0,10-4.7-4.4-17.3-6.6-18.1-1.5s18.6,1.7,20,13.8-1.4,9.7-6.7,12.2Z"/>
  <path class="uuid-ffa99b5a-dea2-47f2-bfb1-56b44efc97dd" d="M245.7,75c1.6,2.5.8,5.6.5,8.5-8.3,1.6-21.9,2.8-22.9-8.9-.6-6.9.4-14.5-.5-21.1-.6-.6-2.8-.5-3.4-.8-1.5-.8-.8-6.4-.5-7,.4-.9,2.6-.8,3.7-1.3,1.4-2.8.2-5.9.7-9.2,3.7-.4,7.4-.5,11.5,0l.6,9.4,10.4.7c1.6,1,1.3,6.3.1,7.5l-10.8.7c.5,6.6-1,13.6.7,20.1.9,3.5,6.2,3.1,10,1.6Z"/>
  <path class="uuid-e56b4d64-9048-48a3-a5f3-86924ef4137a" d="M414.9,74.9c2,1.5,1.8,6.5.3,8.3-4.5,1.6-9.7,1.2-14.3.5-12.4-2.1-6.5-19-8.7-30.4-.1-.8-3.1-.2-3.6-.7-.8-.9-.8-6.4,0-7.4s2.7-.2,3.5-.8c1.4-2.8,0-5.9.7-9.3,4-.7,7.8-.5,11.8-.1l.2,9.3c3.3,1.3,7.3-.7,10.6,1,1.4,1.6.6,5.4.2,7.4l-11,.3c.5,6.7-.7,13.2.5,19.7s5.5,3.9,9.7,2.1Z"/>
  <path class="uuid-ffa99b5a-dea2-47f2-bfb1-56b44efc97dd" d="M382.8,56.1c-5.2-.2-9.7-.6-13.9,1.9l-.2,25.9c-4.3.5-7.8.4-12.3,0v-38.9c4.1-.3,7.5-.7,11.2,0s.9,3.4,1.7,4.7c3.9-3.2,8-5.9,13.2-4.8.6,3.6.5,6.6,0,11.2Z"/>
  <path class="uuid-e56b4d64-9048-48a3-a5f3-86924ef4137a" d="M173.9,66.9h-23.2c0-.4-.2-1.9,1.1-1.9h21.1c1,0,1.5,1.3,1.1,1.9Z"/>
  <path class="uuid-e56b4d64-9048-48a3-a5f3-86924ef4137a" d="M155.8,84.1c-2.8.6-4.8-1.2-7.1-2-2-1.4,9.4-.4,7.1,2Z"/>
  <path class="uuid-e56b4d64-9048-48a3-a5f3-86924ef4137a" d="M169.8,83.2c-1.3.7-2.4,1.1-4,.9-.3-1.3,0-2.3,1.5-2.1s2.7-.4,2.5,1.2Z"/>
  <path class="uuid-e56b4d64-9048-48a3-a5f3-86924ef4137a" d="M310.8,55c-.5,0-1.1.1-1.5,0s-.7-.8-.5-1.5.7-.7,1.2-.5c0,.9,1.2,1.4.8,2Z"/>
  <path class="uuid-e56b4d64-9048-48a3-a5f3-86924ef4137a" d="M175.8,58c-.5,0-1.1.1-1.5,0s-.7-.8-.5-1.5.7-.7,1.2-.5c0,.6.8,1.3.8,2Z"/>
  <path class="uuid-e56b4d64-9048-48a3-a5f3-86924ef4137a" d="M161.8,84.3c-.3,0-.7.7-1.2.5s-.6-.5-.8-.5c-.2-1.8,2.2-1.8,2,0Z"/>
  <path class="uuid-8a065d57-4a55-46f7-b863-0a777b11f3d5" d="M42.4,68c3.4,4.5,5.1,11.9,0,15.3-3.3,2.2-7.5,2.7-11,5.7-4.4-8.2-8.6-15.7-12.4-24.4s4.6-3.8,5.4-2.4l4,7c1.9-2.4,3.7-4.8,6.3-5.2s5.6,1,7.8,4ZM34.8,81.2c1.6,1.2,3.9-1.2,4.3-2.4.9-2.7-1.7-8.6-4.9-8.8s-4.2,1-3.8,3,2.1,6.4,4.4,8.2Z"/>
</svg>