<?xml version="1.0" encoding="UTF-8"?>
<svg id="uuid-a9ae6c34-0738-4829-908e-8ddad692c405" data-name="Capa 1" xmlns="http://www.w3.org/2000/svg" viewBox="0 0 1400 300">
  <path d="M771.5,246.2c-10-3-17.9-8.4-25.6-14.7-29.3-23.8-47.6-65-38.9-103s17.3-42.9,34.7-58.3c19.2-17,43.6-25.3,69.4-23.6,33.8,2.2,63.6,22.5,79,52.7,18.8,36.9,14.9,82.2-10.1,115.3-11.1,14.7-25.7,26.7-43.4,32.2s-43.7,5.7-65.1-.6ZM809.9,242.8c30.8.8,58.2-13.8,74-39.7,22.5-37,16.7-84.6-8.7-118.6-16.2-21.8-41.9-34.1-69.1-27.9-10.1,2.3-19.2,6.7-27.9,12.4-22.1,14.7-29,38.8-30.5,64.2-.9,15.1-.8,29.8.5,44.8.8,9.7,3.8,18.4,8.5,26.8,11.3,20.5,27.5,37.2,53.1,37.8Z"/>
  <path d="M1319.8,228.6c-33.5,29.2-83.6,30.6-119.2,4.9-51.6-37.3-56.3-113.5-12.4-157.8s31.4-23.2,50.7-27.3c32-6.7,64.3,3.6,86.8,27.2,39.9,41.9,38.8,114-5.9,152.9ZM1255.4,242.1c10.5.4,20.4.6,30.3-1.5,14.2-2.9,26.6-10.5,36.7-21.2,24.8-26.4,34.6-64.8,24.6-99.8-5.5-19.3-17.4-35.8-32.2-48.6-6.9-6-14.6-9.5-23-12.5-12.4-4.4-25.4-4.9-37.9-.6-37.6,12.8-51.5,37.1-53.9,76.1-2.2,36.6.6,74.9,31.5,98.9,6.9,5.4,14.6,8.9,23.9,9.3Z"/>
  <path d="M333.6,148.4v101.5s58.8-.2,58.8-.2c8.9,0,17.6-1,25.9-3s11.9-7.1,15.3-14.8c1.8,7.5,1.4,14.3,1.6,21.9l-83.9-.5c-20.1-.1-39-.5-59.2-1.7,4.4-1.4,8.2-1.5,12.9-2.3V54.4c-5.7-.5-22.4,1.7-24.7-4.5,5.2-1.3,9.8-2.2,15-2.4l44-1.2h96c0,0-.9,22.7-.9,22.7-5.4-6-1.9-10.6-12.2-13.5-8.4-.8-16.5-1.3-25.1-1.3h-63.6s0,89.6,0,89.6l37.2,1,12.8,1-50,2.5Z"/>
  <path d="M125.9,249c6.6-1.8,12.7-3.6,18.4-6.5,18.3-9.2,20.9-26.3,22-45.2,1.1-19.2.1-44-21.7-50.6-14.7-4.5-24.3-1-40.7-4.8-.6-.1-2-1.3-2-1.9s1.3-1.7,1.9-1.9c13.5-4,20.1-.4,33.4-4.1,8.8-2.4,15.8-8.8,18.5-17.8,4.2-14.4,4.1-30.2,0-44.6-3.5-12.1-12-19.3-24.5-23.8,15.5-4.4,34.4,3.5,46.4,12.9s9.6,10.9,11.9,18.2c4.1,13.1,2.1,26.8-6.8,37.5-4.4,5.3-9.8,10-16.1,13l-19.9,9.4,21.4,8.5c6.8,2.7,12.8,7,18.1,12,11.2,10.6,15.8,25.2,14,40.4s-11.2,31.4-26.3,40.1c-20.5,11.7-40.6,11.9-64.2,13.7l16.3-4.4Z"/>
  <path d="M1034.5,151.5c22.6,28.4,65.6,74.7,92.2,100.4-20.1,1.3-38.9,1.4-57.9-.1,3.9-1.7,6.5-2.4,10-4.4l-37.4-45-48.3-56.3,72.7-76.6c5.1-5.3,9.7-9.7,15.6-14.9-.8,2.4-2.1,4.3-3.8,6.4-13.5,16.3-27.3,31.9-42.3,46.8s-11.3,11.5-16.6,18.1-1.3,4-.1,5.5l16,20.1Z"/>
  <path d="M632.1,253.3c-5.7,0-10.8-.7-15.5-1.9l4.8-2.8c1.1-.7.2-4-.3-5.4-5.3-7.7-10.4-14.6-16.5-21.9l-63.4-75c26.3-29.3,53-56.9,80.5-84.3,2.9-2.9,5.3-5.1,8.9-7.2-5.5,7.5-11.2,13.6-17.4,20.3l-51,54.6,47.8,54.8,42.3,47,22.7,22.1-42.7-.3Z"/>
  <path d="M66.5,171.8l-.5-17.2-1.6-48.2c-.6-16.6-1.6-32.7-3.1-49.1l-15.8-9.9c8.1-1.6,15.2-.9,23.5-1.1l-.7,63.9-.7,75.8c-.5-4.9-1-9.5-1.1-14.3Z"/>
  <path d="M982.2,168.7l-.4-19.4c0-2.8-.4-5.5-.5-8.3l-.5-18.8c-.5-17.1-1-33.7-2.9-50.7-.6-5.1-1.9-11.1-5.7-14.3l-12.8-10.8,23.5,1.8v80.7c.1,8.7-.3,16.8.3,25.3s.6,18.3,0,27.3l-1-12.8Z"/>
  <path d="M526.6,157.1c-.1-2.5-.5-4.9-.5-7.2l-.6-48.7c-.2-11.8-.7-23-2.2-34.6-.7-5.2-2.9-9.6-6.9-12.7l-9.1-7.3,21.8-.3-1.3,90-.5,45.2c-1-7.9-.2-15.8-.7-24.4Z"/>
</svg>