<?xml version="1.0" encoding="UTF-8"?>
<svg id="uuid-1e3e507c-58ec-49ba-a01d-9fc21a672f2e" data-name="Capa 1" xmlns="http://www.w3.org/2000/svg" viewBox="0 0 400 90">
  <path d="M73,64.5l-.6-22.2-10.8,22.2c-1.6.9-5.1,1-6.9.4l-11.8-23.5-.6,23c-1,.9-4.2,1-6.5.6V25.8c1.9-.6,4.8-.7,7-.3l15.2,30.6,14.5-30.6h7c0,0,0,38.9,0,38.9-.7,1.3-5.3,1.5-6.4.2Z"/>
  <path d="M190.9,59.8l-6.9,4.8c2.9,5.7.7,12.1-4.8,14.1s-12.9-.7-12.6-7.6,5.4-.3,6.4,1.5,4.1,1.1,5,.5,1.7-2.5,1.9-3.9c.8-6.3-16.8,0-22.5-17.8s1-18,8-22.6,17.5-4.8,25,2c-.9,1.5-2.6,3.3-4.3,5-6.1-5-13.5-4.9-18.8.2s-5.3,12.6-1,17.9,13.1,6.6,19.5,1.4c1.4.7,3.2,2.4,5.2,4.6Z"/>
  <path d="M334,64.7c-1.3.9-6.8,1.5-8.1-.1l-9.8-13.1-9.8,13.1c-1.2,1.4-5.9,1-8.2.4l13.7-19.6-14-19.9h8c0,0,10.2,13.9,10.2,13.9l10.3-14,8,.2-14.1,19.9,13.6,19.4Z"/>
  <path d="M125.5,61h-14c-1,1.8-1.8,4.4-3.1,4.4s-4.7-.4-5.8-.7l15.8-40.8,15.9,41-5.7.6c-1.3.1-2.2-2.4-3.2-4.5ZM123.2,54.7l-4.6-13.7-4.8,13.8h9.4Z"/>
  <path d="M234.8,61h-13.4c-1.1,1.4-2,3.6-3.1,4.2s-4.9,0-6.1-.6l15.7-40,16,40.1-5.3.9c-1.4.2-2.7-2.6-3.7-4.6ZM232.7,54.6l-4.8-12.8-4.8,13,9.6-.2Z"/>
  <polygon points="274.4 65.1 267.5 65.2 267.4 25.3 274.3 25.3 274.4 65.1"/>
  <path d="M362.5,29.7c-.2.7-4.3,2.3-4.7.9l-1.5-4.6-1.6,6.3-2.2-6.8c2.9-.9,7.1-.2,8.4,3l3-3.7.3,7.8-1.8-2.8Z"/>
</svg>