<?xml version="1.0" encoding="UTF-8"?>
<svg id="uuid-d748946c-0e8c-4f80-bc52-c30e646976fd" data-name="Capa 1" xmlns="http://www.w3.org/2000/svg" viewBox="0 0 360 174">
  <defs>
    <style>
      .uuid-859fc750-b529-46f3-9e29-0feff6572f10 {
        fill: #baa375;
      }

      .uuid-7cd2357d-9d38-4e2a-b6dc-6b1f8fc352f4 {
        fill: #6b6a6a;
      }

      .uuid-66470ff2-42d3-43b3-9aaf-c2a551dfbe67 {
        fill: #747474;
      }
    </style>
  </defs>
  <path class="uuid-859fc750-b529-46f3-9e29-0feff6572f10" d="M249.5,86c3.9-1.6,1.7-17.5,11.3-24.4,3.3-2.4,7.6-3.3,11.3-1.3s5.7,5.4,5,9.7-2.4,3.6-4.1,3.9c-4.6.9-6.9-8-9.1-2.1-4.2,11.2.9,25.3-12.9,32.9-1.1.6-1.9,1.6-2.1,2.3-2.8,7.6,12.8,2.6,18.7-3.7,7.7-8.2,16.1-19.8,28.1-22,2-.4,3.9.5,4.5,1.9,1.7,3.8-4.7,7.8-1.6,9.6,4.9-3.2,11.1-5.6,15.8-2.3,2.9,2,0,6.4.1,8.7,6.3,3.3,15.8,5.9,14.5,15.7-12.4-3.6-25.2-4.3-38.3-2.9l-40.9,4.3c-9.7,1-18.8.6-28-2.1-19.6-5.6-33.7-21.6-35.7-42.1-1.8-18.7,1.2-42.4,11.9-58.3,1.8-2.6,3.8-3.2,6.1-3.8s4.6,2.6,6.8,2.7c6.9.3,13.2-.8,20,1.6,12.5,4.4,20.8,16.6,17.7,30.1-1.7,7.8-9.7,14.2-17.9,13.6s-10.9-8.6-9.1-14.6,2.7-3.5,4.7-3.6c5.3-.3,4.1,6.7,7,7.6s3.5,0,4.9-1.5c2.9-3,3.3-7.1,2.2-11.6-2-8.3-17.2-13.2-29.9-6.7s-21,20.1-20.6,34.6,3.9,0,4.4-1.3c2.2-5.2,8.4-6.6,13.2-4.7,4.4,1.7,7.5,6.6,6.8,12.2s-5,8.1-9.4,8.6c-8.9.9-10.5-6.8-12.7-7.8s-2.3,0-2.2,1.1c2.9,27.8,27.5,43.3,53.7,40.6,1.9-8.8-16.8-8.8-12.4-20.5,2.7-7.2,13.8-2.5,18.1-4.2Z"/>
  <path class="uuid-859fc750-b529-46f3-9e29-0feff6572f10" d="M89.2,71.2c-1.8-4.1.5-7.9,3-10.1s7.5-2.4,11.3-.4c9.7,5.2,8.6,18.5,12.1,24.7,3.1,3.4,15.7-3.2,18.7,4.8,4.5,11.6-15.4,12-11.9,20.5,25.6,2.7,52.4-14.3,53.3-41.2s-3.4,0-3.8,1c-2.7,6.6-10.8,7.7-15.8,4.6s-6.1-11.9-1.7-16.6c4.6-4.8,13.7-4.5,16.8,2.2s4.3,3.4,4.4,1.4c.6-13.9-7.3-27.5-19.5-34.1-13.1-7.1-29-2.7-31.2,7.2s0,8.6,3.4,11.4,2.7,1,3.8.9c2.9-.3,1.9-7.8,7.1-7.7s4.4,1.3,4.9,4.3c.9,5.5-2.2,13-8.6,13.8s-16.1-5.2-18.3-12.6c-3.7-12.7,3.3-24.3,14.6-29.8,7.4-3.6,14.8-2.8,22.7-2.8,2.4,0,4.5-3.7,7.7-2.6,2.2.7,4.4,1.8,6.2,4.6,9.6,15,12.1,36.9,11.3,54.7-1,21.4-15.1,38.6-35.4,44.7-9.1,2.7-18.1,3.3-27.7,2.3l-40.9-4.3c-13.2-1.4-26.1-.7-39.3,2.9-1-11.8,13.6-14.2,14.3-15.2,1.2-1.7-2-4.6-.2-8.2,2.5-5.1,13.4-1.2,18.1,2-.2-4.5-5.1-8.1-2.9-10.8,3.8-4.7,15,3.2,19.1,6.7,11.7,10.1,14.7,20.7,30.6,21.5,1.3,0,1.6-2.3,1.6-3.1s-1-2.5-2.3-3.3c-15.9-9-7.2-30.9-14.4-34.3s-2.6,3.6-6.1,3.8-3.9-.3-5-2.7Z"/>
  <path class="uuid-66470ff2-42d3-43b3-9aaf-c2a551dfbe67" d="M321.4,163.1c-4.7.3-8.5.1-13.1,0v-28.8c4.5-.3,9-.5,13.7,0,8,.8,13.2,7,13.1,14.5s-5.2,13.8-13.7,14.3ZM332.8,150.5c.7-5.4-1.7-11.1-7.4-13.2-4.8-1.8-10.3-1.5-15.2-.6l.2,24.6c9.9.8,21,.4,22.4-10.7Z"/>
  <path class="uuid-66470ff2-42d3-43b3-9aaf-c2a551dfbe67" d="M295.7,163.2c-8.6-4.2-1.8-11.8-18.9-9.1-1.8,3.4,1.4,6.6-2,9.7-1.4-10-.4-19.6-.5-29.6,8.2-.2,20.3-1.8,21.9,7.9.8,4.7-1.3,8.8-6.2,11.1,1.2,4.1,5,5.4,5.7,10.1ZM289.1,151.1c4.1-1.2,5.3-4.9,5-8.2-.8-7.8-10.5-7.1-17.5-6.5-.5,5.2-.4,9.8,0,15.2,4.3.5,8.3.8,12.5-.4Z"/>
  <path class="uuid-7cd2357d-9d38-4e2a-b6dc-6b1f8fc352f4" d="M126.7,153.4c-3.7.8-7.6,0-11.3.5-2.3,3,1.4,6.9-2.4,10l-.4-29.6c8.7-.3,21.2-1.8,22.1,8.5.4,5-2.1,9.4-7.9,10.6ZM127,151.2c4.1-.9,5.5-4.3,5.4-7.4s-1.7-6.1-5.3-7.1c-4-1.1-8-1.1-12.4-.3v15c4,.7,8,.7,12.2-.2Z"/>
  <path class="uuid-7cd2357d-9d38-4e2a-b6dc-6b1f8fc352f4" d="M258.9,155.5c-5.4-.9-10.9-.3-16.3-.3-3.4,2.1-1.7,7.2-6.5,8.4l12-27.3c.4-.8,2.5-3.3,3.3-1.7,4.7,9.6,9.1,18.9,13.2,28.9-4.4-.7-3.4-4.8-5.7-8ZM257.5,153.1c-2-5.7-4.4-10.7-7.2-16l-7.2,15.9c4.8.5,8.9.4,14.5.1Z"/>
  <path class="uuid-7cd2357d-9d38-4e2a-b6dc-6b1f8fc352f4" d="M192.7,155.8c-5.3-1.8-11.4-.4-16.7-.6-2.8,2.6-1.3,7.4-6.2,8l14.4-30.2c5.9,10.3,10,20.3,14.1,30-4.6-.5-2.9-5.3-5.5-7.3ZM191.3,152.6l-7.1-15.4c-3.1,5.1-4.9,10.2-7.4,15.7,5.2.3,9.8,1,14.5-.3Z"/>
  <path class="uuid-7cd2357d-9d38-4e2a-b6dc-6b1f8fc352f4" d="M230.1,138.9c-7.3-3.1-13.7-4.6-19.1.2s-5.5,12.7-1.3,17.8c4.9,6,12.1,5,19.7,2.3-5.1,6.8-15.7,5.2-21.1-.7s-5.1-15.1,1.1-20.7,15.8-6.4,20.7,1.1Z"/>
  <path class="uuid-7cd2357d-9d38-4e2a-b6dc-6b1f8fc352f4" d="M48.9,153.3c.2-.3.4-.5.7-.7.5,1,2,2.2,3.1,2.9,5.6-7.3,7.5-15.1,14.2-22.2.2,10.9,1.2,20.5-.5,30.8-3.3-8.3.2-15.8-1.9-24.3l-12,19.7c-2.9-1.8-2.4-4.7-3.6-6.2Z"/>
  <path class="uuid-66470ff2-42d3-43b3-9aaf-c2a551dfbe67" d="M83.8,135.8c-1.5,9.8,1.3,18.6-1.4,28.3-2.6-9.7-.1-19-1.2-28.6s1.1-1.2,1.4-1.2.4,0,1.2,1.5Z"/>
  <path class="uuid-7cd2357d-9d38-4e2a-b6dc-6b1f8fc352f4" d="M41.9,139.2c-.2.4-.4.8-.7,1.2-3.5-1.5.6,22.3-2.6,23.8l-1.2-30.2c4,.3,3.3,3.6,4.5,5.2Z"/>
  <path class="uuid-7cd2357d-9d38-4e2a-b6dc-6b1f8fc352f4" d="M148.8,161.3c.1.3,0,.7,0,1-.4.2-3.1.3-3.1-.9.7-9.5-1.1-18.4.9-28,3.3,9.8-1,19.2,2.1,27.9Z"/>
  <path class="uuid-66470ff2-42d3-43b3-9aaf-c2a551dfbe67" d="M49.5,152.7c-.3.2-.5.4-.7.7-3.1-3.9-5.7-8.3-7.7-12.9.2-.4.5-.8.7-1.2,3.1,4.1,5.8,8.7,7.7,13.4Z"/>
  <path class="uuid-66470ff2-42d3-43b3-9aaf-c2a551dfbe67" d="M148.8,162.3c0-.3.1-.7,0-1,5.4.6,10.8-1.3,16.9,1-5.8,2.3-10.9.5-16.2,1-.3-.7-.5-1-.7-1Z"/>
</svg>