<?xml version="1.0" encoding="UTF-8"?>
<svg id="uuid-d8fd4f5a-f618-440a-be9c-f7d59e3d2d16" data-name="Capa 1" xmlns="http://www.w3.org/2000/svg" viewBox="0 0 500 300">
  <defs>
    <style>
      .uuid-58b63dea-dbac-44bd-bc7e-48b687525267 {
        fill: #0a0507;
      }

      .uuid-00fc51a0-98ad-40ec-812b-44720e7786e8 {
        fill: #fd278b;
      }

      .uuid-ec11a88c-c9f9-4e53-995c-42a9473b5ccf {
        fill: #ef1a72;
      }

      .uuid-853afe16-d872-4d19-8e71-8c2a109858ec {
        fill: #cbcbcb;
      }

      .uuid-e5016e93-7cac-418b-94b6-ec6796cd8323 {
        fill: #ececec;
      }
    </style>
  </defs>
  <path class="uuid-58b63dea-dbac-44bd-bc7e-48b687525267" d="M161.4,76c-.1,2.7.2,6.5-.5,9.1l-10.6,37c-4.1,14.4-8.9,28-12.4,42.6s-7.2,35.5-5.7,53.1.6,6.5,4.5,8c7.3-6.4,17.1-16.6,17.9-27.2s-.6-26.2,5.8-38.8.8-3.4.8-4.7c2.7-1.9,3.1-5.4,5-8,1.6,1.2,6.1-.5,6.9,2.9-.8,1.4-.3,3.4-.9,4.8s-.7,3.3-1.2,5c-3.2,10.4-5.1,21.3-5.9,32.5,4.4.2,4.3-3.7,6.2-4.6,3.6-1.8,4.6-5.7,6.8-8.5,5.4-7,10.9-14.9,14.1-23.1,4.4-.9,2.1-11.6,2.1-15.2l2.1-7.8c2.1-7.6,9.6-12.5,17.2-11.4s12.3,8,10.8,15.5.4,2.6,0,3.8c-2,4.7-3.3,18.5-9.5,16.1s7.2-26.7-.5-29.9c-15.3,8.2-8.9,28.9-3.9,40.8s1.4,6.7,4.7,9.3c7.6-7.2,15.3-13.6,21.2-21.2,4-1.2,3.5-4.7,3.5-8.1,0-6.3-.7-13.9,3.8-18.7l5.7-6.1c4.2-1.9,8.9-2,13,0l2,1,4.7,3.8c0,.3,0,.8,0,1.1.7,1.6,1.2,3.3,1.1,5-.7,3.7-3.1,23.5-8.4,23.2s-3.5-.4-3.2-2.2l3.7-22.8c.3-2-1.1-4.3-2.6-4.8s-3,.9-4.1,2c-11.1,11.7-3.4,32.9,2.8,45.5s3.8,1.5,4.9,0c5.5-7.3,14.4-12,18.8-20.1,5.4-9.9,7.3-21.5,13.4-30.8,2.5-3.7,6.9-7.9,10.5-10.1,6.6-4,13.9-1.7,17.2,4.4-.4,15.6-14.3,36.7-25.2,49.9,9.9-2,16.9-8.1,25.2-12.1s9.5-4.9,14.2-8,6.7,0,6.2,2.6l-5.3,25.2c-1.2,5.6-3.4,11.3-.9,17.2,19.4-17.3,29.9-42.3,37.5-66.5-8.7.8-16.4,2.4-23.7,4.8s-4.8,2.6-8.1.5-2.8-3.8-2-6.9,2.5-4.5,5.4-4c2.7,3.4,5.9,3.8,10,2.2,6.6-2.7,13.4-4.2,20-5.9s2.9-2.6,4.2-5.3l11-23.1c1.3-.8,1.7-3.2,3-3.6,1.9-.6,3.6-.4,4.8,1.1s.7,3.8,0,5.4c-2.7,6.6-4.1,13.6-6.5,21.1,2.5,1.3,5,.7,6.7-.7,2,.2,4.1,0,6.6-.5l39.8-7.2c1.8.7,2.7,1.8,2.9,3.2s.1,2.3-.6,3.3c-17.3,4.2-35,6.4-52.9,9.8-3.7.7-6.9,2.2-8.3,6-10.4,29.8-23.2,68.4-23.4,99.3,0,2.1-.5,4.7,1.9,6.6,5.4-4.4,7.5-10.7,11-15.7s5.4-8.3,8.1-13.1l29-51.7c.8-1.5,2.8-1.9,3.7-1.5s2.4,2.3,1.5,3.9l-22,39.7c-1.1,1.9-2.1,3.6-2.3,5.5-8.1,9.9-21.5,43.9-33.2,40.9-2.4-.6-6.9-2.7-7.9-5.6-3.6-16.2,3.4-40.9,5.8-57.2-6.7,7.8-18.4,28.4-28.6,23.4-10.5-5.1-2.5-32.5.8-42.9l-41.1,20.7c5.8,12.4,9.4,23.4,11.8,35.1,1,4.7-.6,10.2,1.1,14.8-2.8,9.1-1.5,30.9-18.4,30.3-15.4-.6-15.9-31-14.6-42.3l3.4-28.3c.8-6.3,4.4-12.3,4.7-20-5,3.5-9.1,7.8-12.2,12.3s-4.6,2.7-3.4,6.8c3,10.2,2.7,21.6-1.9,31.5-4.3,9.3-12.9,16.1-22.7,12.6s-5.5-4.4-7.7-7.9c.6-1.2-.3-2.7,0-3.9,2.1-11.5,12.8-22.9,15.8-28.9s2.3-1.6,2.1-3c1.4-.3,3.4-1.7,2.5-3.9l-9.3-24.2-23.6,23.6c-1.8,2.9.8,7.4,1.4,10.2,1.2,6-.5,12.1-.4,18.1-.9-.4-1,.7-1.3,1.6-1.7,6.7-5,12.4-10.5,16.3s-16.1,3.2-21.1-3.8l-.9-7c3-9.3,8.8-17.1,13.9-25.4s2.9-2.2,3.2-3.8c3-2.1,3.2-6.9,1.7-10.7l-6.5-16.8c-10.9,16.5-11.6,20.6-24.6,35.2s-8.5,4.2-13,4.8c-5.1,8.7-10.8,28.3-23.3,28.3s-9.6-1.3-12.2-5.9-3.2-8-3.3-11.8c-.7-16.6,1.5-33,5.7-49.6s5.3-21.6,8.8-32l8.7-26.2c3-9.1,7.6-18.1,8.3-28.4-6.8,6.1-10.9,13.3-14.4,21l-26.8,59.6c-3.8,8.4-6.9,17-12.4,24.5s-11.1-4.4-11.5-4c-.7-8.2.5-16.9,2.4-24.9s5.4-21,7.1-32.7c-12.2,10.3-23.4,48.7-27.5,63.1s-4.8,20.5-8.9,30.4-6,1.1-7.8.1c-3.3-1.9-3.8-8.3-3.7-10.9,2.7-49.1,7.2-56.5,19.1-101.6.3-1,.2-1.8,0-2.4s-1.1-1.2-.7-1.7c3.1-3.6,3.9-7.9,6-12s4.7-.9,5.6.4,2,4,1.2,5.5c-1.6,2.7-.6,6.2-1.4,8.9-3.2,9.8-4.6,20-7.1,30.6-3.8,16.3-8.2,32-8.8,49.4l14.2-39.9c2.5-7,8.3-12.9,10.2-20.2,4.4-3.7,5.5-11.1,13-10s6.1,5.3,7.9,8c-2.2,2.4-1.6,5.8-2.2,8.8-2.5,12.6-5.5,25.3-7,38.6,6.6-6.9,7.5-15.5,11-22.4,6.8-13.2,12.6-27,19.1-41l6.6-14.2c.4-1,11.8-19.6,17.5-21.2s8.3,5.5,8.1,9.3ZM292.9,162.4c12.2-11.6,18.1-25.9,23.3-40.3-.5-1.6-.1-3-1-3.6-4-2.9-9.4,8.1-11.3,11.4-4,10.7-8.7,21-11,32.5ZM285,200.1c-2.7,15.4-4.3,31.5-1.8,47.9s.7,3.1,1.5,4c1.4,1.4,4.2,2,5.7.5,3.4-3.5,3.7-7.9,4.3-12.6,1.4-11.2.8-22.9-1.8-34.8-1.2-5.3-1.9-10.9-5.1-16.2-2.7,3.4-2.8,7.5-2.6,11.2ZM241.6,227c7,2.2,14.6-24.6,10.7-31.3-5.9,4.6-21.1,28-10.7,31.3ZM207.1,196c-6.1,7.3-17.4,21.7-13.9,29.1,5.4,11.5,19.4-16.4,13.9-29.1Z"/>
  <path class="uuid-00fc51a0-98ad-40ec-812b-44720e7786e8" d="M454.2,110c-2,.8-4.5.6-6.3,1,.8-.9.8-2.1.6-3.3s-1.1-2.5-2.9-3.2l-39.8,7.2c-2.4.4-4.6.7-6.6.5,4.7-4,6.5-9.7,2.2-15.2s-2.7-3.3-2.4-5.2c.7-1.6,1-4.1,0-5.4s-2.9-1.7-4.8-1.1-1.7,2.8-3,3.6c-3.2,2-3.9,5.9-5.7,9.4l-9.5,18.9c-6.5,1.6-13.4,3.2-20,5.9s-7.3,1.2-10-2.2,0-2.1-.7-2.8-19.5,2-12.4.3l-4.8,1.2c-1.7.4-3.5-1.7-5.3-1.3-3.3-6-10.5-8.4-17.2-4.4-3.6,2.2-8,6.3-10.5,10.1-.1-6.1-5.7,4.6-10.3-2.8s-5.6-.4-19.9-3.1-3.4.6-3.9,1.6,1.2,2.5,1,3.5c-4.1-2-8.8-1.9-13,0-1.6-.4-2.3.8-4.6,2.4.2-3.9-1.6-4.6-4-6.1s-5.7-4.4-8.4-1.5-.6,3.2-1.9,3.8-2.1.6-3.1.4c-6.1-16.1-4.5-34.8,3.9-50.2,10.2-18.5,28.9-29.8,48.9-31.1s42.1,8.2,53.1,26.2l6.9,11.4c12.5-29.3,43.3-44,73.2-35.2,28.1,8.3,47.6,37.9,41.3,66.8Z"/>
  <path class="uuid-ec11a88c-c9f9-4e53-995c-42a9473b5ccf" d="M454.2,110c-2.5,11.5-5.3,22.4-12.3,33.2-7.4,11.4-15.1,22.7-24,32.8s-9.5,8.6-13.1,14-7.8,6.4-10.7,9.9c.2-1.9,1.2-3.5,2.3-5.5l22-39.7c.9-1.6-.2-3.3-1.5-3.9s-2.8,0-3.7,1.5l-29,51.7c-2.7,4.8-5.2,8.9-8.1,13.1-1.8.5-11.2,10.1-12.9,9.1.2-30.8,13-69.5,23.4-99.3,1.3-3.8,4.6-5.3,8.3-6,18-3.3,35.7-5.6,52.9-9.8s4.4-.2,6.3-1Z"/>
  <path class="uuid-ec11a88c-c9f9-4e53-995c-42a9473b5ccf" d="M353.1,235.1c-1.1.8-1.8,2.2-3,2.8-2,1-3.5,2.4-4.9,3.8s-4.4,2.1-6.3,2.3c-10.6-7.1-20.1-15.9-30-24s-1.7-1.2-2.6-1.3c-.6-2.2-2.7-3.2-4.5-4.4-2.4-11.7-6-22.8-11.8-35.1l41.1-20.7c-3.3,10.4-11.3,37.7-.8,42.9,10.3,5,21.9-15.6,28.6-23.4-2.4,16.2-9.4,41-5.8,57.2Z"/>
  <path class="uuid-e5016e93-7cac-418b-94b6-ec6796cd8323" d="M68.1,99c.3.5.3,1.4,0,2.4-11.9,45.1-16.4,52.5-19.1,101.6-5.6-1.3-.8,10.9-.7,12.9s.1,4.3,1.4,6,11.2,4.9,13.4-1c5.8-15.1,6.7-29.3,10.2-37.5s5.6-18.8,11-27.2,4.1-2,5.3-3.5c-1.9,8.1-3.1,16.7-2.4,24.9-2,2.8-1.5,13.7,4.6,15.8s9-.6,11.1-4.7c5.8-11,11.1-22.2,15.7-33.9s.7-6.2,2.1-9.2l9.1-20c3.1-6.8,5.4-13.8,9.9-20s3.1-.6,4.1-.7l-8.7,26.2c-3.5,10.5-6,21.1-8.8,32-4.2,16.6-6.4,33-5.7,49.6-4.8-2.4-.5,14.7.1,17.3,2,7.9,9.5,13,18.4,10.4s12.8-9.1,14.7-15.3,8.2-10.7,15.3-14.5c13.1-7,20.2-28.2,25.3-28.8s5.4,3.8,7.5,7.9c-.2,1.6-2.4,2.6-3.2,3.8-.6-1.4-1-2.9-2-3.5s-3.6-.9-4.3.4c-19.6,32.4-28.4,22.2-32.8,33.4-5.2,13.3-16.4,25.9-31.5,20.3s-12.1-50.5-8.3-67.5c.9-4.1,2.8-8.6,0-13-5.8,8.9-8.9,17.9-13.7,26.3s-7.2,7.8-13.6,6.7c-10.5-1.9-8.8-13.4-13.1-13.1s-2,1.1-2.4,2.6l-9.9,35c-1.5,5.2-6.6,8.5-11.5,8.2s-9.7-3.6-10.8-9.5c-5.2-28.5,11.1-88.5,19.6-118.1s.4-2.2,1.1-2.8,1.6-.5,2.4-.3Z"/>
  <path class="uuid-e5016e93-7cac-418b-94b6-ec6796cd8323" d="M161.2,155.3c0,1.3,0,3.3-.8,4.7-6.4,12.5-5,25.6-5.8,38.8s-10.6,20.8-17.9,27.2c-4-1.5-4.3-5.6-4.5-8,1.1.2,2.2-1.1,2.3-2.6.8-15.6,2.9-30.4,7.3-45.5l18.4-62.4c2.4-8.1,3.7-15.7,2.7-24.4-1.1.6-1,1.9-2,2.2.7-2.6.4-6.4.5-9.1,5.1-2.1,7.1,8.9,7,11.5-.6,12.4-4.5,24-8,36.1l-15.7,54.3c-1.8,6.3-7.8,36.8-3.9,38.9s6.3-8.9,6.3-9.7c-.6-17.3,2.3-34,10.5-49.1s1.6-3,3.4-2.7Z"/>
  <path class="uuid-e5016e93-7cac-418b-94b6-ec6796cd8323" d="M248.1,188.2c.2,1.4-1.7,2.1-2.1,3-4.3.3-1.9-5.1-5.3-8.4s-9,4.8-13.9,8.7-3.7,7.7-3.2,12.6c1.7,15.9.6,22.6-8.8,34.5s-18.5,11.4-27.2,5-7.6-12.4-5.5-19.8.5-4.7,3-4.8l.9,7c-2,4.2-.3,9.3,2.5,12.1s8.4,5,13.8,3.7c10.4-2.6,15.4-13.3,17.4-23.3.6-3,.5-5-.9-6.6-.1-6,1.6-12.1.4-18.1,3.9-1.6,15.1-22.7,22.9-15.9s3.5,7.6,6.1,10.3Z"/>
  <path class="uuid-e5016e93-7cac-418b-94b6-ec6796cd8323" d="M345.2,241.7c1.4-1.4,2.9-2.9,4.9-3.8,2.4-1-1.6,4.2,4.1,9.9s4.4,4.4,7.3,4.3c8.4-.3,15.1-9.4,19.5-17l24.7-43.3c.4-.7-.2-2-.9-1.7,3.6-5.5,8.8-9.2,13.1-14,.4,1.9-.4,3.6-1.5,5.5l-29.2,51.7c-4.2,7.4-8.9,14.2-15.2,19.8s-9.3,3.9-14.6,2.1c-8.4-2.8-8.9-11.8-12.3-13.4Z"/>
  <path class="uuid-e5016e93-7cac-418b-94b6-ec6796cd8323" d="M306.3,218.7c-1,2.5-.1,4.9.2,7.8,1.7,15.6.1,46.7-21.1,47.2-7.2.2-13.1-4.8-16.5-11.6-5.1-10.2-2.7-22.9-6.5-23.2s-2.9.4-4,1.5c-7.4,7.7-19.7,9.5-27.6,1.7s-5.7-15.8-2.3-24.1c.7.7.7,1.7,1.6,2.1-.2,1.2.7,2.7,0,3.9-2.5,5.1-1.9,11.4,1.8,15.5s9.9,5.8,16.1,4.3,13.7-12.5,16.3-11.8c4.2,1.2,1.4,13.2,5.5,25.3,1.6,4.8,4.5,10.1,9.2,12.3,9.3,4.4,18.3-1.7,21.6-10.8s3.6-17.5,3.9-26.8c0-1.7-.7-2.6-1.8-2.9-1.6-4.6,0-10.1-1.1-14.8,1.8,1.2,3.9,2.2,4.5,4.4Z"/>
  <path class="uuid-e5016e93-7cac-418b-94b6-ec6796cd8323" d="M227.9,129.9c1.7.9,2.5,2.8,3.5,4.8l5.8,11.4c-1.2,3-2.6,7-1.2,10.1-5.9,7.6-13.6,13.9-21.2,21.2-3.2-2.6-3.4-6.2-4.7-9.3,6.8-1.2,12.1-.8,14.3-10.4s3.7-17.7-.4-16.7c.4-1.2-.2-2.6,0-3.8,3.4,1.1,0-7.1,3.7-7.3Z"/>
  <path class="uuid-ec11a88c-c9f9-4e53-995c-42a9473b5ccf" d="M249,123.2l-5.7,6.1c-4.5,4.8-3.7,12.4-3.8,18.7l-2.3-2-5.8-11.4c-1-2-1.8-3.9-3.5-4.8.1-2.4,0-5.5-1-7.8,1.1.2,2.1,0,3.1-.4s1-2.9,1.9-3.8c2.7-2.9,6,0,8.4,1.5s4.1,2.2,4,6.1c2.3-1.6,3-2.8,4.6-2.4Z"/>
  <path class="uuid-e5016e93-7cac-418b-94b6-ec6796cd8323" d="M135.8,87.9l-6.6,14.2c-6.5,14-12.2,27.8-19.1,41-6.2-3.1,3.2-15.8-4.1-16.2.6-3,0-6.4,2.2-8.8,2.1-.2,3,3.3,4.9,3.8,3.4.7,5-4,6.2-6.5l9.8-19.9c1.6-3.2,2.9-7.3,6.6-7.4Z"/>
  <path class="uuid-e5016e93-7cac-418b-94b6-ec6796cd8323" d="M87.3,120c-1.9,7.3-7.7,13.1-10.2,20.2-7.2,2.5,7.5-37.3,3.6-42.2-1,1.1-1.1,1.9-1.9,2.1.9-2.7-.2-6.2,1.4-8.9,4.7-.7,7.3,7.8,6.2,13.4l-2.4,11.5c.3,1.7,2.7,2.8,3.4,4Z"/>
  <path class="uuid-e5016e93-7cac-418b-94b6-ec6796cd8323" d="M169,129.1c-.1,2.4,1.4,4.4,3,6-.7,1.6-2.2,3.3-2,4.6.4,2.3,2.3,3.3,3.6,3.5s3.9-.3,4.4-2.2-1.8-3.9-3-5.6c1.9,0,3.5-1.1,4.9-2.3,3.5.3,3.5,4.5,3.9,7.5.6,4.7-6.1,9.2-10.8,9.6-.7-3.4-5.2-1.6-6.9-2.9-4.3-3.2-4.1-9.5-2-14.2s2.2-4.3,4.9-4Z"/>
  <path class="uuid-e5016e93-7cac-418b-94b6-ec6796cd8323" d="M177.9,179.2c-2.2,2.8-3.2,6.8-6.8,8.5-4.6-3.7,8.2-28.3-.3-27.9.5-1.6.4-3.4,1.2-5,12.4,3.8-3.1,26.6,5.9,24.3Z"/>
  <path class="uuid-58b63dea-dbac-44bd-bc7e-48b687525267" d="M179.9,133c-1.4,1.2-3,2.3-4.9,2.3-.7-.4-2.2-.1-3-.3-1.6-1.6-3.1-3.6-3-6s.9-6.2,4.1-6c4.9.3,7.4,5.8,6.8,9.9Z"/>
  <path class="uuid-853afe16-d872-4d19-8e71-8c2a109858ec" d="M194.2,141c0,3.6,2.3,14.3-2.1,15.2-1.8,1.5-1.5-18.1,2.1-15.2Z"/>
  <path class="uuid-ec11a88c-c9f9-4e53-995c-42a9473b5ccf" d="M346,121c-3-.5-4.8,1.7-5.4,4s0,5.6,2,6.9c3.2,2.2,5.2.5,8.1-.5,7.4-2.5,15-4.1,23.7-4.8-7.6,24.2-18.1,49.3-37.5,66.5-2.5-5.9-.2-11.6.9-17.2l5.3-25.2c.6-2.6-4.1-4-6.2-2.6-4.6,3.2-9.1,5.6-14.2,8-8.3,4-15.3,10.1-25.2,12.1,10.9-13.2,24.8-34.4,25.2-49.9,1.8-.4,3.5,1.8,5.3,1.3l4.8-1.2c-7.1,1.7,11.6-1,12.4-.3s.2,2.1.7,2.8Z"/>
  <path class="uuid-853afe16-d872-4d19-8e71-8c2a109858ec" d="M265.8,181c2,3,4.9,5.2,7.5,7.7l-3.4,28.3c-1.4,11.3-.8,41.7,14.6,42.3,16.9.6,15.5-21.1,18.4-30.3,1.1.3,1.9,1.2,1.8,2.9-.4,9.4-.8,18.2-3.9,26.8s-12.3,15.2-21.6,10.8-7.5-7.5-9.2-12.3c-4.1-12-1.4-24-5.5-25.3s-7.7,9.7-16.3,11.8-12.2,0-16.1-4.3-4.3-10.4-1.8-15.5c2.1,3.5,4.5,6.8,7.7,7.9,9.7,3.5,18.3-3.3,22.7-12.6,4.6-9.9,4.9-21.2,1.9-31.5-1.2-4.1,2.1-4.9,3.4-6.8Z"/>
  <path class="uuid-ec11a88c-c9f9-4e53-995c-42a9473b5ccf" d="M295.2,124c-6.1,9.3-8,20.8-13.4,30.8-4.4,8.2-13.4,12.9-18.8,20.1s-4.1,1.6-4.9,0c-6.2-12.6-13.9-33.7-2.8-45.5s2.9-2.5,4.1-2,3,2.9,2.6,4.8l-3.7,22.8c-.3,1.9,2.1,2.2,3.2,2.2,5.3.3,7.7-19.5,8.4-23.2.3-.8,1.3-1.6,1.3-2.5,0-2-.5-3-2.4-2.5-.1-.3-.1-.8,0-1.1,0-1.3-.5-2.7-1.4-3.5s-3-2.5-3.3-.3l-2-1c.2-1-1.5-2.7-1-3.5s2.8-1.8,3.9-1.6c14.3,2.7,16.6-2.1,19.9,3.1s10.2-3.3,10.3,2.8Z"/>
  <path class="uuid-853afe16-d872-4d19-8e71-8c2a109858ec" d="M202.1,189.9c-2.1-4.1-1.9-8.6-7.5-7.9s-12.2,21.9-25.3,28.8c-7.1,3.8-12.7,5.9-15.3,14.5s-8.6,13.6-14.7,15.3c-8.9,2.5-16.4-2.5-18.4-10.4s-4.9-19.7-.1-17.3c.2,3.8,1.4,8.3,3.3,11.8s7.6,6,12.2,5.9c12.5,0,18.2-19.6,23.3-28.3,4.5-.6,9.5-.9,13-4.8,13-14.6,13.8-18.7,24.6-35.2l6.5,16.8c1.5,3.9,1.3,8.6-1.7,10.7Z"/>
  <path class="uuid-853afe16-d872-4d19-8e71-8c2a109858ec" d="M144,105.1c-1.1.1-3.2-.5-4.1.7-4.5,6.2-6.8,13.2-9.9,20l-9.1,20c-1.4,3.1-.9,6.3-2.1,9.2-4.6,11.7-9.9,22.9-15.7,33.9s-7,6.1-11.1,4.7c-6.2-2.1-6.7-13.1-4.6-15.8.4-.3,7.8,9,11.5,4,5.5-7.4,8.6-16,12.4-24.5l26.8-59.6c3.5-7.8,7.6-14.9,14.4-21-.8,10.3-5.3,19.3-8.3,28.4Z"/>
  <path class="uuid-853afe16-d872-4d19-8e71-8c2a109858ec" d="M89.7,152.9c-1.2,1.5-4.2,1.7-5.3,3.5-5.4,8.4-7.1,18.2-11,27.2s-4.4,22.4-10.2,37.5c-2.3,5.9-11.7,3.4-13.4,1s-1.2-3.5-1.4-6-4.9-14.2.7-12.9c-.1,2.6.3,9,3.7,10.9s6.7,2.6,7.8-.1c4.1-9.9,6-20.1,8.9-30.4s15.3-52.8,27.5-63.1c-1.7,11.6-4.6,22.1-7.1,32.7Z"/>
  <path class="uuid-853afe16-d872-4d19-8e71-8c2a109858ec" d="M132.2,217.9c-1.4-17.6,1.5-35.4,5.7-53.1s8.2-28.2,12.4-42.6l10.6-37c1-.3.8-1.6,2-2.2,1,8.7-.3,16.2-2.7,24.4l-18.4,62.4c-4.4,15.1-6.5,29.9-7.3,45.5s-1.2,2.9-2.3,2.6Z"/>
  <path class="uuid-853afe16-d872-4d19-8e71-8c2a109858ec" d="M350.1,237.9c1.2-.6,2-2,3-2.8,1,3,5.5,5,7.9,5.6,11.7,3,25-31,33.2-40.9,2.8-3.5,8.3-6.2,10.7-9.9.7-.3,1.2,1,.9,1.7l-24.7,43.3c-4.4,7.7-11,16.7-19.5,17-2.9.1-5-2-7.3-4.3-5.7-5.6-1.7-10.9-4.1-9.9Z"/>
  <path class="uuid-853afe16-d872-4d19-8e71-8c2a109858ec" d="M224.2,141c4.1-1,1.1,13.8.4,16.7-2.2,9.6-7.5,9.2-14.3,10.4-5-11.9-11.5-32.7,3.9-40.8,7.7,3.3-4.4,28.1.5,29.9s7.5-11.4,9.5-16.1Z"/>
  <path class="uuid-853afe16-d872-4d19-8e71-8c2a109858ec" d="M248.1,188.2c-2.6-2.7-2.9-7.5-6.1-10.3-7.8-6.8-19,14.4-22.9,15.9-.5-2.7-3.2-7.2-1.4-10.2l23.6-23.6,9.3,24.2c.8,2.1-1.2,3.6-2.5,3.9Z"/>
  <path class="uuid-853afe16-d872-4d19-8e71-8c2a109858ec" d="M77.1,140.1l-14.2,39.9c.6-17.4,5-33.2,8.8-49.4,2.5-10.6,3.9-20.8,7.1-30.6.8-.1.9-1,1.9-2.1,3.9,4.8-10.8,44.7-3.6,42.2Z"/>
  <path class="uuid-853afe16-d872-4d19-8e71-8c2a109858ec" d="M292.8,205.1c2.6,11.9,3.2,23.5,1.8,34.8-5.3,1.5-.5-9.4-3.7-18.6-.4-1.2-1.3-2.7-2.3-2.4-7,2.3.3,33.3-5.4,29.1-2.5-16.4-.8-32.5,1.8-47.9,3,1.1,4.5,4.5,7.8,5.1Z"/>
  <path class="uuid-853afe16-d872-4d19-8e71-8c2a109858ec" d="M185.9,226.1c5,6.9,13.7,9.1,21.1,3.8s8.9-9.6,10.5-16.3.4-2,1.3-1.6c1.3,1.6,1.5,3.6.9,6.6-2,10-7,20.7-17.4,23.3-5.4,1.3-10.1,0-13.8-3.7s-4.5-7.9-2.5-12.1Z"/>
  <path class="uuid-ec11a88c-c9f9-4e53-995c-42a9473b5ccf" d="M292.9,162.4c2.2-11.5,7-21.8,11-32.5,1.9-3.2,7.4-14.3,11.3-11.4s.5,2,1,3.6c-5.1,14.4-11.1,28.6-23.3,40.3Z"/>
  <path class="uuid-853afe16-d872-4d19-8e71-8c2a109858ec" d="M207.1,196c5.5,12.7-8.5,40.6-13.9,29.1s7.8-21.8,13.9-29.1Z"/>
  <path class="uuid-853afe16-d872-4d19-8e71-8c2a109858ec" d="M241.6,227c-10.4-3.3,4.8-26.7,10.7-31.3,3.9,6.7-3.7,33.5-10.7,31.3Z"/>
  <path class="uuid-e5016e93-7cac-418b-94b6-ec6796cd8323" d="M294.6,239.9c-.6,4.7-.8,9.1-4.3,12.6s-4.2.9-5.7-.5-1.3-2.4-1.5-4c5.7,4.2-1.6-26.7,5.4-29.1s1.9,1.2,2.3,2.4c3.2,9.2-1.5,20,3.7,18.6Z"/>
  <path class="uuid-853afe16-d872-4d19-8e71-8c2a109858ec" d="M110.2,143c-3.6,6.9-4.4,15.5-11,22.4,1.4-13.3,4.5-25.9,7-38.6,7.3.3-2.1,13,4.1,16.2Z"/>
  <path class="uuid-853afe16-d872-4d19-8e71-8c2a109858ec" d="M171.2,187.8c-1.8.9-1.8,4.8-6.2,4.6.8-11.2,2.6-22.2,5.9-32.5,8.5-.4-4.3,24.2.3,27.9Z"/>
  <path class="uuid-ec11a88c-c9f9-4e53-995c-42a9473b5ccf" d="M399.2,112.3c-1.7,1.4-4.2,2-6.7.7,2.3-7.5,3.7-14.5,6.5-21.1-.2,1.9,1.2,3.6,2.4,5.2,4.3,5.4,2.5,11.2-2.2,15.2Z"/>
  <path class="uuid-ec11a88c-c9f9-4e53-995c-42a9473b5ccf" d="M273.3,188.6c-2.6-2.4-5.5-4.7-7.5-7.7,3-4.5,7.2-8.8,12.2-12.3-.3,7.7-3.9,13.6-4.7,20Z"/>
  <path class="uuid-ec11a88c-c9f9-4e53-995c-42a9473b5ccf" d="M292.8,205.1c-3.2-.6-4.8-4-7.8-5.1-.2-3.7-.1-7.8,2.6-11.2,3.2,5.4,3.9,11,5.1,16.2Z"/>
  <path class="uuid-853afe16-d872-4d19-8e71-8c2a109858ec" d="M363.3,226.1c1.7,1.1,11.1-8.5,12.9-9.1-3.5,5-5.6,11.3-11,15.7-2.4-1.9-1.9-4.5-1.9-6.6Z"/>
  <path class="uuid-853afe16-d872-4d19-8e71-8c2a109858ec" d="M239.6,148c0,3.4.5,6.9-3.5,8.1-1.4-3.1,0-7,1.2-10.1l2.3,2Z"/>
  <path class="uuid-00fc51a0-98ad-40ec-812b-44720e7786e8" d="M268.7,127.9l-4.7-3.8c.3-2.2,2.5-.3,3.3.3s1.4,2.2,1.4,3.5Z"/>
  <path class="uuid-ec11a88c-c9f9-4e53-995c-42a9473b5ccf" d="M376,117.3l9.5-18.9c1.8-3.5,2.5-7.4,5.7-9.4l-11,23.1c-1.3,2.6-1.7,4.6-4.2,5.3Z"/>
  <path class="uuid-00fc51a0-98ad-40ec-812b-44720e7786e8" d="M269.9,134c.1-1.7-.5-3.4-1.1-5,1.9-.5,2.4.6,2.4,2.5s-1,1.7-1.3,2.5Z"/>
  <path class="uuid-853afe16-d872-4d19-8e71-8c2a109858ec" d="M175,135.4c1.3,1.6,3.7,2.8,3,5.6s-2.6,2.5-4.4,2.2-3.2-1.2-3.6-3.5,1.2-3.1,2-4.6c.8.2,2.3-.1,3,.3Z"/>
</svg>