<?xml version="1.0" encoding="UTF-8"?>
<svg id="uuid-bcbbdfe8-a699-46a1-9aac-fcc1d3fc48d1" data-name="Capa 1" xmlns="http://www.w3.org/2000/svg" viewBox="0 0 1000 300">
  <defs>
    <style>
      .uuid-6c665f86-79e6-4afc-8e90-141462e61ec4 {
        fill: #c17c98;
      }

      .uuid-5a9cf0cd-67ae-479d-b4ed-65c872894c00 {
        fill: #09090d;
      }

      .uuid-d8ca6bf0-7aad-4200-8709-9411ce207364 {
        fill: #020307;
      }

      .uuid-64e82e99-1ce4-49e9-8ba6-74c7f6e85f39 {
        fill: #101014;
      }
    </style>
  </defs>
  <path class="uuid-d8ca6bf0-7aad-4200-8709-9411ce207364" d="M285.8,175.4l80.1,80.7c-19.2,19-49.5,18.9-68.4,0l-66.7-66.9-67,67.1c-18.6,18.7-48.9,18.9-68-.2l80.2-80.6-68.4-.7c-19-.2-36.2-8.8-49.2-22.4-26.2-27.5-26.5-71-.8-98.8,27.4-29.6,73.8-32.2,102.5-3.6l70.6,70.6,65.9-66.3c20.4-20.5,48.3-30,77.2-20.3s44.8,30.2,47.9,57.7c.8,7.1,1.1,14.9,0,22.1-4.9,34.6-34.5,60.8-69.2,61.1l-66.8.6ZM132.4,92.1c-1-1.8-2-3.7-3-5-8.2-10.7-23.2-11.8-33.3-4.1-10.2,7.7-12.6,21.8-5.6,32.6,6.7,10.3,20.7,13.9,31.6,8.1,11.1-5.9,16.4-20.2,10.3-31.7ZM345.6,78.7c-13.9,3.1-21.4,16.6-18.4,29.3,3,12.9,15.6,20.5,28.3,18.1s21.5-15.3,18.9-28.6-15-21.9-28.9-18.8Z"/>
  <path class="uuid-5a9cf0cd-67ae-479d-b4ed-65c872894c00" d="M630.7,193.8c-6.7-1.1-9.8-6.4-12.5-12.3-7,7.4-19.6,19.7-28,12.5-2.8-2.4-2.4-5.8-2.7-11-4.8,3.9-8.4,8.8-14.7,10.8s-11,2-15.1-1.9c-16.4-15.5,15.1-66.5,45.1-61.9,7.2,1.1,11.9,7.3,9.9,14.4-3.1,11,6.6,3.4-2.7,19.2-2.6,4.3-15.2,23.7-10.8,26.2,3,1.7,17-12.1,18.6-17.2,3.2-10.4,6.1-20.2,15.4-26.9,8.4-6.1,19.1-7.3,23.6.8s3,8.3-.4,9.7-6.5-2.1-9.5,0c-9.4,6.5-19.9,24.3-12,29.3,8.7,5.6,30.1-26.3,29.6-36.1-5.1-5.1-11.5-10.9-10.2-19s2.7-6.6,5.4-7.6c4.1-1.5,7.3.5,10.2,3.1,5.2,4.5,4.1,11.5,6.6,17.6,3.1,2.7,11.6,2,15.6-.1,13-26.2,37.6-49.6,68.6-50.3,7.7-.2,16.7.4,22.5,5,14.4,11.6,18.7,25.3,10.4,42.1s-34.6,29.9-57,34.9c-3.6,4.4-4.7,12.8-4.9,18.5s1.7,5.5,3.8,7.7c3,3.2-3.8,8.9-18.3,5s12-54.1,16.8-63.1,6.4-13,7.4-20.4c4.2-.8,7.3,1.3,9.5,3.7,8.1,8.4-1.3,23.6-4.5,33.2,19.9-8,34.1-25.9,37.5-46.4.5-2.8-.1-5.4-1.5-7.3-5.1-7.1-22.1-1.2-29.3,2.4-16.1,8.1-30,20.2-40,35.1-4,5.9-10.4,21-3.9,26,1.5,1.1,1.3,3,.8,4.4s-11.6,4.6-17.6-3.8c-3.9-5.5-3.8-12.2-2.5-19.1l-14.7-.5c-2.2,19.6-22.5,46.7-44.4,43.3ZM666.1,132.3c-.7-1.7-4.1-2.8-4.8-.9-1.6,4.4,1.8,8.6,5.9,9.7.9-3.4,0-6-1.2-8.9ZM602.9,152.2c1.6-3.5,3.4-8.1,1.5-11.9s-4.8-1.3-6.6,0c-11.5,7.8-21.1,18.1-27,30.8s-4,9.8-2.3,14.2,5.3,1.1,7.1-.4c12.8-9.8,13.8-24.9,27.2-32.7Z"/>
  <path class="uuid-5a9cf0cd-67ae-479d-b4ed-65c872894c00" d="M857.5,141.1c-3-.9-12.6,13.8-12.4,16.6,1.5-.2,16.7-17.5,12.4-16.6,4.6,1.3,9-8.3,16.5-9.2,5.9-.7,11.7,3.1,14.8,7.7s1.3,6.3-.7,9.1c-5.3,7.1-22.8,30.8-18.1,39.1,5.1,9,23.1-14.8,24.7-18.6,10-24,23.5-56.5,44.5-72.2,12.6-1.2,9.7,0,15.6,4.3s3.6,7.3.9,8.7-7.1,2.9-10.1,6.2c-9.6,10.3-18.8,21.4-25,34.2,7.4-3,14.8-17.4,24.6-18.7s15.1,4.5,15.1,11.3c0,13-12.5,20.8-24.8,20.8-2.1,6.8-2.3,13.7.1,20.1s6.6,7.9,10.2,5.5c10-6.7,17.1-16.5,24.2-25.9.9-1.2,2-1.5,2.8-.9,4,3.2-14.9,24.1-20,28.4-9.3,7.8-23.5,6.5-30-3.8s-3.4-12.8-3.4-20.5c-5,6-15.3,19.5-14.4,27-2.6,1.8-7,.5-9.2-1.2s-2.6-5.5-4.2-10.4c-4.5,3.6-7.6,8.1-12.8,11.2-7.3,4.4-17,2.2-21.7-5.7-7.6-12.8,8.4-36.8,16-48.4-3.9.7-6.1,3.6-8.5,6.1-8.6,9.2-28.1,34.8-28.7,46.7-6.2,2.3-14.2-1.2-14.9-8.9-6.3,4-9.8,9.2-16.4,10.8-9.1,2.3-17.6-5.5-17.9-14.7-.7-16.5,10.7-30.7,18.8-43.3s-1.5-5.4,1.1-5.8c5.7-.8,11.7,4.4,14,9.5s-.2,5.4-2,7.7c-4.8,6.5-23.9,32.5-16.8,39.1,5.6,5.2,18-7.9,19-11,5-14.8,10.9-29.2,20.6-41.4s6.1-4,10.1-1.7,6.4,4.6,5.9,8.8ZM944.5,139.9c-2.7-2-3.6.4-5.1,1.2-6.1,5.7-11.3,11.8-15.9,19.1,10-3.3,16.5-11.1,20.9-20.3Z"/>
  <path class="uuid-5a9cf0cd-67ae-479d-b4ed-65c872894c00" d="M509.7,123.2c7.4-2.1,13,5.6,12.6,13s-4.5,14.7-7.8,23.4c20.2-7.3,34.2-25.8,37.7-46.2.5-2.8-.2-5.6-1.6-7.5-4.7-6.4-20.9-1.2-28,2.2-16.7,8-30.9,20.5-41.3,35.9s-8.1,16-5.4,23.7,5.2,5.5,1.4,7.4-8,1.1-10.9,0c-5.8-2.3-8.7-8.5-9-14.5-.9-19.6,17.8-42.5,32.8-53.5,15.3-11.3,34.4-16.8,53.2-12.3,9.7,2.3,16.9,11.1,20.6,19.5s2.1,12.2.3,19.1c-6.6,25.5-36,37.6-59.8,41.7-3.5,7.5-8.7,18.2-3.5,23.6l2.8,2.8c.8.8.9,3.6-.8,4.5-5.6,2.9-12.7,2.4-18.6.2-13.8-5.1,8.2-45.1,12.7-53.7,3.2-6.1,6.8-11.3,8.8-18.1s3.5-6.6,3.5-10.9Z"/>
  <path class="uuid-64e82e99-1ce4-49e9-8ba6-74c7f6e85f39" d="M907,236.4h-382.8c-1.8,0-2.8-1.1-2.9-2.1s.4-3.2,2.6-3.2h383.4c2,0,2.4,1.8,2.6,2.6.3,1.2-.7,2.7-2.9,2.7Z"/>
  <path class="uuid-64e82e99-1ce4-49e9-8ba6-74c7f6e85f39" d="M906.2,69.5h-381.2c-2.3,0-3.3-.8-3.4-2-.3-2,.5-3.5,3.3-3.5h381.5c2.4,0,3.2,1.1,3.4,2.5s-.7,2.9-3.4,2.9Z"/>
  <path class="uuid-6c665f86-79e6-4afc-8e90-141462e61ec4" d="M206.8,59.7c-1.4-4.4-1.1-6.5.2-11,3.8-12.5,15.9-21,28.7-18.2,12.9,2.8,21.2,15,18.8,28.5s-12.3,19.4-23.4,19.6-20.8-7.8-24.3-18.9Z"/>
  <path class="uuid-5a9cf0cd-67ae-479d-b4ed-65c872894c00" d="M825.9,122.6c-5.8,4-1.4,6.3-2.4,9.8s-13-5.1-11.3-17.6,4.4-13.3,11.6-15.3,13.1,2.5,16.4,7.7.4,5.3-1.7,6.7l-12.7,8.6Z"/>
  <path class="uuid-64e82e99-1ce4-49e9-8ba6-74c7f6e85f39" d="M937.9,83.4c-7.5,1.5-14.2-1.5-17.7-7.2s-3.1-13.3,1.3-18.6,11.2-7.1,18-4.9,11.1,8.8,10.8,15.9c-.3,6.8-4.6,13.2-12.4,14.8ZM928.5,60.6c2.7-1.9,7.7-1,10.3,0s2,2.5,2.2,4-1.6,2.4-2.1,3.6c1.1,2.3,2.1,4.7,3.1,8.6,4.3-2.8,4.8-8.4,3.6-12.9s-4.9-7.9-10.1-8.7-11.4,3.3-13,8.4c-1.8,5.5.3,11.7,4.7,14.6s11.6,2.8,15-1.3l-4.4-1.5c-1.3-.5,0-5.8-4.7-5.6s.2,6.3-2.9,6.3-2.3-12.4-1.6-15.4ZM932.1,62.8c-1,2.1-.6,4.1,1,4s2.3,0,3.1-.7c1.3-1.2.6-2.9-.6-3.5s-3-1-3.6.2Z"/>
</svg>