<?xml version="1.0" encoding="UTF-8"?>
<svg id="uuid-5fd268a9-5a1b-492e-bc8d-931c16fb2c4d" data-name="Capa 1" xmlns="http://www.w3.org/2000/svg" viewBox="0 0 1300 300">
  <defs>
    <style>
      .uuid-d1e040a5-d6bd-4518-84e6-d9e5d1029e73 {
        fill: #784ead;
      }

      .uuid-91826f71-7d02-46f0-9a89-a349cb9d5390 {
        fill: #7346ab;
      }

      .uuid-324d7041-b49b-422a-8179-2115c22edcf5 {
        fill: #fefefe;
      }
    </style>
  </defs>
  <path class="uuid-d1e040a5-d6bd-4518-84e6-d9e5d1029e73" d="M50,81.5v-2c2.2-.1,3.2-2.8,5.6-3.4,18.8-5.1,35.1,9.1,46,22.9s15.4,25,20.4,39.2l13,37.2c7.6,21.8,26.6,30.3,25,35.1l-13.1,39.1c-.5,1.4-1.1,2.8-2,3.1s-2.4.8-3.5.2c-20.9-11.8-35.4-31.1-40.8-54.6-3.3-14-5-27.5-6.2-41.9-6.1-71.9-27-62.8-38-70.5l-6.3-4.4ZM152.1,210.5c-37.7-30.3-26.2-75.6-62.4-113.7-1.3-1.3-2.6-2.9-4.9-2,6.5,8.8,9.9,18.3,12,28.9,4.8,23.9,5.2,50.7,10.8,72.9,4.8,19.3,15.8,36.3,33.3,47.1l11.1-33.2Z"/>
  <path class="uuid-d1e040a5-d6bd-4518-84e6-d9e5d1029e73" d="M1250,101.5v19.3c-1.8,0-1.8,1.8-2.4,3.4-5,13.7-17,23.9-31.4,25.8-14.9,2.1-28.2-2.7-37.9-14.1-16.1-19-10.7-48.2,10.2-60.6,21.9-13.1,49.8-3.6,59.1,20.1s.4,4.9,2.4,5.9ZM1202,74c-20.8,4.3-33,24.6-28.6,44.2,4.4,19.4,24,32.1,43.1,28.2,20.4-4.2,33.3-23.3,29.4-43.4s-23-33.4-43.9-29Z"/>
  <path class="uuid-91826f71-7d02-46f0-9a89-a349cb9d5390" d="M789.4,270.7c-36,2.1-68.7-14-88-43.6-10.1-15.6-15.2-32.9-16.3-51.5-3.4-54.7,37.2-102.1,91.8-105.8,49.9-3.4,93.8,30.3,103.1,79.5,11.4,60.1-27.2,117.7-90.6,121.4ZM777.5,244.5c29.9,2.8,56.3-12.2,69.5-38.3,20.1-39.8,4.4-88.1-36.5-105.2-25.7-10.8-54.2-5.3-74.3,13.5-16.2,15.1-24,35.8-23.7,57.9.4,37,27.3,68.6,65.1,72.1Z"/>
  <path class="uuid-91826f71-7d02-46f0-9a89-a349cb9d5390" d="M577.7,171l27.4-.9c19.9-.6,34.3-16.9,32.4-36.9s-2.1-12.1-5.3-17.7c-3.5-6.2-9.6-10.5-16.8-11.6-16.7-2.4-33.2-3.4-50.3-4.5v166.9s-25.6.2-25.6.2V74.8s46.5-1.1,46.5-1.1c15.6-.4,30.5,1.2,44.8,7.1,18.8,7,31.4,22.8,34,42.7,4.2,34.2-8.8,58.6-41.2,71.9l44.2,70.5-31.1.6-59-95.6Z"/>
  <path class="uuid-91826f71-7d02-46f0-9a89-a349cb9d5390" d="M1140.7,209.7h-77.6c0-.1-22.5,56.7-22.5,56.7l-27.2-.2,74-191h28.9c0,0,73.8,191.3,73.8,191.3h-28.2c0,.1-21.3-56.7-21.3-56.7ZM1130.5,183l-26.3-70c-.4-1.5-1.4-2.5-2.6-2.3s-1.9.7-2.3,1.9l-26.4,70.6,57.7-.2Z"/>
  <path class="uuid-91826f71-7d02-46f0-9a89-a349cb9d5390" d="M948.4,270.7c-31.9-3.5-53.3-33.3-47.5-64h22c4.2,17.9,8.6,38.8,32.1,38.2s29.6-13.2,30.5-32.3c.6-12.5-5.5-22.4-16.3-28.4-15.3-8.5-31.6-9.9-45.7-20.1-10.1-7.4-17.4-17.5-19.4-30.3-2.5-16.3,2-33.6,12.9-46.2,19.5-22.5,58.6-22.9,77.6-1.6,9.9,11.1,13.8,25.5,12.1,40.5h-22.7c-3.4-15.7-8.5-31.5-28-30.6-14.1.7-24.4,10.8-25.7,24.6-3.4,37.2,48.3,21.4,73.5,59.1,8.7,13,10,28.3,7.4,43.3-5.1,30.4-31.1,51.3-62.9,47.8Z"/>
  <path class="uuid-91826f71-7d02-46f0-9a89-a349cb9d5390" d="M514,112.4c6.8,31.7-4.1,62.7-37.5,71.7-17.2,4.7-34.4,6.3-52.7,5.1v77.2c-9.1.6-17.7.5-26.8,0V73s34.8,1.1,34.8,1.1c15.6.5,30.6,1.1,45.9,3.9,18.5,3.3,32.4,16.1,36.3,34.5ZM486.5,119.9c-1.1-7.7-6.2-13.3-13.4-15.7-15.9-5.4-32.2-4.7-49-2.9v62.9c13.5-1.1,35.2-1.6,46.4-5,16.5-4.9,18.1-25,16-39.3Z"/>
  <path class="uuid-d1e040a5-d6bd-4518-84e6-d9e5d1029e73" d="M239.7,253.2c-2.1,1.2-4.3-1.6-4.8-3.3l-13.3-39.5c-.7-2.1,2.4-3.6,2.9-5.5,11.3-8,18.7-18.9,23.3-31.9l14.2-40.6c7.9-22.5,30.7-58.6,58.1-57.2,4.3.2,8.2,1.1,10.6,4.9-.7,9.1-17,4.3-27.9,19.3s-13.7,39.5-15.5,58.6c-1.4,15.3-3.2,29.9-7.4,44.8-6.1,21.7-20.4,39.7-40.1,50.5ZM266.3,216.4c6.7-12.7,9.6-25.7,11.2-39.5l5.6-45.1c1.7-13.7,6.5-25.3,12.6-38.2-39,33.5-28.4,87.7-66.5,117.3l11.5,32.6c11.1-6.8,19.3-16,25.5-27.2Z"/>
  <path class="uuid-d1e040a5-d6bd-4518-84e6-d9e5d1029e73" d="M224.5,198.2c-1.6,1.8-3.1,2-4.7,1.8s-2.2-1.5-2.8-3.3l-8-23.1c-.8-2.3-.2-4.3,1.2-6.3,8.1-11.8,15.2-23.9,20.5-37.4,9.3-24,25.3-43.1,49-53.7s6.8-3.2,9.4-.5-.4,6.1-2,7.8c-17.8,18.5-28.8,25.8-33.8,54.3s-13.3,43.2-28.7,60.4ZM244.2,144.5c5.3-24.4,6-29.5,20.9-50.1-14,9.4-21.6,23.7-27.7,38.6-5.6,13.8-12.5,26.1-21.1,38.2,1.7,6.4,3,12.2,6.6,17.8,10-13.8,17.7-28,21.3-44.5Z"/>
  <path class="uuid-d1e040a5-d6bd-4518-84e6-d9e5d1029e73" d="M163.7,198.9c-1.3,3.1-5.5.5-7-1.2-14.3-16.1-23.6-35.5-27.5-56.8s-6.9-29.2-17.5-40l-16.8-17.2c-1.8-1.8-3.8-6.1-1.9-8,2.8-2.9,6.6-.6,9.5.7,21.6,10,37.7,27,46.6,49,5.3,13.1,11.4,25.2,19,37.1s5.8,6.2,4.8,10.1c-2.5,8.9-5.5,17.6-9.1,26.4ZM118,95c0-.3-.2-.5-.5-.5s-.5.2-.5.5.2.5.5.5.5-.2.5-.5ZM165.3,171.3c-9.3-12.8-16-25.5-21.6-39.5s-12.3-26.8-25.3-35.6c8.5,12.6,14.6,24.5,17,39.1s11,37.8,23.7,54.1c2.9-6.1,4.7-11.6,6.3-18.1Z"/>
  <path class="uuid-d1e040a5-d6bd-4518-84e6-d9e5d1029e73" d="M190.7,94.8l-12.5,58.3c-.5,2.4-1.7,3.6-3.7,3.4-6.4-.7-2.1-10.8-.9-17.4l12.5-66.3c-6.8-8.6-18-22.7-11.1-33.4,4.2-6.5,11.7-10.5,19.6-10.4,2.3.6,3.4,3.5,5.5,4.7,3.9-.7,6.8,1,7.7,4.7,2.9,13.1-1.1,26.8-12.8,34.6l14.8,78.5c.5,2.5-.3,4.5-2.3,4.9s-4.2-.6-4.8-3.3l-12-58.3ZM199.1,42.4c-2,.9-3.8,1.1-5.5.1s-1-3.4-2.3-4.3c-3.3-2.2-7.1,1.6-8.8,3.7-5.2,6.3,1.6,19,8.7,24,13.5-6.8,15.9-27.4,7.9-23.5Z"/>
  <path class="uuid-d1e040a5-d6bd-4518-84e6-d9e5d1029e73" d="M225.1,257.6c-25.2,9.2-41.6,9.6-67,.8s-3.5-3.1-2.6-5.8l31.4-93.1c.6-1.7,2.8-2.7,3.8-2.9,1.6-.3,3.4,1.1,4.1,3.1l29.6,89c.9,2.6,2.5,6.6.7,8.9ZM217.7,251.8l-27.2-79.9-27,80.4c18.1,6.1,37,6.8,54.2-.5Z"/>
  <circle class="uuid-324d7041-b49b-422a-8179-2115c22edcf5" cx="117.5" cy="95" r=".5"/>
  <path class="uuid-d1e040a5-d6bd-4518-84e6-d9e5d1029e73" d="M1231.5,131.3c-4.2,1.4-8.2.6-12.4.5l-7.8-14.6c-1.4-2.6-5.5-2.4-8.3-1.6l-.3,16c-3.9.8-8,.7-12.1,0v-45c12.2.9,35.2-4.7,35.3,11.9,0,5.3-1.8,9.7-7.5,11.9,2.9,2.3,4.7,4,5.9,6.8l7.1,14.1ZM1212.2,105.1c2.7-2.2,2.2-7.4-.6-8.8s-6.1-1-8.9-.3c-.9,3.6-.9,6.8.4,10.2,2.9.3,6.4,1.1,9-1Z"/>
</svg>