<?xml version="1.0" encoding="UTF-8"?>
<svg id="uuid-46dced9b-1f22-435d-8860-83c2f50eb49d" data-name="Capa 1" xmlns="http://www.w3.org/2000/svg" viewBox="0 0 600 100">
  <path d="M369,82.5l-.3-39.5-14.3,39.2c-2.4.3-5.6.3-8.2,0l-14.1-39-.3,39.3h-9.1c0,0,0-52.6,0-52.6h13.5c0,0,14.4,40.8,14.4,40.8l14.1-40.9h13.2c0-.1,0,52.6,0,52.6h-8.9Z"/>
  <path d="M238,82.3c-3.6.3-7.3.2-10.5-.2l-23.4-37.9-.2,38.2h-9.2c0,0,0-52.7,0-52.7h10.1c0,0,23.8,38,23.8,38l.4-37.9,8.9-.2v52.6Z"/>
  <path d="M46.5,82.5c-8.1-2.5-12.7-8.9-12.6-17.5h9.1c1,5.4,3.1,8.9,8.1,10.3s8.9,1.1,12.9-.9c2.6-1.3,4-4.8,3.7-7.4s-3-5-5.7-5.8l-14.9-3.9c-5.9-1.6-10.3-5.5-11-10.7s1.2-12.1,7-15.3,16.2-4.2,23.6-.7,9.2,7.9,9.1,14.5h-9.4c-.6-7.5-6.8-9.6-13.5-8.9s-6.4,2.3-7.2,5,1.2,6.7,4.8,7.8l18,5.2c6.1,1.8,9,8.2,8.9,13.6s-3.7,11.6-10,14.1-13.8,2.8-20.7.6Z"/>
  <polygon points="563.3 59.1 537 59.1 536.9 74.3 566.1 74.3 566 82.6 527.5 82.5 527.4 29.6 565.5 29.5 565.7 37.7 537.1 37.8 536.9 51.3 563.2 51.3 563.3 59.1"/>
  <path d="M129.8,68.6h-20.8s-4.8,13.5-4.8,13.5c-2.9.4-6.6.4-9.9,0l20-52.4h10.3c0,0,20.1,52.3,20.1,52.3l-10,.4-5-13.9ZM127.2,61.2l-7.8-22.2-7.9,22.3h15.7Z"/>
  <path d="M433.9,68.6h-20.8s-4.8,13.5-4.8,13.5c-2.7.4-6,.4-9.9,0l20-52.4h10.3c0-.1,20.1,52.3,20.1,52.3l-10,.4-5-14ZM431.3,61.2l-7.8-22.2-7.9,22.3h15.7Z"/>
  <path d="M285.9,82.3h-9.4c0,0-.2-44.5-.2-44.5h-16.2c-.3-2.3-.4-5.4-.3-8.3h42.4s.4,8.1.4,8.1l-16.8.2v44.5Z"/>
  <path d="M505.2,74.3c.3,2.1.3,5.1.3,8.2h-36s0-52.6,0-52.6l9.5-.2v44.7s26.3,0,26.3,0Z"/>
  <path d="M171.5,81.5c-2.5,1.3-6.1,1.2-9.5.7V29.7s9.4,0,9.4,0v51.9Z"/>
  <polygon points="565.7 24.3 527.7 24.4 527.7 16.1 565.5 16.1 565.7 24.3"/>
</svg>