<?xml version="1.0" encoding="UTF-8"?>
<svg id="uuid-0fc2eb5e-94ec-480d-a2ae-c1bc7094462c" data-name="Capa 1" xmlns="http://www.w3.org/2000/svg" viewBox="0 0 710 300">
  <defs>
    <style>
      .uuid-05ea4474-e214-4a13-8c8c-6cbf998c8017 {
        fill: #f92a45;
      }

      .uuid-56aaa105-7621-4601-9b49-8d6fba68252b {
        fill: #2d3d8a;
      }

      .uuid-278c085a-445f-4fbc-bc7e-a1d0cb73d09c {
        fill: #081c8c;
      }

      .uuid-7672714b-e42a-474d-947c-0d2eda364405 {
        fill: #f7344c;
      }

      .uuid-c2e86e41-9350-4a41-bdaf-4fbf47be1300 {
        fill: #051a8c;
      }
    </style>
  </defs>
  <path class="uuid-c2e86e41-9350-4a41-bdaf-4fbf47be1300" d="M88.4,116.2c-.4-.5-1.1-1.1-2.2-1.1l-45,.4c-8.5-.9-16.6-4.7-23.1-11.1-3.4-4.3-6.9-8-10-13.8h87.8c0-.1,58.4,52.7,58.4,52.7-3.5,9.2-5.1,18.2-7.4,27.2l-58.5-54.2Z"/>
  <path class="uuid-c2e86e41-9350-4a41-bdaf-4fbf47be1300" d="M671.2,115.4l-45.7-.2c-3.5,0-4,2.8-5.3,4l-54.7,51.4c-2.1-10.2-3.9-18.5-7.3-27.6l58.4-52.7h87.4c-5,12.2-19.7,24.8-32.8,25Z"/>
  <path class="uuid-c2e86e41-9350-4a41-bdaf-4fbf47be1300" d="M307.2,195c-.7.2-1,1-1,2.1v20s-12,0-12,0l-.2-69.9c13.1.2,25.5-.7,38.1.3,12.6,1,21.3,11.5,20.9,23.6.5,11-6.1,19.2-17,22.2l20.9,24.5c-6.1.6-11.1.4-16.4.1l-20.7-23.4c-4.4-.3-8.7-.8-12.5.4ZM307.3,182.3h19.9c7.1.1,12-4.1,12.3-10.6.3-6.8-4.4-11.9-11.7-12l-20.3-.2c-.1-.3-.7-.5-1.4,0,1,8-1.4,16.1,1.2,22.8Z"/>
  <path class="uuid-278c085a-445f-4fbc-bc7e-a1d0cb73d09c" d="M219.6,202.9c-3.5,17.1-28.8,19.9-44.2,15s-13.6-7.7-15.9-15.5l11.1-5.8c5.1,13.2,29.3,14.6,35.3,4.2s-.5-9-4.5-11c-10.1-4.8-23.5-1.4-33.8-10.9s-5.4-8.5-5.2-13.8c.2-7.6,3.9-13.5,11-16.9,13.7-6.4,38.3-5.4,44.2,10.6-3.2,2.7-6.6,3.6-10.5,5.4-5.9-9-24.4-10.1-29.6-2.9s-1.7,7.6,2,9.7c9.6,5.4,23.3,1.8,34.3,10.7,5.9,4.8,7.5,13.1,5.9,21Z"/>
  <path class="uuid-c2e86e41-9350-4a41-bdaf-4fbf47be1300" d="M281.2,147.1c2.2,2.5-.2,10.5,2.1,10.1,0,.7,0,1.3,0,2h-38c-.8,0-1.1.7-1.1,1-.4,3.9-.7,11.3,0,16l37.6.2c.3,4.3.4,8.1,0,12.4l-37.5.3c-.7,5.5-.6,10.6-.1,16l37.2-.2c.9,0,1.6.4,1.9.9s0,.9,0,1.4c-2-.8-.6,8-1.2,10h-51.9s0-70.2,0-70.2l51,.2Z"/>
  <path class="uuid-c2e86e41-9350-4a41-bdaf-4fbf47be1300" d="M616.8,176.9c-16.5-.4-31.6.6-46.8-.9l23.4-22.1h46.9c0,12.9-10.3,23.3-23.6,22.9Z"/>
  <path class="uuid-c2e86e41-9350-4a41-bdaf-4fbf47be1300" d="M647.8,148l-47.1-.3,23.9-22.4h44.8c.4,12-8.9,22.8-21.6,22.7Z"/>
  <path class="uuid-c2e86e41-9350-4a41-bdaf-4fbf47be1300" d="M119.3,155.1l23.4,21.1-47.6.8c-11.9,0-21.4-8.6-22.9-19.8.9-1.8,2.7-2.1,5-2.1h42.2Z"/>
  <path class="uuid-c2e86e41-9350-4a41-bdaf-4fbf47be1300" d="M109,145.2c.1.4.4,1.1.2,1.4-.4.5-1.1.5-2,.5h-43.9c-.7,0-1.3.2-1.1.7-11.2-2.1-19.6-11.2-19.2-22.7h44.9c0,0,21.1,20.1,21.1,20.1Z"/>
  <path class="uuid-7672714b-e42a-474d-947c-0d2eda364405" d="M481,201.1h-41.9c0-.1-8,16.4-8,16.4-.7,1.4-3.9.8-6.2.3l31.2-69.7c.7-1.7,5.1-1,7-.5l31.7,70.4c-3,.1-4.5.2-6.7,0l-7.2-16.8ZM478.6,195.3l-18.8-42.3-18.4,42c12.6,1.1,24.5.8,37.2.3Z"/>
  <path class="uuid-7672714b-e42a-474d-947c-0d2eda364405" d="M548.4,181.1c1.2,0,.8,3.9.6,5h-40.7c0,.1-.4,31.1-.4,31.1,0,1.4-3.5.7-5.6.9v-71.2s47.9-.1,47.9-.1c.5,1.7.9,4.8-.3,5.8l-41.4.3-.4,27.6,40.2.6Z"/>
  <path class="uuid-7672714b-e42a-474d-947c-0d2eda364405" d="M366.1,191.2c0,13.9,10.6,23.2,24.2,22.6,11-.5,20.5-7.8,20.6-19.5l.3-42.2-25.9-.4c-1.4,0-1.5-3.5-.6-4.5h32c0,.1-.1,46.7-.1,46.7,0,15.4-12.6,25.2-27.4,25.4s-28.7-10.7-28.6-27.6c1.3-.7,3.1-.8,5.4-.5Z"/>
  <path class="uuid-05ea4474-e214-4a13-8c8c-6cbf998c8017" d="M357.7,56.6c-3.9-1.6-8.3,4.5-12.2,5.2-.9-4.3,2.5-9.1,1.2-13.2s-6.4-6-8.6-9.7l12.7-3.2c3.8-1,3.5-8.3,6.8-11.7,3,2.9,3.2,9.2,6.9,11.6s9.4,1.3,13.6,2.8c-2.7,3.3-7.3,6-9.6,10.2-1.6,3.8,1.9,9,1.2,12.8l-12-4.9Z"/>
  <path class="uuid-05ea4474-e214-4a13-8c8c-6cbf998c8017" d="M493.2,123.8c-16-3.7-4.8-9.1-24.1.7l1-13.2c.3-3.9-6.3-5.9-8.9-9.7l13.1-3.3c3.8-.9,3.7-8.2,6.8-11.3,2.9,3.2,3.3,8.9,6.7,11.3s8.8,1.1,13.1,2.8l-8.3,9.3c-2.8,3.2.7,8.4.7,13.3Z"/>
  <path class="uuid-05ea4474-e214-4a13-8c8c-6cbf998c8017" d="M234.2,119.4c-4.5-.6-8.6,3.8-12.7,5.4l1.1-13.6c-1.9-3.9-7-6.5-9.4-10,4.2-2.1,10-.2,13.4-2.9s4.2-9,7.1-12.2c2.1,3.7,3.2,8.4,6,11.6s9.3,1.5,13.7,3.2c-2.3,3.8-7.7,6-9.1,10.3s2.1,8.9,1.1,13.2c-3.4-.7-6.7-4.5-11.2-5.1Z"/>
  <path class="uuid-05ea4474-e214-4a13-8c8c-6cbf998c8017" d="M301.8,79.1c-17.9-5.8-4.7-8.1-24.6.2l2.1-13.2-10.3-9.6c4.5-2.1,9.7-.4,13.6-3,3.7-2.4,3.6-8.7,7.2-11.4,2.7,3.5,3.1,9.3,6.6,11.5s8.8.9,12.7,2.7c-2,3.9-7.6,5.8-8.8,10s1.9,8.7,1.4,12.8Z"/>
  <path class="uuid-05ea4474-e214-4a13-8c8c-6cbf998c8017" d="M425.4,74.3c-4.9-.3-9.1,4.4-13.1,5.7-.6-4.4,3-9.2,1.7-13.6s-6.1-6.2-8.9-9.8l13.2-3.3c3.5-.9,3.5-8,6.5-11.1,3.2,2.7,3,10.4,7,11.3l13.4,3c-2.5,3.7-7.6,5.4-9.3,9.4s1.8,8.9,1.1,13.2c-3.9,0-7-4.4-11.4-4.7Z"/>
  <path class="uuid-56aaa105-7621-4601-9b49-8d6fba68252b" d="M514.2,268.5c-3.5-3.9-13.2-16.9-15.6-18.8s-1-3.9-3.7-3.7l-.3,21c0,1.2-.5,1.2-.9,1.5-2.3,1.3-1.1-24.9-1-30l20.4,23.9.3-21.4c0-1.7.9-2.8,2.6-2.9-1.7,3.9,2.1,32.4-1.9,30.3Z"/>
  <path class="uuid-56aaa105-7621-4601-9b49-8d6fba68252b" d="M545.1,264.8c3.2-2.2,2.1-6.7,1.7-9.4-3.9-1.3-7.4,1.4-11.5-1.5,5.1-1.7,9.5-.6,14.6-.5,0,3.3.6,6.7,0,9.9-4.1,6.3-13.8,7.7-20.2,3.8s-8.7-12-5.8-19.7,6.4-8.1,10.1-8.7c5.8-.9,11.6,0,14.6,4.2-.2.7-1.6,1.4-2,1.1l-2.5-2.1c-2.4-2.1-7.9-1.5-11.3-.2-4.8,1.8-7.4,6.7-7.6,11.1s1.9,10.5,6.7,12.7,9.5,1.8,13.1-.7Z"/>
  <path class="uuid-56aaa105-7621-4601-9b49-8d6fba68252b" d="M425.9,257.7c1.1,4.1,4.1,6.9,6.7,8,8.8,3.7,14-3.7,16.1-1.3-4.6,5.6-13.7,6.3-19.4,2.3s-8.4-12.2-4.9-19.8,16.6-11.1,24.3-4.7c.8.7,0,2.1-.4,2-1.9-.3-10.3-6.6-17.5-1.4s-6.5,8.6-4.8,14.8Z"/>
  <path class="uuid-56aaa105-7621-4601-9b49-8d6fba68252b" d="M366.7,259c2.6,8.1,11.7,9.2,18.1,5.9s2.8-2.1,4.3-.6c-3.5,4.2-8.7,5-14,4.2s-9.2-3.8-10.9-9-1.4-10.5,1.8-14.9,7.3-6.6,13.3-6,9.4.7,9.3,6c-7-5.5-16.5-5.4-20.9,1.9s-2.1,8.8-.9,12.5Z"/>
  <path class="uuid-56aaa105-7621-4601-9b49-8d6fba68252b" d="M417.2,239c2,1.4-6.5,11.1-10.1,18.4s1.3,8.1-1.6,11.9c-2.6-3.8.3-8.3-1.4-11.8-3.1-6.5-14.1-19.7-9-18.5,7.5,6.3,8.3,18.6,13.6,10.5l6.3-9.7c.6-.9,1.8-1.2,2.3-.8Z"/>
  <path class="uuid-56aaa105-7621-4601-9b49-8d6fba68252b" d="M458.9,265.9c6.1,2,11.6-1.7,17,2-7,1.8-13,.3-19.6,1.1l-.2-29.8c5-4.5.7,22.2,2.8,26.7Z"/>
  <path class="uuid-56aaa105-7621-4601-9b49-8d6fba68252b" d="M483.8,240.2v26.9c0,1.1-.5,1.5-1.2,1.4s-.9-.3-.9-1.4l-.3-28.8c1.9.7,2.4,1.1,2.4,1.9Z"/>
  <path class="uuid-278c085a-445f-4fbc-bc7e-a1d0cb73d09c" d="M230.2,217.1h51.9c.6-2-.8-10.8,1.2-10v11c-.1,0-52,0-52,0-.9,0-1-.7-1-1Z"/>
  <path class="uuid-56aaa105-7621-4601-9b49-8d6fba68252b" d="M62.2,147.9c-.2-.5.4-.7,1.1-.7h43.9c.9,0,1.6,0,2-.5s0-1-.2-1.4c1.5-.1,2.7,2.6,2,2.8l-48.8-.2Z"/>
  <path class="uuid-278c085a-445f-4fbc-bc7e-a1d0cb73d09c" d="M119.3,155.1h-42.2c-2.3,0-4.1.3-5,2.1,0-.7-.2-1.8.3-3h45.7c.8.2,1.6.3,1.2.9Z"/>
  <path class="uuid-278c085a-445f-4fbc-bc7e-a1d0cb73d09c" d="M671.2,115.4l-46.8,1c-1.7,0-2.5,3.3-4.3,2.8,1.3-1.2,1.9-4.1,5.3-4l45.7.2Z"/>
  <path class="uuid-278c085a-445f-4fbc-bc7e-a1d0cb73d09c" d="M88.4,116.2c-15.8-.4-31.6.8-47.2-.7l45-.4c1.1,0,1.8.7,2.2,1.1Z"/>
  <path class="uuid-278c085a-445f-4fbc-bc7e-a1d0cb73d09c" d="M283.2,159.1c0,.3-.2,1-1.1,1h-38.1c0-.3.4-1,1.1-1h38Z"/>
  <path class="uuid-278c085a-445f-4fbc-bc7e-a1d0cb73d09c" d="M294.1,217.1h12s0-20.1,0-20.1c0-1.1.4-1.9,1-2.1v23.1s-11.1,0-11.1,0c-1.1,0-2-.2-2-1.1Z"/>
  <path class="uuid-278c085a-445f-4fbc-bc7e-a1d0cb73d09c" d="M283.2,157.1c-2.3.5.1-7.6-2.1-10.1.5,0,2-.2,2,1v9.1Z"/>
  <path class="uuid-278c085a-445f-4fbc-bc7e-a1d0cb73d09c" d="M307.3,182.3c-2.6-6.8-.2-14.8-1.2-22.8.7-.4,1.3-.3,1.4,0l-.2,22.8Z"/>
</svg>