<?xml version="1.0" encoding="UTF-8"?>
<svg id="uuid-81b7181d-ec10-4154-ac90-06c7bece2f25" data-name="Capa 1" xmlns="http://www.w3.org/2000/svg" viewBox="0 0 500 150">
  <defs>
    <style>
      .uuid-f8afb8f3-cda9-4576-8e00-4fbc246d6cb2 {
        fill: #0d0d0d;
      }

      .uuid-2a497c2b-4c1a-49eb-be6f-33c51a331e3a {
        fill: #040404;
      }
    </style>
  </defs>
  <path class="uuid-2a497c2b-4c1a-49eb-be6f-33c51a331e3a" d="M82,19.5c21.6,4.6,40,18.8,46,41,6.3,23.2-2.7,47.9-23.2,61.1-12.1-17.8-35.8-5.4-51.3,1.4-2.4,1.1-5,1-6.8-2l28-11.6c6.7-2.8,13.5-1.4,20.7-.2-10.1-14.5-40.6,5-52.8,9.8-11.4-7.7-18.8-20.2-21.3-33.9s-.6-2.2-1.4-2.6v-15c.4-.3,1.1-.8,1.3-1.8,3.9-22,20.4-39.4,42.1-44.8,1.3-.3,2.2-.5,2.6-1.4h16ZM76.7,41.5c-10.9-1.3-21.8,4.7-25.3,15.2s-.4,13.1,5.3,16.1c11.2,5.9,22.9-20.7,20-31.3ZM84.4,43.1c-.1-.2-1.1-.1-1.1.4-.1,8.3-4.6,14.2-6.6,22.6,4.9-4,10.2-18.1,7.7-23ZM64,94.1c.3.8-.5,2.5,0,3,.8.9,1.7-.2,1.8-.6,8.2-1.5,14.5-6.7,20.1-13.1s1.9-4.1,4.4-4.5c-3.2,6.5-6.4,12-2.7,17.9.6-7.6,5.1-12.2,12.2-11.6,1.4.1,3.2-.8,4.1-1.3,1.4-.9.7-3,.3-4.9-.7-3.5-.6-7.2-.6-10.5s2.6-1.3,1.8-2.5c-1.8-2.6-7.6-3.3-8.7-8.6s-2.9-9.7-8.2-12.4c-.2,5.9-2.6,10.2-4.9,15.5,3.9-1.9,7.6-4.1,11.5-.4-7.1,0-13,3.1-16.4,9.2l-8.6,15.3c-1.5,2.6-4,4.3-6,4.9-8.4,2.4-14.1-7.5-19.1-13.1,1.1,9.6,8.7,19.2,18.8,17.6ZM74.8,68.1c-4.6,4-6.9,8.7-12.2,10.1-4.8,1.2-7.8-2.1-12-5.5-.4,4.2,3.5,6.9,5.9,8,7.6,3.7,18.2-6.8,18.4-12.6ZM69.3,81.5c-3.3.8-6.1,2.5-9.6,3.1,3.2,2.3,7.7.4,9.6-3.1ZM85.4,99.8c-4.5-8.2-23.5-.1-27.1,6.8,11.6-3.8,10.9-10.1,27.1-6.8Z"/>
  <path class="uuid-f8afb8f3-cda9-4576-8e00-4fbc246d6cb2" d="M201,19.5c0,2.4,1.4,6.1-.6,8.7l-54.9,70.7,55.2.8c1.1,0,.9,4.7-.9,4.5h-59.3c-2.2-3.4-.4-6.9,1.7-9.7l54.4-69.5-53.2-.7c-.5-1.9-.4-3.4-.4-4.8h58Z"/>
  <path class="uuid-f8afb8f3-cda9-4576-8e00-4fbc246d6cb2" d="M435,19.5v28.8c9-.5,17.2-.9,25.7,0,6,.6,10.3,6.3,10.3,12.3v31.1c0,7.3-5.9,12.7-12.9,12.7h-27.6c0,0-.5-84.7-.5-84.7h5ZM466.7,90.8v-29.1c0-4.2-3.1-8.8-7.6-9-8-.4-15.6-.2-23.9,0l-.2,46.6c7.9.4,15.7.3,24.1.1s7.6-4.1,7.6-8.6Z"/>
  <path class="uuid-f8afb8f3-cda9-4576-8e00-4fbc246d6cb2" d="M327,19.5l-.5,68c0,5.7,4,11.7,9.6,11.7l34.7.3c.5,1.6.5,3,0,4.7h-32.9c-9,0-16.6-7.4-16.6-16.7l-.3-67.9h6Z"/>
  <path class="uuid-f8afb8f3-cda9-4576-8e00-4fbc246d6cb2" d="M345,130.5h-1.6l-.9-14.1c-.8-.3-5.1,19.4-7.7,12.1l-4.4-12.1c-1.2,5.5.5,9.9-1.1,14.1h-1.3c.7-4.5-2.7-18.3,2.5-17.5s3.5,10,6.1,12.8c2.7-4.3,2.8-12.5,5.9-12.8,1.1-.1,2.6,0,2.6,1.6v16Z"/>
  <path class="uuid-f8afb8f3-cda9-4576-8e00-4fbc246d6cb2" d="M225.1,130.5h-9.6c-.6-5.7-.4-11.4-.2-17.4,4.1-.2,7.5-.5,11.4.3.2,2.9-7.6,0-9,2.5s-.8,3.7.4,4.2c2.9,1.3,5.7-1,8.6,1.3-2.5,2.2-5,.5-7.9,1s-1.8,3.5-1.1,4.5c1.9,3.1,11.6-1.2,7.4,3.5Z"/>
  <path class="uuid-f8afb8f3-cda9-4576-8e00-4fbc246d6cb2" d="M172.9,130.5h-5.6c-5.1-1.9-3.1-17-2.5-17.4,3.2-2.1.4,8.6,2.2,13.4s7,2.5,8,0c2-4.8-1.4-9.4,1.9-14.3,1.9,5.7.8,11.1.4,16.2-2,.8-3.2,1.2-4.4,2.1Z"/>
  <path class="uuid-f8afb8f3-cda9-4576-8e00-4fbc246d6cb2" d="M385,130.5h-2c.4-5.4-.7-11.1.5-16.8.3-1.7,3.7-.4,4.4.9,2.2,4.4,4.2,8.3,6.8,12.3,2-5.6-1.1-9.9,1.5-15.2,1.8,5.9,1.3,11.1,1.1,17.2s-3.6.9-4.2-.2c-2.6-4.4-4.4-8.6-7.3-12.7-.8,5.5-.4,10-.6,14.5Z"/>
  <path class="uuid-f8afb8f3-cda9-4576-8e00-4fbc246d6cb2" d="M442.8,130.5h-6.5c-3.7-2.4-3.2-12.4-2-15.2s10-3.9,12-.4.8,9.2.5,13.2l-3.9,2.4ZM444.8,126.9c.4-4.2.6-7.4-.2-10.9-2.3-1.9-5.6-1.8-8.2-.3-1.1,4-1.1,7.7,0,11.6,2.6,1.6,5.8,1.7,8.3-.4Z"/>
  <path class="uuid-f8afb8f3-cda9-4576-8e00-4fbc246d6cb2" d="M251.3,130.5h-.7c-.7-2-1.1-4.2-2.5-6.3-1.9-.5-3.6-.4-5.6-.1l-1.1,6.4h-.8c-1.3-5.6-.7-11.4-.5-17.5,3.5.4,7.3-.9,10.1.6,3.7,2,1.8,6.9.9,10.1s1.6,5,.1,6.9ZM249.8,121.1c1.1-2.9.7-5-1.4-6.1-2.1-.3-4-.4-6.1,0-.6,2.2-.6,4.1-.2,6.6,2.5.8,5,.8,7.7-.4Z"/>
  <path class="uuid-f8afb8f3-cda9-4576-8e00-4fbc246d6cb2" d="M370,130.5h-11.4v-17.4c4.1.3,7.7-1.3,12.1,0-3,3.1-6.5.3-9.5,2.1s-1.1,4.8.4,5.1c2.9.7,5.4-1.1,8,1.1-2.6,2.2-5,.3-7.9,1.1s-1.6,4-.7,5c1.4,1.8,10.3-.8,8.9,2.9Z"/>
  <path class="uuid-f8afb8f3-cda9-4576-8e00-4fbc246d6cb2" d="M473,124.7v5.8h-10.7c-.7-1-2.5-.9-2.4-3.1,3.2.4,9.3,2.7,10.2-1.4s0-2.1-1.2-2.5l-6.6-2.4c-1.6-.6-2.6-2-2.6-3.3s.2-3.1,1.7-3.9c3.2-1.7,7.5-2.2,10.6.4-1.1,1.8-9.5-1.6-10.1,2.8s7.8,1.9,11.1,7.7Z"/>
  <path class="uuid-f8afb8f3-cda9-4576-8e00-4fbc246d6cb2" d="M192.4,130.5h-.8c-1.2-5.6-.6-11.4-.4-17.5,3.5.3,7-1,9.9.7s2.7,7.8,0,9.6-5.8-.4-7.4,1.5c-1.2,1.6-.4,4.3-1.2,5.7ZM200.8,120c1-2.7-.5-4.7-1.7-5s-3.3-.8-5,0-1.5,4.7-.4,6.1,6.3,1.2,7.2-1.2Z"/>
  <path class="uuid-f8afb8f3-cda9-4576-8e00-4fbc246d6cb2" d="M146.9,130.5h-5.6c-.7-1-2.4-.9-2.4-3.1,3.1.5,9.4,2.5,10.2-1.3s-10.1-2.9-10.4-8.3.3-3.1,1.8-4c3.2-1.7,7.4-2.2,10.5.4-1,1.7-9.4-1.5-10,2.6s6.9,2.6,9.7,6.1.9,3.6.2,4.8-2.8,1.7-4,2.7Z"/>
  <path class="uuid-f8afb8f3-cda9-4576-8e00-4fbc246d6cb2" d="M276.9,130.5h-1.2c-.6-1.8-.9-3.7-2-5.6-2.2-.6-4.1-.7-6.2,0-1,2-1.4,3.8-2.1,5.5h-1.4c-.5-1.9,4-17.2,5.6-17.5s2.4-.2,2.8.9l3.8,11.3c.7,2,.9,3.8.6,5.4ZM272.9,122.2c-.5-2.3-.8-4.3-2.2-6.5-1.3,1.9-1.9,3.9-2.2,6.5,1.5.4,2.7.4,4.4,0Z"/>
  <path class="uuid-f8afb8f3-cda9-4576-8e00-4fbc246d6cb2" d="M80.9,130.5h-14.6c-.7-1-2.2-.9-3.5-2.1,6.7-3.3,14.1-2.6,20.2.6-1.1,1-1.8,1-2.1,1.5Z"/>
  <path class="uuid-f8afb8f3-cda9-4576-8e00-4fbc246d6cb2" d="M417,130.5h-2c0-5,.2-10.1-.4-15.4-2.1-.8-4.5.8-6-1.8,5.2-1.3,9.4-.1,14.4-.6-1.1,2.2-3.2,2.2-5.8,2.2l-.2,15.6Z"/>
  <path class="uuid-f8afb8f3-cda9-4576-8e00-4fbc246d6cb2" d="M314.3,130.5h-1.8c-1.5-24.6,3.1-24.7,1.8,0Z"/>
  <polygon class="uuid-f8afb8f3-cda9-4576-8e00-4fbc246d6cb2" points="300 129.5 300 130.5 290 130.5 289.8 129.5 300 129.5"/>
  <path class="uuid-f8afb8f3-cda9-4576-8e00-4fbc246d6cb2" d="M223.7,99.1l28.3.5c1.5,0,1.6,4.3.5,4.4-8.8.6-18.4.2-27.5.3-7.3,0-12.8-5.5-12.8-12.7v-31c0-6.9,5-12.5,11.8-12.6h17c7.3-.1,12.6,5.3,12.7,12.6.1,5.9.4,11.5-.2,17.4l-36.2-.2c-.3,4-2.8,21.3,6.5,21.4ZM249.1,73.2c.5-7,1.5-20.5-7-20.6l-16.2-.2c-4.4,0-8.3,2.6-8.8,7.1s-.5,9,.1,13.7h31.9Z"/>
  <path class="uuid-f8afb8f3-cda9-4576-8e00-4fbc246d6cb2" d="M377.4,88c-.1-8.5,2.8-17.4,11.7-17.5l23.6-.4c1.3-5.3,1.1-17.2-6.5-17.4l-23-.4c-1.4,0-1.5-3.6-.5-4.3,7.2-.2,15.7-.4,23.4,0s11.7,6.9,11.7,13.6v42.5c-9.8,0-19.1.5-28.4,0-8.3-.5-11.8-8.2-11.9-16.1ZM413,99.3v-24.6c-8.1.4-15.9-.5-23.6.3-6.3.7-7.4,7.1-7.4,12.4s1.7,11.4,8,11.8,15.1.1,22.9,0Z"/>
  <path class="uuid-2a497c2b-4c1a-49eb-be6f-33c51a331e3a" d="M303.6,61.3c0-4.4-3.3-8.5-7.4-8.7-8.4-.3-16.3-.3-24.8,0v48.8c-.1,1.3-.5,2.2-1,2.5s-3.5.6-3.5-.6v-50.9c0-3,2.5-4.8,5.2-4.8l25,.3c6,0,11,6.4,11,12.5v43c.1,1.2-4.1,1.2-4.1-.1l-.3-42.1Z"/>
  <path class="uuid-2a497c2b-4c1a-49eb-be6f-33c51a331e3a" d="M87.6,128.8c-8.9-5.7-18.6-6.3-27.7-2.5s-3.3,1.1-5-.4c12.3-4.5,34.4-16.3,45.6-2.2-3.7,2.7-7.9,4-13,5.1Z"/>
  <path class="uuid-2a497c2b-4c1a-49eb-be6f-33c51a331e3a" d="M300,129.5h-10.2c-.8-5.3-1.2-11,.3-17.2,3.3,5.3,0,10.6,1.9,15.8,2.8.5,6.3-.6,8,1.4Z"/>
  <path class="uuid-f8afb8f3-cda9-4576-8e00-4fbc246d6cb2" d="M65.8,96.5c-.1.4-1,1.5-1.8.6s.3-2.3,0-3c10-4.9,12.8-20.7,21.5-26.1,3.9-2.4,8.6-3.9,12.9,0-5.6,2-9.1,5.9-12.8,10.2-13,15.4-18.6,15.2-20.5,17s.3.9.6,1.3Z"/>
  <circle class="uuid-2a497c2b-4c1a-49eb-be6f-33c51a331e3a" cx="95" cy="74" r=".6"/>
</svg>