<?xml version="1.0" encoding="UTF-8"?>
<svg id="Capa_1" data-name="Capa 1" xmlns="http://www.w3.org/2000/svg" viewBox="0 0 500 500">
  <path d="M65.82,154.54l156.39-.11c11.56,1.39,21.43,8,27.9,17.47,6.21-9.66,16.39-16.13,27.9-17.47h155.25c28.36,4.6,41.09,31.28,28.32,57.04-18.97,38.27-41.64,75.84-61.65,113.61-6.89,8.77-17.1,13.83-28.25,14.62l-243.53-.02c-11.91-.89-22.84-6.81-29.52-16.69-19.09-37.74-42.18-74.59-60.68-112.51-12.03-24.66.99-51.25,27.87-55.95ZM310.26,322.2c0-1.32-.85-2.58-1.45-3.76-23.05-45.59-49.43-89.6-72.58-135.16-3.21-6.25-9.04-10.53-16.08-11.39-51.53.44-103.23-.81-154.67.63-11.03,3.36-17.43,15.37-13.51,26.44,20.71,38.73,40.98,77.8,62.63,115.96,3.13,3.75,9.43,7.28,14.37,7.28h181.28ZM278.94,172.01c-8.17,1.47-12.75,6.56-16.35,13.62-.69,1.35-2.44,4.2-2.21,5.52l70.07,130.63,1.23.43c12.63-.74,26.22.91,38.73-.03,7.24-.54,13.85-4.08,17.35-10.54l59.4-110.45c6.1-12.6-1.82-27.3-15.56-29.3l-152.66.1Z"/>
</svg>