<?xml version="1.0" encoding="UTF-8"?>
<svg id="Capa_1" data-name="Capa 1" xmlns="http://www.w3.org/2000/svg" viewBox="0 0 500 500">
  <defs>
    <style>
      .cls-1 {
        fill: #f3f3f3;
      }
    </style>
  </defs>
  <path class="cls-1" d="M85.43,241.09c.22.15.96-1.1,1.14-1.33,2.55-3.11,6.19-4.93,10.21-5.26h56.48c10.15.68,16.43,11.45,11.85,20.58l-22.17,41.23c-2.25,4.14-6.41,6.9-11.12,7.4H39.16c-5.74-.72-8.94-3.88-11.64-8.66-7.74-13.73-14.85-27.88-22.25-41.79-2.98-8.96,3.3-18.16,12.69-18.75h56.1c4.53.24,9.09,2.62,11.36,6.59ZM108.14,297.11l-28.03-52.18c-1.56-2.51-3.73-3.67-6.68-3.85-18.69.12-37.4-.21-56.07.16-4.72.98-7.38,5.7-5.65,10.27,7.69,14.27,15.22,28.66,23.13,42.81.93,1.13,3.34,2.79,4.82,2.79h68.47ZM115.65,297.09h15.64c2.5-.32,4.6-1.75,5.81-3.95l22.25-41.4c1.92-4.54-.79-9.61-5.61-10.48-19.11-.26-38.32-.26-57.43,0-2.44.45-4.05,1.75-5.32,3.81-.23.38-1.65,2.99-1.61,3.16l26.27,48.87Z"/>
  <path class="cls-1" d="M320.22,280.25c-2.55,13.01-12.69,22.08-25.84,23.68-19.62,2.39-34.73-9.66-37.09-29.09-2.65-21.82,9.42-41.55,33.05-40.86,21.52.63,31.46,17.9,30.14,37.84-.04.56.16,1.29-.19,1.71h-50.64c-.13.09-.14.11-.14.26,0,.57.27,1.79.39,2.41,2.23,11.3,10.55,17.58,22.09,16.85,7.94-.5,13.37-5.65,16.12-12.8h12.12ZM307.91,263.02c-.81-5.63-3.03-11.44-7.83-14.81-6.1-4.28-15.58-4.02-21.71.07-4.97,3.32-7.7,8.96-8.67,14.73h38.2Z"/>
  <path class="cls-1" d="M413.89,255.54c-.05-3.4-1.47-6.28-4.2-8.29-6.24-4.58-23.43-4.69-27.76,2.55-3.33,5.57,1.34,9.11,6.22,10.59,13.08,3.97,39.02,1.8,40.21,21.06.88,14.23-9.14,20.46-21.92,22.1-12.38,1.6-31.27.08-37-13.08-.95-2.19-2.04-6.42-1.76-8.77.02-.18.02-.33.2-.44h11.68c.33.26.15.71.19,1.08.78,6.96,5.88,9.6,12.27,10.56,7.24,1.09,25.15.93,24.29-10.06-.34-4.38-4.54-6.44-8.25-7.6-12.76-3.98-38.21-2.18-39.22-20.66-.58-10.55,6.97-17.25,16.47-19.8,14.8-3.97,38.45-.64,40.51,18.03.09.82.3,2.02-.06,2.72h-11.87Z"/>
  <path class="cls-1" d="M443.84,234.5v39.23c.4,9.86,4.39,18.08,15.29,18.7,14.17.81,21.83-7.71,21.9-21.48v-36.44s12.24,0,12.24,0l.19.19v68.82l-.19.19h-12.25v-20.79c-.19-.03-.17.22-.22.35-3.53,10.4-8.94,18.41-20.68,20.16-18.97,2.82-28.44-12.32-28.73-29.32v-39.61h12.44Z"/>
  <polygon class="cls-1" points="204.85 234.5 226.24 295.72 247.88 234.5 260.83 234.5 235.89 303.71 216.08 303.58 191.53 234.5 204.85 234.5"/>
  <path class="cls-1" d="M336.6,234.5v21.55l1.84-5.45c3.34-8.01,9.36-13.55,17.98-15.38,3.33-.71,6.73-.78,10.13-.72v12.17c-9.4-.06-22.05.21-27.23,9.5-1.83,3.29-2.42,7-2.72,10.71v36.82h-12.82v-69.2h12.82Z"/>
</svg>