<?xml version="1.0" encoding="UTF-8"?>
<svg id="uuid-d4c630c4-f140-4bf1-b0b3-080aae211208" xmlns="http://www.w3.org/2000/svg" version="1.1" viewBox="0 0 899.54 1035.84">
  <!-- Generator: Adobe Illustrator 30.1.0, SVG Export Plug-In . SVG Version: 2.1.1 Build 136)  -->
  <defs>
    <style>
      .st0 {
        fill: #41b5e4;
      }

      .st1 {
        fill: #34baed;
      }

      .st2 {
        fill: #0032aa;
      }

      .st3 {
        fill: #033493;
      }

      .st4 {
        fill: #023194;
      }

      .st5 {
        fill: #073393;
      }

      .st6 {
        fill: #02338f;
      }

      .st7 {
        fill: #3bb9ec;
      }

      .st8 {
        fill: #05319a;
      }

      .st9 {
        fill: #08328e;
      }

      .st10 {
        fill: #0034ad;
      }

      .st11 {
        fill: #0034a6;
      }

      .st12 {
        fill: #0035a8;
      }

      .st13 {
        fill: #0030a8;
      }

      .st14 {
        fill: #0032a0;
      }

      .st15 {
        fill: #033298;
      }

      .st16 {
        fill: #0033a6;
      }

      .st17 {
        fill: #03a;
      }
    </style>
  </defs>
  <path class="st14" d="M136.15,27.53c2.71,1.24,5.48,1.3,8.31.18,131.16.25,262.19.4,393.07.46,1.88-.74,3.76-1.02,5.66-.83,74.63,4,158.95,30.1,214.59,82.45,46.45,43.7,71.1,104.16,71.12,167.67.01,27.17-2.58,52.72-10.02,78.73-17.91,62.6-58.68,109.17-115.33,142.72,43.24,17,84.53,40.08,116.79,73.48,30.69,31.78,50.74,71.13,58.03,114.92,6.21,37.32,5.05,75.03-3.54,111.92-18.94,81.33-76.08,139.82-151.02,173.06-37.93,16.82-77.87,27.36-118.55,32.39-15.25,1.48-30.7,2.98-46.33,4.51-5.78-.82-11.54-.55-17.29.81-3.63.34-7.12.17-10.47-.48-126.74-.89-259.17-.88-386,0-4.18.03-8.52-.56-13-1.79-24.63-6.97-50.8-31.53-50.84-59.21l.84-4c.4-86.72.69-172.86.86-258.4l1.16-.73c-.38-1.05.22-1.36,1.81-.92,31.48,11.75,99.17,19.69,130.37-2.53,4.96,38.7,2.11,72.74,2.31,110.04l.46,89.54c2.66.28,2.56,1.2.03,2,105.42.56,214.15.99,320.12.78.04,0-.03-.34-.12-.78l-.59-1.21c4.87.27,9.13-.25,12.78-1.57,46.73-2.63,97.56-14.09,135.99-43.09,44.15-33.33,59.94-84.78,51-138.36-7.8-46.73-40.59-77.17-82.48-95.32-40.5-17.55-95.6-25.45-139.7-25.5l-124.25-.14c-14.21-.02-32.56-11.18-32.57-26.8.72-24.31.7-49.64-.04-74,0-12.41,14.62-26.74,26.87-26.77l1,.77c4.67.98,9.5,1.14,14.5.49,26.01.37,52.26.5,78.24.47,6.58,0,13.41-.14,19.91-.47.04,0-.25-.22-.64-.5-.87-.32-.86-.69,0-1.12,22.48-.07,44.95-4.27,67.13-9.8,58.96-14.7,107.92-52.94,118.47-115.3,8.66-51.19-3.35-99.47-46.08-131.41-15-11.21-31.12-18.96-48.92-25.08-21.61-7.43-43.48-10.32-65.58-13.2-3.55-.65-7.18-.92-10.91-.82l-.12-1.27c.04-.73,1.08-.54,1.01-.54l-292.66.03-1.36.51c.45.42.16.8-.9,1.16l-.5,112.59-.4,86.65c-43.82-18.21-90.9-17.5-134.12-1.3l-1.03-.35c-.27-85.39-.63-170.64-1.06-255.75-.22-2.96-.5-5.96-.83-9,.04-29.02,28.5-54.75,54.8-59.97l.02-.02Z"/>
  <path class="st0" d="M171.25,653.6q-1.52-.89,0,0c-82.45,12.76-156.18-49.49-158.38-131.6s67.67-148.5,150.76-140.36c50.51,4.94,94.67,37.87,113.96,85.73,16.25,40.3,12.78,85.69-11.41,124.47-19.71,31.61-55.55,56.9-94.93,61.75h0Z"/>
  <path class="st8" d="M539.19,26.5c-6.08.6-12.16,1.07-18.25,1.13-121.86,1.19-243.82.76-365.68.11-6.07-.03-12.13-.42-18.2-.9,2.39.29,4.27-1.34,7.44-1.34l377.5.04c6.47,0,11.51,1.9,17.18.96h.01Z"/>
  <path class="st15" d="M551.38,880.72c1.89,3.96-12.51,0-12.19,2.78-.1.44-.21.78-.31.78-105.35.2-214.34-.22-319.69-.78l-.03-2h327.74c2.11-.01,3.16-.71,4.48-.78h0Z"/>
  <path class="st5" d="M605.27,1004.66c-7.46.92-15.01,2.3-23.18,2.98l-12.96,1.07c-4.2.35-8.54,1.63-12.89.75s-7.81,1-12.37,1l-401-.05c-4.11,0-7.66-1.85-10.68-2.7,4.34-1.02,8.72,1.79,13,1.79,126.93-.88,259-.88,386,0,3.96,0,8.61.57,12.83-.39,3.71-.84,6.42-2.69,10.47-.87,3.32,1.5,7.2-.8,10.62-.68,8.46.3,40.25-3.66,39.42-3.95.46.16.86.37.74,1.05h0Z"/>
  <path class="st16" d="M539.19,26.5c1.47-.02,2.82.46,4,.84-1.68-.86-2.05,1.1-2.77,1.6-3.15,2.18-6.54-.41-10.53-.41H144.76c-2.16,1.73-3.72,2.08-5.89,1.87-1.21-.12-2.23-1.39-2.71-2.86l.91-.69c133.43.87,268.3,1.55,402.13-.34h0Z"/>
  <path class="st3" d="M513.19,153.5c1.38,1.08,3.75,1.6,5.93.88,2.42-.8,3.87,1.05,5.09,1.21-6.43-.76-12.67,1.21-19.74-1.07l-285.18.15c-.1-.64.19-1.16.9-1.16,96.32-.9,196.76-.83,293,0h0Z"/>
  <path class="st4" d="M86.02,684.45c-.48.33-1.27.78-1.81.92l-1.32,1.07c0,85.99-.23,172.01-.7,258.07-.04,1.34.45,3.21-.84,4l-.36-257.76c0-2.74-1.02-5.02.3-7.39.75-1.34,3.53.65,4.72,1.1h.01Z"/>
  <path class="st4" d="M82.19,96.5c.44,85.24.79,170.49,1.06,255.75l1.03.35c-1.06.4-1.72,1.61-3.14.5-1.18-.92-.18-1.16-.18-2.97l.4-262.64c1.58,2.5.81,6,.83,9h0Z"/>
  <path class="st9" d="M499.19,450.38v1.12c-5.56.89-12.73.93-18.98.96-20.23.09-40.59.1-60.88.1-10.67,0-21.77-.07-32.15-1.06-.36-.22-.68-.5-1-.77l113-.34h.01Z"/>
  <path class="st6" d="M359.36,551.5l-.04-74c.36-.09.86.4.86,1.12v71.75c0,.73-.44,1.23-.83,1.13h.01Z"/>
  <path class="st10" d="M531.19,1009.5H145.19c-.1-.54.21-.73,1.3-1h383.4c1.09.27,1.4.46,1.3,1h0Z"/>
  <path class="st11" d="M539.19,883.5c3.63,0,13.46-.71,15.67,1.74.32.36-.18,1.11-.5,1.29,8.13-4.62-317.25.04-335.17-3.03h320Z"/>
  <path class="st12" d="M513.19,153.5H220.19c-.11-.36.24-1.01,1.28-1.01l300.88.06c-3.26,2.21-6.33.37-9.16.96h0Z"/>
  <path class="st13" d="M83.25,352.25c-2.47-84.87-.35-170.43-1.06-255.75.41-.12.95.33.95,1.12l.23,78.77v128.02s.07,6.15.07,6.15c.15,12.23-.47,24.18.09,36.43.1,2.12,2.38,4.19-.28,5.25h0Z"/>
  <path class="st17" d="M84.21,685.37c-1.19,1.44-.77,2.84-.81,5.32-1.17,84.95,1.26,169.62-1.22,253.81v-257.81c0-1.55,1.5-1.2,2.02-1.33h.01Z"/>
  <path class="st2" d="M499.19,451.5c4.68,0,9.41-.44,14.09.52l-22.82.81c-5.95.21-11.93,1.13-17.86.23-3.95-.6-8.08-1.18-11.97-.11-7.26,2-17.2-1.94-32.86.08-16.31,2.11-23.48-2.35-33.72.33-2.31.6-5.23-.85-6.86-1.86h112,0Z"/>
  <path class="st7" d="M171.25,653.6l-40.11-.56,34.86-.84c2.26-.05,4.78-1.51,5.25,1.4Z"/>
  <path class="st1" d="M285.7,529.53c-.87-7.16-.81-14.33-.04-22.09.91,7.11.85,14.22.04,22.09Z"/>
</svg>