<?xml version="1.0" encoding="UTF-8"?>
<svg id="uuid-15ab8e80-ac96-4daa-a81a-4cb5776a1610" xmlns="http://www.w3.org/2000/svg" version="1.1" viewBox="0 0 489 488">
  <!-- Generator: Adobe Illustrator 30.1.0, SVG Export Plug-In . SVG Version: 2.1.1 Build 136)  -->
  <defs>
    <style>
      .st0 {
        fill: #6cc300;
      }

      .st1 {
        fill: #91ce00;
      }

      .st2 {
        fill: #98d200;
      }

      .st3 {
        fill: #a2d900;
      }

      .st4 {
        fill: #85c800;
      }

      .st5 {
        fill: #97d100;
      }

      .st6 {
        fill: #7bc600;
      }

      .st7 {
        fill: #b5e500;
      }

      .st8 {
        fill: #6fc300;
      }

      .st9 {
        fill: #8ccb00;
      }

      .st10 {
        fill: #61c000;
      }

      .st11 {
        fill: #86c900;
      }

      .st12 {
        fill: #88c900;
      }

      .st13 {
        fill: #79c500;
      }

      .st14 {
        fill: #9cd400;
      }

      .st15 {
        fill: #4fbc00;
      }

      .st16 {
        fill: #77c500;
      }

      .st17 {
        fill: #74c400;
      }

      .st18 {
        fill: #4cbc02;
      }

      .st19 {
        fill: #45bb10;
      }

      .st20 {
        fill: #65c100;
      }

      .st21 {
        fill: #9fd700;
      }

      .st22 {
        fill: #b2e300;
      }

      .st23 {
        fill: #7ec600;
      }

      .st24 {
        fill: #76c500;
      }

      .st25 {
        fill: #69c200;
      }

      .st26 {
        fill: #7cc600;
      }

      .st27 {
        fill: #a0d800;
      }

      .st28 {
        fill: #4abc08;
      }

      .st29 {
        fill: #79c600;
      }

      .st30 {
        fill: #81c700;
      }

      .st31 {
        fill: #90cd00;
      }

      .st32 {
        fill: #6cc200;
      }

      .st33 {
        fill: #7dc600;
      }

      .st34 {
        fill: #97d200;
      }

      .st35 {
        fill: #80c700;
      }

      .st36 {
        fill: #8dcb00;
      }

      .st37 {
        fill: #a3da01;
      }

      .st38 {
        fill: #48bb0c;
      }

      .st39 {
        fill: #7fc700;
      }

      .st40 {
        fill: #67c100;
      }

      .st41 {
        fill: #8dcb01;
      }

      .st42 {
        fill: #9ed600;
      }

      .st43 {
        fill: #89c900;
      }

      .st44 {
        fill: #84c800;
      }

      .st45 {
        fill: #a8dc00;
      }

      .st46 {
        fill: #8fcc00;
      }

      .st47 {
        fill: #9cd500;
      }

      .st48 {
        fill: #55bd00;
      }

      .st49 {
        fill: #75c400;
      }

      .st50 {
        fill: #95d000;
      }

      .st51 {
        fill: #fefefe;
      }

      .st52 {
        fill: #96d100;
      }

      .st53 {
        fill: #a4da00;
      }

      .st54 {
        fill: #8fcc01;
      }

      .st55 {
        fill: #b7e800;
      }

      .st56 {
        fill: #72c400;
      }

      .st57 {
        fill: #94cf01;
      }

      .st58 {
        fill: #82c800;
      }

      .st59 {
        fill: #58be00;
      }

      .st60 {
        fill: #87c900;
      }

      .st61 {
        fill: #71c400;
      }

      .st62 {
        fill: #ad0;
      }

      .st63 {
        fill: #9bd400;
      }

      .st64 {
        fill: #9dd600;
      }

      .st65 {
        fill: #83c800;
      }

      .st66 {
        fill: #73c400;
      }

      .st67 {
        fill: #9ad300;
      }

      .st68 {
        fill: #aee100;
      }

      .st69 {
        fill: #5bbf00;
      }

      .st70 {
        fill: #66c100;
      }

      .st71 {
        fill: #9dd500;
      }

      .st72 {
        fill: #a1d800;
      }
    </style>
  </defs>
  <path class="st1" d="M203.59,194.01l1.16,1.45-25.58,51.18-2.49,3.07-.86,2.51c-17.1,11.34-22.68,32.63-16.62,51.76l-1.07,2.43c.12,1.7-.73,3.49-2.56,5.39l-82.05,162.71c-.63,1.09-1.8,1.84-3.52,2.23-9.69-1.83-18.13-6.49-26.29-11.81l-1.25-1.27c21.62-43.21,43.53-86.5,65.73-129.86l3.09-1.79,1.04-2.15c24.42-6.44,36.04-33.86,28.05-57.05l.8-2.71.07-2.53c13.79-28.38,28.2-56.46,43.24-84.24,6.34.88,13.7,5.23,18.75,9.22.3.24.36.8.34,1.45h.02Z"/>
  <path class="st9" d="M166.37,320c1.95-1.2,2.97.64,2.32,2.52l1.15,1.47-77.62,153.16,1.63.15,76.32-150.89c.67-1.59,1.6-1.87,2.93-.68l2.61-.6c6.1,2.98,12.44,5.64,19.23,6.46l1.91,1.86,1.26,1.27-31.88,64.53-2.53,2.84v2.07c-5.18,3.78-8.56,9.8-6.96,16.27l-1.27,1.7-1.89,1.44-25.57,51.21c-.18,2.28-1.12,3.5-2.81,3.67-2.21.47-4.81.84-7.8,1.1l-30.4-.03c-3.52-.73-3.21-1.88-2.31-4.88l77.37-153.85c1.2-2.37,2.45-2.99,4.3-.78h0Z"/>
  <path class="st62" d="M295.6,8.33c10.86-.7,23.5-.77,34.62,0l1.55.41,147.85,126.25.62,1.76c.2,10.33.35,20.63,0,30.95-.93,1.54-1.98,1.31-3.2.16l-52.05-44.08-.15,22.44-1.72,3.13,1.65,3.32.2,18.96-1.65,1.21c2.71,1.31,1.6,4.47-1.05,2.69l-1.69-.58-.14-80.25c-4.08.77-8.03,2.17-11.84,4.19-6.93-4.06-14.18-6.9-21.76-8.52l-1.7-1.86-3.69-2.16L292.75,10.27l.31-1.96c.25-.73,1.95-.61,2.53,0v.02Z"/>
  <path class="st52" d="M333.62,137.53l2.07,2.23c3.36,21.73,21.16,35.53,42.79,35.73l2.47,1.73,2.75.8c32.02,27.11,63.74,54.34,95.16,81.7l.57,2.07c-.31,3,.08,7.14.07,10.16-3.75,5.11-9.4,8.31-15.71,8.9l-2.05.43c-46.64-40.72-93.69-81.37-141.16-121.95l-.48-1.54c-.6-10.95-.72-23.7.22-34.82.48-1.37.86-1.44,1.96-1.14,2.09.57,10.31,7.74,10.79,10.19l.56,5.5h-.01Z"/>
  <path class="st50" d="M82.9,329.23l1.56-1.24c8.14,2.38,16.96,4.15,25.41,2.7l1.42,1.34c-1.51,2.44-3.03,4.8-4.53,7.78l-46.6,92.5-16.44,32.63c-9.69-6.31-17.45-14.63-23.15-24.48,18.93-37.04,37.71-74.22,56.32-111.53,1.41-1.31,3.41-1.21,6,.3h0Z"/>
  <path class="st68" d="M363.15,8.33l4.13,1.31c37.46,31.93,74.76,63.82,111.91,95.69l1.03,2.42c-.15,9.65-.18,19.35,0,29-2.82-.52-4.36-2.72-6.88-4.87L332.17,11.66c-1.37-1.16-1.92-2.08-1.97-3.32,10.25-.75,22.42-.81,32.93,0h.02Z"/>
  <path class="st31" d="M130.93,159.49c.34,1.63.93,13.58.38,14.03s-1.17.8-1.85,1c-2.02.61-13.64.71-16.66.59l-3.09-1.38-1.92-.6c-32.22-30.87-64.66-61.44-97.34-91.7l-1.18-2.86c.52-9.01,4.18-17.27,7.83-25.34l1.85-.59c37.18,34.65,74.17,69.46,110.97,104.43l1.01,2.41h0Z"/>
  <path class="st52" d="M130.93,137.53c-1.64,1.51-3.48,1.12-5.53-1.16-31.35-30.03-62.91-59.93-94.69-89.7-2.85-1.78-4.61-3.9-5.26-6.36,4.85-6.53,10.13-13.42,17.57-17.38.8-.59,1.6-1.08,2.64-.87l84.83,79.71c1.21,11.98,1.36,23.9.45,35.76h0Z"/>
  <path class="st21" d="M70.88,183.2l1.51.14c3.58-.91,5.08.09,4.52,2.99l-10.67,21.81-.32,2.93-.36,2.42c-6.19,5.04-8.87,12.6-9.06,20.41l-1.72,1.73c-13.57,29.39-28.76,58.45-43.9,87.18-1.18,2.18-3.33,3.73-3.3.52l-.03-65.92c9.43-16.78,18.41-33.89,26.94-51.32-.99-.75-1.2-1.45-.65-2.74-.92-2.25,1.94-5.19,4.18-4.12l.8-2.16,10.3-6.26,2.27.65c.43-3.18,7.38-6.13,10.27-5.15-.61-1.51.55-2.02,3.47-1.51.09-.76.38-.85.86-.25-.99-2.34,3.77-3.58,4.88-1.37v.02Z"/>
  <path class="st67" d="M51.47,17.57l1.66.44c23.38,24.48,47.06,48.57,71.03,72.28,3.05,2.78,5.04,5.81,5.99,9.08.51-.99,1.05-.66,1.62,1.01l1.69.59c-.04,32.82-.02,65.6.07,98.33-.62,1.94-1.76,3.94-3.42,6.02l-19.22,39.16-1.96.16-2.13,1.31c-8.66-1.36-17.38,1.06-24.91,5.32l-2.42-.53c-.5.26-.93.44-1.12.29-.83-.62-.08-18.38.21-20.59,8.31-18.1,17.06-36.01,26.26-53.76l-.92-2.11c0-3.22,4.16-3.25,5.8-.82,6.86-.83,13.71-.8,21.13-.89l.09-13.36c-.59-.47-1.42-1.41-1.6-2.09-.48-1.8-.39-16.44-.09-18.65l1.69-1.22v-29.52c0-4.23-1.99-5.47-4.71-8.02l-15.61-14.61-12.68-11.86-12.66-11.83-12.66-11.83-12.64-11.82c-1.5-1.4-14.87-13.89-14.91-13.99-.38-1.02-1.28-1.39-2.04-1.13,2.22-2.48,5.33-4.23,8.45-5.37h.01Z"/>
  <path class="st36" d="M109.71,173.73c-1.96.24-4.11-.29-5.8.82l-2.62,2.01c-6.54,1.08-13.01,2.5-19.42,4.25l-3.19-.97-1.92-.62c-22.29-21.68-44.86-42.9-67.69-63.68l-.56-1.66c-.27-9.84-.41-19.71-.03-29.56l.63-4.22c.16-.37.13-1.1.16-1.53,2.34,1.35,4.26,3.29,6.45,5.34l12.18,11.39,12.67,11.81,12.67,11.81,12.18,11.4c6.11,5.72,20.79,20.78,24.97,24.05s7.04,6.93,10.83,10.38c3.11,2.83,7.42,5.02,8.48,8.96v.02Z"/>
  <path class="st63" d="M402.77,330.91c6.02.47,12.08.61,18.17.41l.88-1.09c19.09,16.9,37.92,34.15,56.48,51.77l1.09,2.17c0,11.6,1.62,23.76-3.03,34.69.24.65-.21,1.25-.92,1.69-.41.26-6.2-4.7-7.11-5.49-28.44-26.86-57.03-53.52-85.8-79.99l.04-1.82c1.75-1.85,4.33-3.06,7.72-3.65l9.2-4.8c3.56-.54,5.68,3.66,3.27,6.11h0Z"/>
  <path class="st21" d="M432.46,292.92l46.22,42.87.72,1.94v46.45c-.45,1.77-11.5-9.47-14.08-11.88l-12.65-11.82-12.66-11.81-11.34-10.67-6.66-5.96c-2.83-1.21-18.46.95-19.22-1.12l.74-1.69,16.07-.03.19-32.78,1.69-.99c1.83-2.75,8.27-4.53,10.99-2.5h0Z"/>
  <path class="st46" d="M166.37,320c-1.31-.6-2.12.2-2.81,1.58l-25.71,51.12-51.69,102.79c-.87,1.73-.08,3.25.85,4.02-5.91,0-11.35-1.69-17.01-2.75-1.21-1.27,1.18-1.35,1.76-2.49l54.83-108.82,27.49-54.43c1.01-2,2.57-3.63,4.05-4.6l1.88.29c2.08,4.08,4.51,7.96,7.3,11.63l-.95,1.66h0Z"/>
  <path class="st2" d="M82.9,329.23c-1.02-.38-3.78-.37-4.66.69l-54.04,107.72c-.84,1.68-2.32,2.85-3.62,2.82-4.75-8.21-10.33-16.58-11.07-26.55,13.51-27.2,27.41-55.08,41.7-83.65.98-1.87,2.08-2.94,3.62-.98.76-.01.76.24.1.72,6.44.68,12.98.77,19.61.26-.29-.12-.15-.75.43-1.89-2.32.7-2.16-3.13-.95-4.05,2.55-1.92,9.21,1.71,8.88,4.89v.02Z"/>
  <path class="st47" d="M54.87,286.1l-1.75,7.2-40.07,79.36c-1.31,2.27-3.52,4.72-5.49,2.13l.02-51.46c-.41,3.59,6.04-8.81,5.91-8.54l23.55-46.48,14.77-29.17c.79-1.57,1.55-2.93,2.98-3.51l1.69.78c.02,16.22.05,32.44.07,48.67l-1.69,1.02h0Z"/>
  <path class="st57" d="M130.93,137.53v21.96c-1.01.64-10.78-9.26-13.52-11.83l-12.66-11.89-24.48-23.47-12.68-11.89-12.66-11.83-12.66-11.83-12.66-11.83-12.5-11.67c2.24-4.96,5.23-8.72,8.35-12.92,5.48,3.55,9.73,8.57,14.64,13.15l13.15,12.26,11.82,11.01,12.65,11.83,12.68,11.89,24.47,23.48,11.68,11.19c1.32,1.27,2.88,2.16,4.39,2.4h0Z"/>
  <path class="st22" d="M480.53,88.56l-.3,19.19c-2.37-.82-3.77-2.65-6.02-4.57L363.15,8.33c19.54-.03,29.31-.05,29.31-.05l1.53,1.81,85.11,72.31c.72,1.98,1.2,4.04,1.44,6.16h-.01Z"/>
  <path class="st69" d="M403.85,433.74c-.43.87-1.38,1.5-1.95.94-1.47-1.44-1.21-12.59.94-14.25l-1.69-.98-.15-13.06-36.07,72.47-1.62,1.28c-7.46-.1-14.89.25-22.35-.06-2.41-.38-2.85-.88-1.93-3.25,7.05-13.55,14.12-27.21,21.2-40.98l2.09-1.96.92-1.72,13.74-.61c.26-15.56.1-31.07-.48-46.54,7.35-8.53,24.28-6.03,27.98,5.39.88,14.05,1.23,28.16,1.04,42.31l-1.68,1.02h0Z"/>
  <path class="st67" d="M54.83,329.28c-1.57.2-1.98,1.49-2.79,3.1l-40.42,80.94c-.39.78-.91,1.22-1.4,1.04-.22-.08-.46-.29-.71-.46-.15-2.09-1.24-4.68-1.6-7.18-1.58-10.89-.35-21.49-.35-31.94,1.59-.17,3.06-1.06,4.01-2.94l43.3-85.76,1.69.78c-.01,13.8-.02,27.6-.04,41.41l-1.69,1h0Z"/>
  <path class="st67" d="M403.98,174.94c21.71,17.61,42.64,35.77,62.79,54.48l11.55,9.57.98,2.42c-.12,6.77.83,13.58.12,20.39-3.32-1.08-5.53-4.26-8.36-6.63l-15.7-13.15-12.73-11.64-55.61-47.41c-2.34-2-4.7-3.34-6.08-5.74l1.44-1.75c6.4-1.17,12.47-3.51,18.22-7.05,3.4-.32,5.7,3.97,3.38,6.51h0Z"/>
  <path class="st7" d="M419.15,11.02l4.63,2.84c16.62,13.83,32.9,27.83,48.82,41.99,4.54,10.34,8.21,21.12,7.94,32.71-.89-1-.6-2.29-1.32-3.85L396.32,14.08c-2.2-1.87-4.35-2.85-5.73-5.72l-27.44-.02h-67.56c-.74-.24-.73-.52,0-.84l94.48-.16c10.81-.02,19.54,1.46,29.07,3.69h.01Z"/>
  <path class="st65" d="M221.36,384.94c-5.38,10.44-10.65,21.07-15.83,31.89l-1.93.14c-1.22,1.4-1.8,3.28-1.75,5.65l-2.68,9.28-1.79.77.1,1.71-21.84,42.43c3.12-.22,4.83.7,5.11,2.74h-32.09c-.74-.24-.73-.52,0-.84,1.19-1.72,3.5-2.28,6.92-1.69,7.59-14.07,14.93-28.4,22-42.99l2.18-2.47-.03-2.07c5.69-4.52,7.95-12.32,4.42-18.87l.8-1.95c-1.69-3.7,2.3-12.2,6.48-12.17-2.23-2.04.44-5.92,1.99-8.14,4.9-7.02,12.01-9.51,20.38-8.04,2.73.48,7.88,1.47,7.56,4.63h0Z"/>
  <path class="st2" d="M382.57,333.26c1.57.18,8.89,7.6,11.84,10.35l12.65,11.8,12.67,11.82,12.67,11.82,12.67,11.82,12.66,11.82,11.7,11.09c-1.3-1.23,8.8,7.7,6.94,5.09-.61,5.69-3.3,10.99-5.95,15.99-16.33-15.27-32.67-30.58-49.03-45.94l-2.01-1.28c-3.27-13.24-15.4-22.35-29.06-21.4l-1.82-1.52c-1.7-1.85-.49-2.74,3.64-2.68-8.95-8.8-18.11-17.43-27.48-25.87-1.48-1.52-2.73-2.82-.6-4.24,2.43-1.11,5.37-1.19,8.82-.25l7.71.03,1.99,1.56h-.01Z"/>
  <path class="st20" d="M360.68,405.95l-1.68,7.12c-11.1,22.16-22.18,44.29-33.25,66.37l-2.22.66c-2.64-.39-5.78.28-8.52.28-5.56-.21-11.12-.58-16.67-1.1l-.15-1.18,21.6-42.46,2.65-1.83.9-1.71,11.55-.28.33-12.75,1.71-1.16c5.08-11.12,10.57-22.06,16.47-32.81l2.06-.29c4.93-2.34,7.11,7.08,7.06,11.11.23,2.76.71,9.08-1.85,10.02h.01Z"/>
  <path class="st53" d="M480.23,167.7c-.34,9.8,1.08,19.75,0,29.56-1.06,1.57-2.21,1.17-3.5-.05l-52.44-44.64-1.18-3.22c.18-9.41-.49-18.85.44-29.05l51.46,43.78c2.05,1.29,3.2,3.07,5.22,3.61h0Z"/>
  <path class="st36" d="M84.48,7.28c9.16-.44,18.86-.57,27.87.21l2.86,1.1,44.87,38.45c2.95,2.02,3.67,3.76,2.15,5.22-.79,1.72-2.45,2.78-4.99,3.19l-7.8,4.43c-2.27,2.47-4.54,3.58-6.82,3.35l-2.65-1.4L80.72,11.32c-1.5-.78-2.5-1.84-2.99-3.17,2.23-.25,4.37-.88,6.76-.86h0Z"/>
  <path class="st42" d="M479.39,219.51c.54,7.33.04,14.59-.08,21.9-1.42.36-17.77-14.32-18.35-14.96-4.28-4.69-15.58-13.59-22.38-20.02-9.75-9.21-20.04-17.37-30.24-26.1-2.02-1.72-3.67-2.92-4.35-5.37,5.25-2.03,13.23-1.9,18.28.59,1.11-.02,1.08-1.93,1.05-2.69.78-2.32,2.31-1.32,3.85.04,17.28,14.67,34.41,29.47,51.4,44.38l.84,2.25-.02-.02Z"/>
  <path class="st15" d="M439.86,423.75l.43,1.64-25.32,51.31-2.83,1.94c-6.04,1.42-12.27,2.23-18.52,1.59-4.06-.11-5.76-1.09-5.12-2.95l21.11-42.44,1.64-.96.86-1.73,7.68-.37.08-25.2,1.69-1.24c7.56,2.96,15.33,10.85,18.31,18.4h0Z"/>
  <path class="st11" d="M77.73,8.14c1.83-.11,3.05,1,4.65,2.37l58.66,50.01c1.12.96,2.22,1.35,1.58,2.71l.3,2.06-5.68,8.64-2.14.15-2.2.37c-3.45-2.98-7-5.69-10.66-8.13-6.62-6.24-13.39-12.3-20.3-18.19-2.05-.82-3.15-1.83-4.34-3.64-8.43-6.71-16.62-13.72-24.58-21.04-2.92-2.07-6.37-4.8-9.17-7.33-1-.9-1.9-2.2-2.29-3.47,5.06-2.44,10.55-3.88,16.16-4.5h0Z"/>
  <path class="st27" d="M480.23,197.26c-.08.68-.83,22.35-.84,22.25-4.61-1.74-7.44-6.09-11.44-9.5l-40.46-34.55c-1.45-1.24-2.47-2.57-4.18-2.61-.23-5.81-.33-17.11-.2-23.49l52.03,44.17c1.82,1.55,3.08,3.14,5.09,3.73Z"/>
  <path class="st53" d="M479.38,306.19v31.53c-1.48-.27-2.78-1.3-4.07-2.52l-9.13-8.6-12.66-11.79-12.65-11.82c-1.44-1.35-11.77-9.65-8.41-10.08,2.35-3.07,8.21-5,11.86-3.67.32-2.06,2.37-3.42,6.15-4.09,2.69-1.64,4.76-1.81,6.2-.5.59-.34,1.09-.18,1.67.02,1.25.44,18.11,16.11,19.5,17.82l1.54,3.7h0Z"/>
  <path class="st12" d="M78.68,179.85c.06,2.85-5.83,4.46-7.8,3.35l-4.88,1.37-.78.09c-18.31-17.81-37.01-35.23-56.11-52.25l-.65-1.67c-.72-5.59.19-11.27.03-16.86,1.71-1.02,11.68,9.4,15.19,12.68l12.66,11.81,12.17,11.4c4.31,4.03,8.21,8.14,12.32,12.08l12.14,11.63c2.17,2.08,5.29,3.43,5.69,6.36h.02Z"/>
  <path class="st23" d="M197.38,432.66c1.81-.99,3.98-.91,6.54.21,0,0,3.04.21,9.11.62,2.66-.77,4.79-.53,6.39.72l.41,3.01-21.11,41.14-4.45,1.01c-4.46-.03-9.05.62-13.51.17-1.85-.19-4.05-1.89-7.29-.56.12-3.32,2.13-5.41,3.56-8.27l17.78-35.36c.68-1.36,1.28-2.46,2.57-2.69h0Z"/>
  <path class="st6" d="M239.29,399.31c.8.23.79.51,0,.84l.58,5.07,1.89.63c.39,4.05,1.41,7.81,3.07,11.29l-.73,1.77.16,1.79-18.11,36c-4.54,6.26-8.32,13.04-11.36,20.33,2.53-.49,4.14.07,4.81,1.67.74.24.73.52,0,.84l-25.33-.17c.34-.7,2.21-.5,2.73-1.34l16.54-32.38c2.06-4.03,4.1-7.67,5.88-11.44,1.78-2.25,4.48-3.94,8.1-5.07l5.73-3.9-5.5-8.06,1.01-1.89-.82-2.09c.08-.9,7.67-15.43,8.35-16.03,2.48-2.18,3.05-.49,3,2.13h0Z"/>
  <path class="st10" d="M362.32,433.88c-5.92,13.77-13.24,26.97-20.01,40.77-.94,1.91-3.1,3.58-1.34,5.42-5.78-.24-11.63.88-17.43.03l37.14-74.15,1.69.75-.05,27.18h0Z"/>
  <path class="st66" d="M255.27,430.6l1.16,1.45-22.69,45.14c8.01-14.41,15.67-29.31,22.98-44.71l1.96-.14,1.52-1.44c4.02,1.38,8.11,2.39,12.25,3.04l1.18,1.65c1.77,1.02,1.75,2.21.88,3.86l-19.23,37.64c3.44.86,7.1,1.39,10.99,1.57l1.46,1.73c-6.75-.12-13.55.31-20.64-.44-9.32-.99-18.46-.35-27.5-.41v-.84l.93-1.69,6.79-.02c8.16-15.8,16.39-31.59,24.69-47.38l2.07.18c1.22-1.14,1.8-.75,1.19.82h.01Z"/>
  <path class="st21" d="M240.71,7.49c.58.09.91.21.84.84,2.15.82,4.05,2.25,5.7,4.3l54.48,46.23-.32,1.94c2.56,2.12-1.83,6.6-4.14,7.62l-2.14,1.17C248.94,30.24,225.84,10.57,225.84,10.57l-.72-1.36-15.02.34c-1.1-.13-1.86-.78-2.29-1.79l-3.01,1.5-17.49.2-2.95-1.68-.58,1.68-33.91-.26c-1.37-.13-2.34-.7-2.88-1.71l-.57,1.69h-31.18l-2.88-1.69-27.87-.21c-.15-.44.28-.64,1.06-.64l150.83.07c1.97,0,3.14.68,4.33.78h0Z"/>
  <path class="st39" d="M132.54,82.75c2.55.08,1.68,4.9-.76,4.96-.19,3.79-.4,7.58-.65,11.36l-.97.3c-3.02-1.93-4.49-5.18-7.21-7.91l-55.51-55.83c-5.94-5.98-11.56-11.44-15.97-18.06.31-.11.69-.55.93-.79l2.6-.8c25.89,21.55,51.64,43.18,77.25,64.9l.29,1.87Z"/>
  <path class="st52" d="M470.41,434.85c-2.15,4.05-3.96,8.62-7.52,11.61-.51.41-1.27.97-1.7.71-1.83-1.13-7.32-6.1-6.13-8.2-2.56.91-5.91-2.39-4.88-5.03-2.5,1-6.71-3.48-6.02-5.96-2.01,1.86-5.62-1.89-4.3-4.24-5.68-6.48-11.79-12.74-18.31-18.4l-1.67-1.63.06-13.05,1.43-1.76c-.1-.93.83-.58,1.18-.41s1.05.23,1.45.61l11.76,11.05,12.66,11.81,12.65,11.79c1.56,1.45,11.72,9.79,9.32,11.09h.02Z"/>
  <path class="st58" d="M61.57,12.64c2.01-.56,2.61,1.65,4.02,2.78,2.27,1.82,4.9,2.81,6.14,5.8,2.93.22,3.83,2.96,5.74,4.29.88.61,11.27,8.87,11.15,10.07,2.91.34,3.89,2.77,5.74,4.35,2.17,1.84,4.87,2.81,6.09,5.76,2.84.43,3.92,2.72,5.73,4.39s4.33,2.23,5.26,4.91c2.87.36,3.86,2.79,5.72,4.35,2.18,1.83,4.83,2.86,6.12,5.73,2.59.71,4.19,2.42,5.52,4.55,2.46,1.33,4.45,2.87,6.31,4.46,1.62,1.83-.09,8.19-2.57,8.67-3.14-.83-5.13-3.41-7.87-5.75L56.89,19.19c-1.58-1.35-2.68-2.54-4.5-2.42,2.44-2.48,6.26-2.73,9.17-4.14h.01Z"/>
  <path class="st25" d="M322.45,433.82c-2.13,5.11-4.92,9.95-7.59,15.2l-15.41,30.36,14.7.22c.57,0,.97.41.87.79h-16.04c-5.11-.33-10.18-.61-15.2-.84l-1.25-1.27,32.24-64.57c.88-1.97,1.88-3.01,3.75-1.55l1.7.95.18,18.44c1.1.5,1.79,1.26,2.06,2.29v-.02Z"/>
  <path class="st48" d="M402.84,420.43l-.02,12.76c0,.84.57.65,1.03.55,0-2.96,6.99-2.38,7.4.15.31,1.65-.64,2.96-1.47,4.63l-20.12,40.21c1.35,1.36,3.1.29,3.95,1.5-3.86-.4-8.07.92-11.88.16-3.69-.23-7.26-.59-10.73-1.08l-.11-1.26,28.75-57.52c1.35-1.73,2.4-2.59,3.2-.1h0Z"/>
  <path class="st35" d="M51.41,191.47c-4.53,2.43-8.54,5.95-13.37,7.77l-2.33-.29c-8.2-8.83-16.89-17.1-26.05-24.82l-1.12-2.66c.03-7.04-.5-14.08-.06-21.13l1.69-.75c14.25,12.98,28.22,26.26,41.9,39.85l-.66,2.02h0Z"/>
  <path class="st44" d="M61.68,186.33c-3.17,2.18-6.91,3.35-10.27,5.15-2.97-4.8-9.77-8.21-12.58-12.42-1.92-2.88-4.37-4.55-6.81-6.85l-11.71-11.02-11.82-10.84c.3-4.78-.82-9.71.03-14.5l.31-1.1c18.26,15.87,36.34,33.21,53.79,50.11.43.42-.11,1.1-.94,1.47Z"/>
  <path class="st59" d="M402.84,420.43c-.15.06-.48.07-1.23-.05l-29.55,59.13c4.14-.44,6.93.33,9.68.88l-18.42-.25c-.41-2.46.88-3.96,2.04-6.27l34.6-69.14c.82-1.64.47-3.32,2.94-3.65l-.05,19.36h-.01Z"/>
  <path class="st4" d="M179.76,431.55c.24,1.27-.26,2.43-.97,3.85l-21.67,43.2c-3.27.27-5.84.03-8.46.1q-.73-1.19,0,0v.84h-31.24c-.08-.6.79-.83,1.64-.86l6.16-.24,2.02-1.74,13.24.19,21.66-43.3c.31-1.28,1.45-1.51,3.42-.68.74-1.28,2.18-1.59,4.32-.91l8.28-1.43,1.61,1v-.02Z"/>
  <path class="st3" d="M33.85,203.36c.92.61,1.81,1.19,2.47,2.72l-18.93,37.43c-1.84,3.64-3.82,6.87-5.53,10.53-.89,1.89-2.53,3.25-4.3,3.38,0-10.34.03-20.79,0-31.13,2.37-4.39,5.54-8.41,9.51-12.06h2.41c-.36-3.34,6.34-8.04,9.53-7.79-1.27-2.62,2.67-4.57,4.83-3.07h0Z"/>
  <path class="st55" d="M472.59,55.85c-.43.62-1.42.51-2.24-.19l-42.85-36.46c-3.17-2.7-6.35-4.89-8.36-8.18,23.38,5.46,43.77,22.78,53.45,44.83Z"/>
  <path class="st33" d="M38.04,199.24c-1.26,1.4-2.67,3-4.18,4.12s-3.47,1.63-4.83,3.07l-2.02-.38c-5.95-5.51-11.85-11.15-17.69-16.92l-.83-2.47.06-15.18c5.58,2.98,13.75,11.47,18.66,16.64,3.68,3.88,7.94,6.98,10.84,11.13h-.01Z"/>
  <path class="st45" d="M479.38,306.19l-8.99-8.24-11.31-10.57c-1.03-.97-2.38-1.4-2.4-2.73-1.38-2.32,5.11-5.48,7.1-3.79,5.3-2.83,10.54-5.78,15.71-8.9l-.11,34.24h0Z"/>
  <path class="st28" d="M450.18,433.95l.92,1.9c-6.15,12.62-12.75,24.93-19.79,36.93-3.55,1.76-7.3,2.87-11.03,4.1-2.24-.23-2.29-1.41-1.29-3.2l23.21-45.57,1.96-.13c2.16,1.62,4.19,4.07,6.02,5.96h0Z"/>
  <path class="st18" d="M444.16,427.99l-23.65,46.43c-.51,1-.8,1.81-.23,2.46-2.72.89-5.43,1.12-8.14,1.76l26.08-53.18c.47-.95,1-1.5,1.64-1.71,1.02,1.17,3.07,3.32,4.3,4.24h0Z"/>
  <path class="st13" d="M29.02,206.42c-2.81,2.97-6.59,5.02-9.53,7.78-2.27.38-6.29-3.31-8.13-5.14-1.76-1.31-2.72-2.88-2.89-4.72-.8-5.86-.03-11.85,0-17.7,5.38,3.4,9.5,8.07,13.73,13.17,2.1,2.53,5.88,3.47,6.81,6.6h.01Z"/>
  <path class="st19" d="M455.06,438.98l7.83,7.48c-4.94,9-13.67,15.37-22.09,21.21-1.52-.49-1.89-1.86-1.13-4.09,3.87-8.95,8.34-17.52,13.41-25.73l1.98,1.12h0Z"/>
  <path class="st38" d="M455.06,438.98c-1.24-.19-1.86,1.04-2.47,2.25l-10.8,21.35c-.85,1.69-.57,3.59-.99,5.09-2.95,2.05-6.3,3.52-9.49,5.1-.43-.43-.57-1.19-.14-2.03l19.01-36.8,4.88,5.03h0Z"/>
  <path class="st44" d="M66.01,184.57c-.28.08-.59.14-.86.25.48.85-1.92.57-2.77.07l-47.25-45.09c-2.5-2-4.71-4.11-6.65-6.33-.02-.88.11-1.84,0-2.71,4.06,1.45,13.07,11.34,16.77,14.53,4.57,3.95,8.72,7.95,13.08,12.29,3.05,3.04,7.1,5.24,9.41,9.06,1.16,1.92,16.4,15.04,18.28,17.94h-.01Z"/>
  <path class="st49" d="M19.5,214.21c-4.09,3.85-7.3,8.84-11.92,12.07l-.03-16.93c0-1.77,1.14-3.54.94-5,1.78.31,2.55,2.2,4.01,3.45,2.54,2.19,5.33,3.81,7,6.4h0Z"/>
  <path class="st12" d="M65.14,184.82c-.67,1.31-2.49.84-3.47,1.51.01-2.2-2.33-2.9-3.89-4.39l-11.26-10.74c-4.46-4.26-8.6-8.67-13.2-12.98l-12.17-11.4c-2.45-2.29-11.94-11.81-12.66-10.98.13-.74-.02-1.63-.04-2.39,2.31.43,9.98,8.37,13.53,11.7l12.66,11.88,23.51,22.8c-1.3-1.27,8.84,7.83,6.97,4.97l.02.02Z"/>
  <path class="st68" d="M295.6,7.49v.84h-2.53l-.57,1.69c-10.35.04-20.7.01-31.06-.08-1.06-.21-1.78-.74-2.15-1.61-.18.65-.44,1.63-.95,1.69-2.17.25-11.73.38-13.75,0-1.3-.24-2.14-.65-3.04-1.69-.15-.34-.66-.51-.84-.84h54.89Z"/>
  <path class="st8" d="M283.77,479.54l13.56-.02c.87,0,1.71.2,1.64.86h-31.24c-4.87,0-10.07-1.48-15.49-.99,3.33-6.74,5.93-11.67,8.9-17.46l11.43-22.31c.73-1.43,1.17-2.72,1.07-4.03l1.43-1.82,8.1-1.12c3.09-1.36,5.79-1.7,8.12-1.02l1.18,1.44-21.8,44.53,11.95.26,1.18,1.69h-.03Z"/>
  <path class="st31" d="M8.48,84.33c.06-1.45-.34-2.99.63-4.22.13,1.38.88,3.46-.63,4.22Z"/>
  <path class="st51" d="M75.19,208.49c1.2-.6,2.16-.62,2.86-.07l.1,40.99c.03,2.12.47,2.56,1.33,1.31,8.59-5.28,19.26-8.4,29.45-6.09l2.46-1.13c8.98,2.45,17.53,7.06,23.83,14.02,2.86,3.16,7.63,8.51,5.97,12.6,7.25,18.26,2.72,39.25-11.6,52.51-5.46,5.06-11.89,7.17-18.29,9.4s-21.63-.29-28.39-2.8l-7.26-4.53c-1.08,1.79-.72,2.72-.67,3.68.09,1.76-.59,2.16-2.32,2.14-5.98.22-11.89.05-17.72-.51.05-.23-.1-.49-.1-.72l.04-43.19-.08-50.47c-.02-9.94,2.9-18.56,11.14-24.56-.69-3.21,7.36-4.75,9.26-2.58h-.01Z"/>
  <path class="st51" d="M202.7,243.91c.6-.74,1.32-1.39,2.27-1.6,5.77-1.29,27.21,8.31,29.62,13.49.41.88.55,1.78.35,2.74,2.54-.08,4.43,1.78,5.69,5.56,2.32,4.08,3.42,8.33,3.31,12.77,2.02-.3,2.19.89.4,1.85l1.97,1.65c-.62,4.44-1.08,8.9-1.38,13.39,2.08.87,2.06,1.85-.16,2.53l-.43,1.81c-11.81.39-23.69.49-35.65.3l-1.74,1.38-24.55.05c1.61,7.62,10.72,11.66,18.29,11.62l1.15,1.76c1.76-1.52,4.19-2.31,7.31-2.38l8.19-3.84c3.33-3.57,8.75-5.96,10.68-.66l2.38-.32,9.15,4.9.89,2.29c1.62,3.51-3.4,8.32-6.08,10.86-1.78,1.69-6.04,5.34-8.18,5.91l-2.35-.73c-3.07,4.79-12.09,5.54-17.7,5.85-3.94.85-7.02.29-9.27-1.66-8.46-.46-16.3-4.02-23.75-7.71-2.01,1.85-4.22-1.01-4.41-3.21-.92-.07-1.87-1.78-2.32-2.52-2.08-3.39-7.02-9.39-8.24-13.58-2.22-7.64-3.72-15.15-2.66-23.85,1.64-13.45,9.41-26.01,21.21-32.86,2.81-5.2,12.31-6.53,18.02-7.09,3.54-.97,6.21-.54,7.99,1.28v.02Z"/>
  <path class="st50" d="M216.15,200.95c-.44.51-.99,1.04-1.65,1.02-.71-.03-12.15-5.79-10.92-7.96-5.9-3.26-11.39-7.09-18.53-9.38-1.91,4.28-4.16,7.85-6.22,11.94l-35.8,71.24c-.59,1.18-.91,2-1.85,2.31-5.41-13.64-18.37-22.34-32.26-25.49l19.43-39.59c.98-1.99,2.87-5.52,5.17-5.75l1.34-1.88c9.66-1.54,16.55-9.29,17.85-18.86l1.85-1.33c.12-9.05.52-18.06,1.2-27.02,1.24-1.83,3.36-1.19,6.35,1.92,13.1,12.71,26.7,25.01,40.82,36.91l9.02,5.31c3.87,2.06,5.27,4.26,4.19,6.61h0Z"/>
  <path class="st31" d="M216.15,200.95c2.16-1.74,5.72,2.71,5.15,4.96.57.36,1.36,1.01,1.17,1.44-4.34,10-10.39,22.82-15.77,32.2-.72,2.61-2.06,4.06-4.01,4.36-8.32-.1-18.71,1.56-26.02,5.8-.15-1.23.08-2.5.99-3.86l25.91-51.85,12.56,6.94h.02Z"/>
  <path class="st12" d="M223.82,329.24l1.59,1.6c-4.81,10.45-9.87,20.8-15.18,31.03,3.07-.1,4.22.85,3.45,2.83l-2.02,1.54c-14.62-.94-29.56,6.96-34.64,21.15,3.34.92,12.16,3.98,13.95,6.6.5.73.53,1.63.46,2.49-3.04,3.42-5,7.86-6.48,12.17h-2.08c-4.28-5.11-11.31-6.09-17.6-5.16l-1.57-1.43c-1.87-1.04.41-2.36,1.07-3.68l32.08-64.96c9,.49,18.7-.41,26.97-4.19h0Z"/>
  <path class="st12" d="M155.48,422.12l1.93.37c1.51,3.61,4.25,6.68,7.76,8.41l.38,2c-1.21-.07-1.66.94-2.28,2.17l-21.85,43.7c-6.05-.16-11.1-.53-16.21-.33l1.24-4.3,25.8-51.58c.37-.74,1.4-1.01,1.9-1.09.42-.07.89.28,1.32.65h0Z"/>
  <path class="st46" d="M173.1,325.72c-1.02.29-1.33,1.27-1.9,2.4l-24.94,49.39-28.15,55.42-23.05,45.4c-.56,1.11-4.25.6-5.13-.45l25.66-50.83,26.18-51.54,26.92-53c2.08.17,2.86,2.44,4.41,3.21h0Z"/>
  <path class="st51" d="M184.96,408.66c5.18,7.92,2.13,17.9-5.19,22.89-3.62,2.47-10.77,2.66-14.21,1.35-4.9-1.87-8.64-6.43-10.07-10.78-2.73-8.32,1.67-15.67,8.23-20.05,7.76-1.59,16.92-.04,21.26,6.59h-.02Z"/>
  <path class="st51" d="M385.14,88.52c8.32.51,16.16,4.64,23.55,8.83,4.35-2.32,8.43-4.73,13.55-4.3l.03,82.48c-6.12.1-12.21.08-18.28-.59-.43-1.56-1.01-3.71-2.18-5.32-6.31,3.33-13.52,7.59-20.86,7.6-25.57.04-43.75-13.95-47.33-39.69-2.54-9.64-1.38-19.3,3.55-28.21l2.43-.69-.35-2.41c2.01-4.58,11.17-10.7,15.55-13.39l2.32.72c.32-.95.68-2.01,1.52-2.52,4.08-2.52,21.3-5.75,25.37-3.67.46.23.81.67,1.14,1.16h0Z"/>
  <path class="st53" d="M293.06,8.33l89.46,76.73c1.42,1.22,2.77,1.72,2.62,3.46-9.34-.57-19.5.97-28.02,5.03l-2.17-.25-33-28.09-.16,25.49-1.7,1.23c.78.17,1.45.74,1.7,1.5.42,1.25.53,24.36.19,26.31.18,1.6.12,2.74-1.67,3.24l-.22,34.82c2.56,1,2.02,16.13,1.27,17.28-.37.57-1.43.19-2.11-.39l-1.69-.59.16-118.64c-1.58-.75-3.45-.69-5.61.2l-1.85-1.11c-.67-.41-1.46-.83-2.36-1.25l-48.47-41.16c-1.61-1.38-2.38-2.7-.14-3.79h33.78v-.02Z"/>
  <path class="st1" d="M463.78,280.86l-7.1,3.79-12.35,4.6c-1.09-.23-2.02-.92-2.79-2.07l-19.23-16.36-.74-1.59-1.7-1.24c.25-5.75.43-11.45.55-17.12-3.71-.04-7.56,1.19-11.53,3.69-1.25.1-11.27-4.78-10.09-7.15-26.35-23.07-53-45.93-79.97-68.56-2.61-1.65-5.7-2.2-9.27-1.65l-2.97-1.68c.01,2.73-9.63,1.92-10.76,1.03-.54-.43,0-1.45.74-1.98.08-.66.3-1.65.76-1.69,5.69-.42,15.01-.37,20.71.1l1.21,1.69c.26,0,.87-.1.87-.84l-.03-16.05c1.34-.07,2.02.81,3.31,1.91l106.62,91.47,33.75,29.67v.03Z"/>
  <path class="st63" d="M339.59,108.63c-5.63,8.3-6.17,19.34-5.97,28.9-.85-.96-.36-3.96-1.13-5.11-.33-.49-11.57-10.47-12.18-9.44l-.22-31.05c.19-.76.67-1.58,1.37-1.54,2.92.21,15.92,12.84,18.88,15.82l-.74,2.42h-.01Z"/>
  <path class="st71" d="M103.9,174.55c.63.11,1.47-.04,2.08.19.56.21.86,1.62.42,2.49l-24.98,50.06c-.76,1.53-1.57,2.63-2.86,3.13-.37-7.35-.65-14.8-.82-22.36l-2.56.43c-2.29.75-7.08.99-9.26,2.58-1.43-.68-1.95-2.11-1.14-3.78,3.78-7.89,8.02-15.2,11.18-22.97-1.89-.23-2.61.56-3.72.49-.67-.04-1.62-.53-1.36-1.61,2.6-.73,5.12-2.72,7.8-3.35,8.38-1.98,16.65-4.44,25.22-5.3h0Z"/>
  <path class="st51" d="M189.95,74.16l-3.03,1.5-20.38-.04c-2.31,1.11-4.55,1.68-6.71,1.72l.14,2.02c-3.98,5.34-5.13,12.01-3.43,20.03l23.37.32c2.51,1.24,3.78,5.67.8,6.74,2.34,3.82,2.26,10.51,0,14.36,2.06,1.82,1.28,3.09-1.21,3.78-1.02.5-15.95.88-16.56-1.46-.62,2.56-5.89,1.48-8.07.8,1.4,2.33,2.98,6.49.48,8.03-.04,15.12-.3,30.21-.78,45.27-1,11.63-9.04,20.86-21.04,22.07-.31.06-1.76.02-1.76-1.04v-97.87l-.46-.25c-.03-4.09.12-8.23.47-12.42l.76-4.96c.4-2.62,1.27-6.19,2.57-8.67,2.49-3.47,4.29-7.97,7.52-10.85,5.41-4.83,12.2-9.75,19.61-10.96l1.94-1.96c9.08-.26,18.13-.09,27.14.5l1.04,2.07c.37.99.64,20.51-.26,21.06-.67.4-1.4.42-2.14.22h-.02Z"/>
  <path class="st21" d="M78.57,230.42l-.02,18.63c0,.92.27,1.65.93,1.66-.5.37-.53,1.67-1.74,1.58l-.03-43.6c-.94-.51-1.92-.22-2.52-.22.77-.25,2.47-1.78,3.21-.64l.17,22.57v.02Z"/>
  <path class="st52" d="M131.77,100.38c-.89.3-1.11-.69-1.62-1.01,1.11-1.3.57-4.87,1.62-11.66v12.67Z"/>
  <path class="st51" d="M384.36,243.9c2.26-3.21,11.97-.22,14.18,2.46.21.25.25.63.24,1.06l9.96,5.62c3.88-2.25,7.79-4.59,13.18-4.27.12,2.59.87,5.88.17,8.63-1.09,4.29-.52,7.99-.54,11.83,1.07.01,1.46.85,1.68,1.79.33,1.4.58,22.23-.08,23.18-.43.61-.94,1.05-1.69,1.21l-.13,35.46-18.57.04c-.53-1.44-.72-3.22-1.92-5.05-5.48,3.5-11.68,6.85-18.27,7.39-5.9.49-12.76.31-18.52-1.33l-2.43,1c-19.47-6.76-31.67-27.37-29.94-47.64l1.9-1.8c-2.52-.71-1.61-6.55.92-6.8-1.51-1.74.42-9.98,3.34-8.91-.49-.43-1.2-1.12-1-1.53.64-1.35,6.47-9.83,7.4-10.16l2.03.49c-1.23-2.47,4.43-5.65,6.67-6.91,2.4-2.14,4.64-2.66,6.72-1.57l1.77-2.34c3.75-1.49,19-4.9,21.73-2.99.45.31.83.72,1.2,1.15h0Z"/>
  <path class="st36" d="M444.32,289.25c-3.89,1.45-7.78,2.8-11.86,3.67-3.66.78-7.25,2.03-10.99,2.5l.09-26.19c1.68-.43,2.58.85,3.88,1.97l15.87,13.61c1.57,1.35,3.31,2.36,3.02,4.44h-.01Z"/>
  <path class="st53" d="M458.31,325.88c-2.59-.77-3.99-2.97-5.72-5.15,2.79.56,4.24,2.62,5.72,5.15Z"/>
  <path class="st53" d="M445.65,314.06c-2.59-.77-3.99-2.97-5.72-5.15,2.79.56,4.24,2.62,5.72,5.15Z"/>
  <path class="st67" d="M54.93,330.01l16.96.14c1.59.01,2.68-.59,3.08-1.77.03.7.47,1.39.1,2.55h-19.33c-.65,0-.9-.56-.82-.92h.01Z"/>
  <path class="st51" d="M357.82,365.31c.4-.62.91-1.11,1.62-1.33,1.12-.35,9.47,5.08,10.67,6.44l4.27-2.63c2.92-2.2,5.37-2.66,7.36-1.35.36-2.79,5.19-4.15,6.76-1.72,15.75-1.94,29.86,8.51,32.9,24.2.98,5.06.17,11.24.17,16.44v28.04l-10.31.49c-2.42.12-4.96-.69-7.4-.15l-.38-38.64c-.06-5.75-2.86-10.36-8.65-12.32-5.11-1.72-11.41-1.33-16.21,1.68-1.19.75.08,3.52.08,4.71l-.02,44.25-16.36.46c-.98-.17-1.6-1.07-1.6-2.41l-.04-25.52c-.01-7.68,1.77-17.6-5.21-21.14l-1.59.96c-3.64-3.88-10.99-2.76-15.49-.78l.21,28.78c-.2,1.66-.76,3.04-1.66,4.14l-.31,15.56-14.19.34c-1.08.03-2.09-.18-3.73-.51l-.2-21.16c-.44-.68-.84-1.36-1.14-2.1-1.35-3.34-.76-20.06-.46-25.1.09-1.52.79-2.92,1.51-4.24-2.35-.45-1.9-4.26-1.28-6.16,1.15-3.52,4.58-7.07,7.87-4.52l1.22-2.02c1.67-.8,13.02-4.75,13.89-4.63s1.49.72,2.03,1.33c1.4-2.04,3.88-2.72,7.45-2.05,3.93-.43,6.66.46,8.21,2.64v.02Z"/>
  <path class="st51" d="M213.68,364.72c3.41-2.6,12.5.11,14.26,3.94,2.34-2.29,7.61,2.27,7.72,4.88.1,2.36-8.58,15.82-12.26,14.74-.7-.21-.74-1.34-.48-2.18-1.68,1.42-2.03.95-1.55-1.16-4.45-2.71-10.3-4.04-15.81-2.97-7.58,1.46-12.03,7.74-14.11,14.52-4.82-3.86-10.19-6.7-16.72-7.83,5.59-17.25,22.2-25.58,38.97-23.94h-.02Z"/>
  <path class="st51" d="M228.75,415.29c1.45,3.7,4.42,6.3,6.64,10.24-4.47,4.15-10.17,7.14-15.98,8.68-6.72,1.78-15.43,1.25-22.03-1.55.43-5.48,4.29-10.14,2.87-16.37,1.53.25,2.5.14,3.35.67,1.57-1.65,2.78-1.45,3.32.84,1.82-1.37,4.34-2.04,7.56-2.02,2.6-1.39,4.91-1.85,6.94-1.38,2.32-4.82,8-4.82,7.35.88h-.02Z"/>
  <path class="st35" d="M221.36,384.94c.55.34,1.13.65,1.55,1.16l-1.05,5.21c-4.24,8.29-8.53,16.51-12.89,24.67l-2.07,1.84c-1.21-.17-2.24-.16-3.32-.84l15.45-30.93c.53-1.06,1.55-1.26,2.32-1.1h.01Z"/>
  <path class="st52" d="M333.58,283.49c-2.81,20.72,10.12,42.61,30.48,48.44-.75,1.7,8.46,9.18,10.22,10.65,3.88,3.25,6.75,7.3,10.82,10.3,2.07,1.53,9.87,8.5,9.57,10.66-.13.91-6.57-.55-6.18,1.18-2.35.29-4.5,1.07-6.76,1.72l-1.79-.17c-4.37-5.33-9.18-10.25-14.45-14.77l.28-2.07c-4.57-.79-9.76-5.71-10.38-10.29-1.26.66-1.94.75-2.03.28-.61-.06-8.26-8.07-6.43-9.59-2.59.37-4.82-2.18-4.84-4.77-2.45.71-3.04.08-1.76-1.88l-3.57-1.33-14.88-15.11-.06,20.7-1.73,3.48c-.25.45-.54.44-.84,0l-1.69-.78v-49.72l1.69-1.01c.02-1.46.57-1.54.96-.04l1.65-.78c3.68,2.6,7.59,4.23,11.73,4.9h0Z"/>
  <path class="st40" d="M355.47,384.82l-10.74,20.53c-.74,1.41-7.69,15.69-7.78,12.57l-.25-33.9c4.44-2.7,9.82-2.81,14.77-1.88,2.05.38,2.8,2.07,4.01,2.68h-.01Z"/>
  <path class="st1" d="M146.97,7.49l1.42.47c30.27,25.6,60.37,51.54,90.3,77.81l-1.3,1.66-2.11,1.84c-7.14.69-14.06,2.82-20.53,5.88l-2.75-.52-2.22.1c-6.53-5.86-13.2-11.49-20.01-16.88-1.76-1.52-2.24-2.99.18-3.68.22-.34.81-.92.81-1.64l-.09-20.61c-9.61,1.07-19.29-1.14-28.43.35.47-1.35-8.36-8.21-10.35-9.93l-5.47-4.7-6.37-5.44c-4.18-3.57-6.38-5.38-10.51-8.9l-6.38-5.45c-3.49-2.98-9.37-7.55-10.81-10.36h34.62,0Z"/>
  <path class="st51" d="M286.19,365.62c.77-1.61,2.15-1.72,4.13-.35l8.17,5.03.24,1.9c1.77-.59,3.26.3,4.49,2.69,2.5,3.12,3.95,6.45,4.36,9.97,2.59.56,4.17,6.38,2.25,8.45,3.69,3.36,1.92,11.9.63,16.62s-3.39,9.04-6.31,12.86-8.2,9.91-12.88,8.81c-5.14,2.79-11.93,3.47-17.64,3.97-4.99.43-10.12-2.51-14.95-3.25-1.82,1.82-3.18.39-3.41-1.74-.26-.31-.92-.52-1.19-.82l-1.88.45-8.55-9.31.45-2.01c-3.11-3.39-3.04-9.3-4.23-13.69l-.58-5.07c0-.19.12-.67,0-.84l-1.56-2.11c.76-8.97,4.53-17.56,10.9-23.96,3.14-3.15,9.01-8.54,13.3-6.9,3.68-4.9,17.44-4.27,22.9-2.62l1.38,1.9-.02.02Z"/>
  <path class="st33" d="M278.71,331.76l1.27,1.25c-4.97,10.24-9.94,20.47-14.91,30.71l-3.15,2.62c-13.77,5.71-22.12,18.45-22.63,32.97-.24-.36-.3-.99-.29-1.32.02-.75-1.03-.48-1.37.17l-8.88,17.13-3.47-3.62c-.73,2.25-2.85,1.99-3.88,2.74l-1.2-1.98,3.48-8.39,35.28-68.59c.13-2.23,1.08-3.43,2.86-3.61,5.07-.9,11.62-.72,16.89-.08h0Z"/>
  <path class="st16" d="M254.07,429.78c-1.45,1.52-2.44,3.43-3.53,5.58l-15.55,30.9c-2.11,4.19-4.73,7.83-6.02,12.41l-9.39.02c-2.38,0-4.67.11-7.58-.11l9.56-19.02,2.81-3.14,17.7-35.45c.54-1.08,1.11-1.8,2-2.06l9.98,10.87h.02Z"/>
  <path class="st33" d="M239.86,405.23c-.41-1.51-1.57-3.29-.58-5.07,1.16,1.35.39,3.39.58,5.07Z"/>
  <path class="st16" d="M258.68,432.34l-19.64,39.42-3.75,6.56c-.58,1.01-3.46.45-3.99-.16,1.36-3.43,3.1-5.71,4.55-8.63l19.41-38.93c1.38-.36,2.37,1.58,3.41,1.74h.01Z"/>
  <path class="st52" d="M184.35,7.77l2.14.88c29.66,26.02,59.72,51.81,90.17,77.38,3.01,2.09,3.92,4.08,2.72,5.98l-1.31,1.93c-3.67,1.04-7.23,2.45-10.68,4.23-6.56-3.84-13.49-6.63-20.81-8.36-3.72.03-6.79-.76-9.19-2.38-.04-1.77-1.66-2.34-3.07-3.56l-54.38-46.76-30.43-26.22c-1.25-1.08-2.81-1.68-2.53-3.4l37.38.28h-.01Z"/>
  <path class="st51" d="M319.24,174.69l-22.69-.11c-2.67-.46-2.78-8.31-.26-9.15-2.89-8.82-2.68-19.82,0-28.71l-1.69-2.15c0-9.14,0-18.29.01-27.43l1.69-.99-1.69-2.08v-18.62l1.69-1.21c-2.66-4.27-2.24-11.94.97-15.82.47-3.56,3.71-4.95,4.14-7.62-.42-2.75,6.49-8.51,8.83-6.26,2.6-1.1,5.67-1.53,9.15-1.38l-.16,121.53h.01Z"/>
  <path class="st67" d="M207.81,7.76c1.21.19,2.15.87,2.81,2.06l84.63,71.96,1.07,2.46v21.91c-.25.36-.51.69-.85.87-1.38.73-11.65-8.12-13.48-9.85l-.65-1.85c-1.61-.07-2.25-1.17-1.93-3.3-1.71-3.48-4.76-5.39-7.93-8.09l-70.98-60.52-4.77-4.67c-4.09-4.01-10.66-7.78-11.35-10.95,7.81.06,15.63-.69,23.46-.01l-.03-.02Z"/>
  <path class="st64" d="M297.28,68.42c-.69,5.16-.97,10.58-.97,15.82-1.56-.57-2.84-1.62-4.46-3L209.44,11.03c-1.22-1.04-1.4-2.26-1.63-3.27,5.85.51,11.98-1.16,18.16.09,2.06,3.31,5.16,5.4,8.18,7.97l56.49,48.14c2.27,1.93,3.92,4.16,6.64,4.45h0Z"/>
  <path class="st72" d="M259.28,8.33c-.17,1.92,1.5,2.6,2.99,3.87l46.89,39.94c.54.46,1.31.7,1.52,1.31.11.33.03.72-.43,1.08-3.27,1.38-5.84,4.48-8.83,6.26l-52.97-44.95c-2.87-2.43-5.44-4.33-6.9-7.52h17.73Z"/>
  <path class="st0" d="M318.42,380.71c.59,10.46-.01,20.96.09,31.44-1.06.4-1.86,1.24-2.4,2.69l-32.34,64.7-15.94-.04,23.44-47.88c14.08-7.64,20.66-22.58,18.56-38.3.53-3.37,4.5-12.78,7.11-14.04.44-.21,1.15.72,1.48,1.43Z"/>
  <path class="st12" d="M148.66,478.69c-.61.02-1.61.19-1.67-.46-.05-.51-.15-1.29.16-1.9l20.81-40.04-17.75,37.07c-1.43,1.64-1.54,3.58-1.54,5.33h-.01Z"/>
  <path class="st52" d="M113.73,306.55c-10.55,9.36-26.67,6.43-35.08-3.61l-.09-27.95c8.18-10.72,24.7-13.16,35.17-3.56,9.68,8.87,10.27,26.01,0,35.12Z"/>
  <path class="st65" d="M257.59,311.63c-8.86,19.07-18.09,38.03-27.68,56.87l-1.96.16c-4.58-1.88-9.33-3.46-14.26-3.94-1.06-1.78-3.44-.43-6.26-.99l15.28-30.52c.71-1.42,1.27-2.64,1.12-3.96,7.1-3.25,13.17-9.3,16.61-16.04l-.97-.57c1.48-3.53,14.5-31.92,16.29-32.3.66-.14,1.32.4,1.84.89.91,1.57,1.57,3.24,1.79,5.05.92,7.61.3,18.14-1.79,25.36h-.01Z"/>
  <path class="st9" d="M249.24,232.12l.98,1.35s-4.48,8.65-13.44,25.95l-1.84-.89c-8.41-8.8-19.93-14.47-32.24-14.63l18.61-38c.59-.13,1.18-.23,1.77-.22,4.57.11,22.19,19.02,26.62,24.42l-.45,2.01h0Z"/>
  <path class="st41" d="M221.55,281.66l-41.52-.12c1.9-11.91,12.26-18.43,23.53-17.37,9.45.89,17.53,6.96,17.99,17.49Z"/>
  <path class="st60" d="M257.67,239.55c2.31,3.67,2.25,7.55-.08,11.2-3.75,8.49-7.72,16.91-11.93,25.25l-1.73.87c-2.67-5.97-4.31-13.43-9-18.33,1.34-.35,1.63-1.75,2.31-3.07l11.99-23.34c3.13-1.44,7.76,4.23,8.43,7.43h.01Z"/>
  <path class="st4" d="M257.56,264.2c1.72.97,2.38,2.64,1.96,5,.19,3.64.49,9.57-1.93,12.02-1.18.31-1.6,1.44-2.23,2.68l-14.93,29.29c-4.27-2.04-8.76-3.91-12.42-6.87-1.94-1.71,1.16-7.24,3.41-7.51,4.7-.2,8.91-.55,12.63-1.04l.72-1.49c.16-.64-.25-2,.16-2.53.42-2.82.61-5.68.55-8.58.07-2.85,9.12-21.94,10.32-22.26.78-.21,1.43.47,1.77,1.28h0Z"/>
  <path class="st41" d="M231.42,298.82l-1.48,1.68-20.43-.09-5.43,11.92-2.24.87c-5.47-.31-10.86-.79-15.67-4.83-3.04-2.55-5.76-5.84-6.01-10.24l60.54-.12c1.95,0,3.49-.11,4.07-1.73-.13.51.53,1.67,0,2.48l-13.35.06h0Z"/>
  <path class="st43" d="M231.42,298.82c-.46,2.74-2.23,5.02-3.41,7.51-1.4-.76-3.63-1.25-5.37-1.64-6.01,6.05-13.18,8.95-20.81,8.52l6.47-14.49,23.11.1h0Z"/>
  <path class="st4" d="M257.59,258.43c-3.25,6.88-6.62,13.74-10.1,20.58-1.45,1.6-2.35,2.09-3.15-.29-.11-.59-.16-1.31-.4-1.85-.14-1.34.53-2.54,1.24-3.96l9.53-19.15c.74-1.48,1.33-2.87,2.88-3,2.62.42,2.5,7.03,0,7.67Z"/>
  <path class="st60" d="M257.56,264.2c-.81-.12-1.53.34-2.01,1.33l-9.27,19.17c-1.45,3.01.59,6.54-1.36,9.06-.09-5.03.35-10.08-.59-15.04.77.22,1.59-.07,2.28-.94l8.13-16.43c.71-1.43,1.61-2.45,2.84-2.93,2.6.43,2.14,4.83-.03,5.78h0Z"/>
  <path class="st34" d="M210.38,179.85l1.74-.66,44.5,43.79c1.21.86,1.73,2.16,1.55,3.9,2.15,3.48,2.01,9.42-.5,12.68l-8.43-7.43-7.31-8c-6.3-6.9-12.89-13.47-20.62-18.21-1.89-1.16-3.49-3.59-5.15-4.96-1.45-2.8-4.13-4.8-7.17-6.37-7.39-3.82-13.47-8.63-19.23-14.48-2.37-2.41-5.37-4.15-7.55-6.87-2.56-3.18-5.86-5.36-8.78-8.08-3.19-2.97-14.79-15.2-17.65-14.95-.28-.26-.5-.53-.52-.81-.31-4.64-.83-14.46.27-18.62.09-.33,2.21.23,3.07.93,16.91,15.59,33.58,31.43,50,47.5.68.43,1.27.64,1.78.64h0Z"/>
  <path class="st2" d="M201.09,170.46c.56-.37,1.33-.78,1.78-.44.89.66,7.8,7.26,7.88,7.81.11.73.03,1.39-.38,2.02.33.56-.27.81-.54.76-.71-.12-1.49-.4-1.93-.94-3.69-4.55-8.36-7.34-12.46-11.21l-11.31-10.68-12.68-11.82c-4.97-4.63-9.07-9.79-15.57-14.07-1.34,6.06,0,12.36-.12,18.32-.19,9.07-.44,18.17-1.2,27.02l.3-53.29c.9-.52,2.02-.3,2.78.41,14.64,14.74,29.27,29.47,43.9,44.21l-.48,1.92.03-.02Z"/>
  <path class="st27" d="M378.31,110.49c7.19,4.94,14.06,10.44,20.62,16.49l.53,1.96c.54,23.37,1.46,18.29-6.61,24.33l-1.71-.17c-10.47-9.03-21.08-17.89-31.83-26.6l-.94-1.77c3.18-8.7,10.86-14.98,19.95-14.24h-.01Z"/>
  <path class="st27" d="M357.11,93.55c-6.59,3.14-13.39,8.99-17.52,15.08.82-1.5-11.6-11.39-13.76-13.16-1.9-1.55-3.31-3.6-5.75-3.55l.19-30.37,31.72,27.18c1.94,1.66,4.12,2.71,5.12,4.82h0Z"/>
  <path class="st14" d="M392.84,153.28c-2.51,1.88-4.62,1.63-7.18,1.86-7.44.65-15.29.45-21.26-4.42-7.98-6.5-9.27-17.14-6.04-25.99,2.43-.1,3.97,1.67,5.89,3.3l25.9,22.15c1.21,1.03,2.67,1.55,2.69,3.09h0Z"/>
  <path class="st37" d="M399.45,128.95c-2-.4-3.21-2.04-4.87-3.44l-13.23-11.21c-1.41-1.19-2.73-2.12-3.05-3.8,8.08-.97,16.66,2.48,20.84,9.69,1.46,2.53.25,6.26.31,8.77h0Z"/>
  <path class="st36" d="M296.3,165.44l.26,9.15c.01.43-.09.95.65.95h9.36l3.14,1.27,73.81,62.86c1.67,1.36,2.81,2.61.85,4.24-8.41-.33-16.8,1.56-24.7,4.18l-2.51.06-35.1-30.42-.27,15.72-1.7,1.2c2.61,5.74,3.01,14.59.24,20.22,2.45,1.68,2.49,9.11-.24,10.18,1.77,1.98,2.35,4.71,1.75,8.19.63,3.14.09,5.18-1.64,6.12l-.96.04-1.69-.58v-68.15c-1.5-.1-2.9-.61-4.19-1.54-.99.02-1.8-.26-2.43-.86l-36.23-31.17-11.29.07c-1.33-.21-1.43-1.24-.8-2.48l.73-1.69,16.06-.11.23-17.12,1.7-1.2c.33-.67.97-1.41,1.55-1.2,1.42.53,11.28,8.71,12.63,10.2l.79,1.87Z"/>
  <path class="st54" d="M398.78,247.42c-3.9-2.2-9.7-3.33-14.42-3.51-.3-1.99-1.86-2.82-3.55-4.26l-66.44-56.59c-3.02-2.57-5.9-4.5-7.8-7.52,14.03,0,9.11-1.12,22.8,10.13l5.06,4.16,5.93,5.08,5.91,5.07,5.93,5.1c1.58,1.36,3.42,2.77,5.03,4.16l5.92,5.09,5.91,5.07,5.93,5.1c1.58,1.36,3.42,2.77,5.03,4.16l5.92,5.1c1.36,1.17,17.02,13.52,12.82,13.65h.02Z"/>
  <path class="st6" d="M162.94,123.13c1.18.15,2.19.85,3.03,2.08l27.18,23,2.73,3.54,2.55,1.12c5.01,8.85,12.42,16.14,22.08,19.66l1.56,2.31c1.4,1.17,2.97,2.11,4.71,2.83l39.58,34.02-.33,1.95c1.74,1.87-2.26,5.44-4.23,3.95-1.53,1.49-3.53,1-6.01-1.47-17.76-15.3-35.47-30.57-53.12-45.8l-1.59.14-46.21-46.53c2.05-2.01,5.37-.77,8.07-.8h0Z"/>
  <path class="st36" d="M189.95,74.16c-.7,2.53,2.27,2.71,3.57,4.15,2.02,2.2,4.15,3.7,6.3,5.56l5.8,5.01c2.32,2,4.59,3.68,6.38,5.74-.11,1.81-1.3,3.26-3.57,4.33l-6.3,6.61c-1.08,2.56-2.56,3.97-4.45,4.24l-3.49-1.55c-11.28-9.61-22.51-19.28-33.69-29.01l-.67-1.91c2.14-1.5,3.85-3.5,7.46-3.43,7.7.16,15.32-.36,22.67.25h0Z"/>
  <path class="st12" d="M197.67,109.8c2.49.87-.81,7.81-3.34,7.28-.31.28-.62.52-.98.64-.71.22-11.13-8.12-11.76-8.93l-.89-2.34c.09-1.62-.12-3.46-.61-5.18l-25.35-.21c.14-9.43-2.34-18.51,5.08-23.72,2.84.32,4.06,3.11,6.2,4.81l5.61,4.45,5.42,4.78c2.18,1.92,17.3,14.59,17.78,15.19.93,1.15,3.51,1.17,2.83,3.23h0Z"/>
  <path class="st39" d="M191.96,130.78c1.65,2.25,2.47,5.19,2.46,8.81l2.5,9.72-1.04,2.44c-.95.02-1.73-.48-2.66-1.26l-28.37-24.01c-1.2-1.01-2.09-2.02-1.92-3.35l15.33-.15c.88,0,1.66-.03,2.05-.58.29-.41.3-1.08.39-1.6l2.35-.35c4.86,2.6,7.82,6.05,8.9,10.33h0Z"/>
  <path class="st4" d="M194.33,117.08l1.44,1.64-2.04,10.84-1.77,1.22c-2.91-4.03-7.27-6.97-11.25-9.97-.37-4.78-.27-9.59,0-14.36,3.1,1.05,10.78,8.14,13.63,10.64h0Z"/>
  <path class="st60" d="M359.67,248.09c-4.15,1.38-10.29,5.99-13.39,8.47l-1.68.78-23.23-19.89-1.28-2.8.22-20.68,39.36,34.12h0Z"/>
  <path class="st47" d="M380.89,297.36c1.2.21,2.06-.34,2.64-1.5,4.25-.25,11.5.25,15,2.19-.01,2.25.74,4.59-.48,6.09-5.03,6.15-12.62,7.94-20.13,7.85-11.03-.14-19.88-7.68-20.67-18.13,1.25-.52,2.58-.92,3.95-.82,4.48.35,11.79,1.4,16.17,2.37,1.34.3,2.48,1.09,3.52,1.96h0Z"/>
  <path class="st12" d="M398.49,296.15l-1.94.69c-10.24-9.02-20.53-17.9-30.86-26.64,10.64-7.24,25.39-5.73,33.02,4.82,1.98,2.74.18,6.51.1,9.46l-.31,11.67h-.01Z"/>
  <path class="st35" d="M346.27,256.56c-.65.52-1.99,1.7-2.57,2.55l-5.86,8.66c-.6.53-1.41,1.23-2.05.99-1.48-.55-13.17-10.13-14.42-11.62-.6-.71-.86-1.39-1.05-2.29.16-6.72-.31-13.47-.24-20.22,2.59,1.35,4.69,3.46,7.11,5.54l19.07,16.37v.02Z"/>
  <path class="st65" d="M398.49,296.15c-.03,1.01.04,1.51.04,1.9-5.93.39-11.78-.3-17.64-.69l-.14-1.07s-6.85-5.71-20.56-17.13l-.39-1.66c1.02-3.43,3.3-5.77,5.89-7.29,2.03-.91,3.29.44,4.91,1.83l18.52,16.01c3.3,2.86,5.72,6.27,9.38,8.11h-.01Z"/>
  <path class="st35" d="M380.89,297.36c-7.95-.53-15.87-1.57-23.64-3.51-.44-5.8-1.37-11.86,2.55-16.36.27-1.76,16.07,11.95,16.54,12.43,2.09,2.18,5.32,3.03,6.24,6.58.19.75-1.23.83-1.69.86h0Z"/>
  <path class="st29" d="M334.5,276.68l-.92,6.8c-.46.59-.82,1.64-1.43,1.76-1,.2-11.05-4.59-11.95-5.89l-.11-14.32c.61-.59,1.33-.91,2.19-.87s11.39,9.37,12.43,10.48l-.21,2.03h0Z"/>
  <path class="st26" d="M337.84,267.77c-1.69,2.5-1.51,6.33-3.34,8.91l-9.54-8.05c-1.69-1.43-2.93-3.07-4.88-3.59l.24-10.18c4.2.85,13.03,11.81,17.52,12.91h0Z"/>
  <path class="st32" d="M346.93,329.82l8.46,9.31c-3.56,8.09-7.39,16.15-11.49,24.18l-1.74,1.4c-5.86.89-11.33,4.13-17.14,5.32-2.71.89-2.93-.62-2.08-2.98,5.05-10.36,10.46-20.6,16.25-30.73,1.96-6.55,4.54-8.71,7.74-6.5h0Z"/>
  <path class="st8" d="M342.08,325.06c2.06.61,3.55,3.34,4.84,4.77-1.73-.12-3.45.71-4.17,2.65-2.16,5.81-5.73,10.52-8.48,15.94l-9.99,19.68c-.36.71.19,2.2.72,1.95-1.67.34-4.35,1.83-5.81,2.84-.6,2.52-.92,5.51-.78,7.84-.84-.11-1.56.35-2.05,1.35l-4.73,9.69c-.43.88-1.24,1.26-1.81,1.57-.37-2.76-2.13-5.65-2.25-8.45,10.61-19.59,20.83-39.25,30.66-58.98,1.02-1.77,2.23-2.2,3.84-.83v-.02Z"/>
  <path class="st25" d="M355.39,339.13c3.28,3.61,6.88,6.86,10.38,10.29l.3,1.82c-1.91,4.38-5.24,10.64-8.25,14.07-4.86-.96-10.71-1.34-15.66-.59-.15-1.49.3-3.04,1.3-4.54l9.83-19.72c.49-.98,1.34-1.41,2.1-1.32h0Z"/>
  <path class="st70" d="M381.73,366.43c-4.03,1.16-7.7,3.58-11.61,5.54-4.17-2.19-7.92-5.8-12.3-6.66-.24-.21-.58-.72-.31-1.26l6.46-12.89c.45-.9,1.2-1.37,1.8-1.73,2.33,2.28,16.08,14.44,15.96,17.01h0Z"/>
  <path class="st35" d="M257.77,330.77c1.4.42,2.75.78,4.05,1.07-.99,1.03-.55,2.79-1.32,4.31l-27.04,53.12c-3.76,7.38-10.19,17.62-12.05,25.14-4.14,3.05-9.4,4.09-14.5,3.4,4.86-10.76,10-21.57,16-31.71,3.23,3.85,9.28-10.5,11.55-13.29-2.41-1.54-4.33-3.25-6.52-4.14l26.77-54.06c.75-1.52,1.64-2.48,2.87-2.97.66.07,1.63.26,1.7.73.42,3.01.28,9.17.12,12.4.62,3.09.08,5.09-1.63,6.02v-.02Z"/>
  <path class="st51" d="M319.24,279.4v51.51c-5.32.5-10.85.65-16.57.46-1.62,1.82-5.25,2.22-6.23-.39-.51-17.54-.66-35.22-.45-53.02-1.32-4.21-1.73-8.74-1.24-13.59l1.69-1.02c-.54-9.63-.69-19.5-.45-29.62-2.82-2.15.39-14.85,2.32-15.97.62-.36,1.42-.2,2.14-.04-.33-2.51,1.21-4.62,4.63-6.32,3.08-2.64,5.84-3.4,8.29-2.29,1.71-.64,4.14-.65,5.89-.04v70.32h-.02Z"/>
  <path class="st13" d="M296.44,330.99l22.8-.08h.84c2.24,1.85-.33,3.57-1.69.84l-1.73,1.69-13.17.02c-5.07,10.27-10.12,20.55-15.13,30.84l-2.18,1.3c-7.65-1.07-16.87-2.34-24.28.73l16.79-34.59,1.98-.63c-.04-2.19.14-4.23.55-6.13,2.46-7.2,5.62-14.14,9.47-20.83,1.18-2.96,2.81-4.18,4.88-3.66.28,10.08.56,20.24.84,30.48l.03.02Z"/>
  <path class="st61" d="M340.33,323.17c-10.88,20.15-21.79,40.71-32.74,61.7-4.08-4.75-3.25-6.87-8.85-12.67l-1.18-1.43c6.16-12.81,12.41-25.58,18.75-38.31l2.09-.7c.71,0,1.67.14,1.69-.84.21-9.32-.41-18.58.31-28.08,7.24,7.35,13.7,13.66,19.93,20.34h0Z"/>
  <path class="st8" d="M340.33,323.17l1.76,1.88c-1.62-.38-2.35.42-3.12,1.94l-17.45,33.98c-3.32,6.46-6.65,12.44-9.83,18.94-1.04,2.12-2.26,3.91-4.09,4.96,1.51-6.91,6.02-13.11,9.1-20.15.83-1.91,2.49-3.25,3.42-5.12l17.13-34.28c.69-1.38,1.94-2.02,3.09-2.14h-.01Z"/>
  <path class="st51" d="M237.39,87.42c10.67-.47,21.13,3.59,30.04,9.21,3.93-2.4,7.8-4.1,11.96-4.63,1.74.08,1.93,1.83,1.93,3.3.53.32,1.39,1,1.54,1.52.92,3.12.47,22.77.16,27.18l-1.69.99,1.69,2.84v25.48l-1.69,1.24-.17,20-18.55.13c-1.35-.12-2.31-1.07-2.88-2.84-3.32,2.83-6.85,4.01-10.58,3.53-1.55,3.25-10.01,4.53-12.49,1.73-3.72,3.05-11.2.94-14.59-2.26-12-3.7-20.39-12.14-26.18-23.09-2.02-6.87-4.17-13.73-3.93-20.97.14-4.26,1.76-9.59,2.37-13.7l3.34-7.28c2.72-5.93,8.14-12,14.32-15.18,7.66-3.95,16.75-6.81,25.39-7.19h0Z"/>
  <path class="st17" d="M318.4,331.76l-19.67,40.44c-4.12-1.38-8.13-5.97-12.54-6.58,2.97-10.42,12.07-22.12,16.12-33.83l16.09-.03h0Z"/>
  <path class="st16" d="M284.54,384.82l1.15,1.45c-3.11,7.04-8.05,16.54-12.01,23.15-1.49,2.49-3.37,5.55-5.38,7.36-7.36-3.46-10.95-10.89-10.34-18.79.51-6.56,4.32-12.08,9.49-14.58,6.11-2.96,12.24-2.25,17.09,1.41h0Z"/>
  <path class="st56" d="M268.3,416.78c-.7-3.06,2.62-5.7,4.09-8.53l12.15-23.43c2.89,2.19,5.23,3.47,6.1,7.85,1.09,5.5,1.76,11.19-1.26,16.54-4.24,7.51-13.36,11.05-21.08,7.57h0Z"/>
  <path class="st5" d="M294.72,262.47c.75-1.04,1.33-.74,1.72.89v67.63c-.25,0-.85-.27-.85-.94v-29.53l-1.69-.97-.08-20.98-10.78-10.21-.1,51.38-1.7,5.26c0,1.82.2,3.73-.08,5.99-.13,1.08-1.88.81-2.46.76l-16.89.08c-1.15,0-4.03.58-4.05-1.07l.98-1.68,19.93-.07c-.16-25.73.07-51.43.69-77.1l1.73-1.12c1.34-.73,2.04-.36,3.11.29,1.83,1.12,8.35,7.21,10.05,9.05l.46,2.32v.02Z"/>
  <path class="st52" d="M296.31,106.15l-.02,30.58c-1.68,1-3.4.54-5.16-1.36-3.48-2.43-8.36-6.54-9.8-10.36v-29.69c4,.65,10.33,9.15,14.98,10.84h0Z"/>
  <path class="st1" d="M296.29,136.73c0,9.55-.27,19.18,0,28.71-3.15.18-11.22-9.88-14.96-10.87v-29.56c5.33,3.51,9.32,8.8,14.96,11.72h0Z"/>
  <path class="st51" d="M281.18,222.81c2.76,5.4,2.56,13.22-.07,18.67,2.45,1.49,2.69,8.27-.01,9.33l-.55,14.34-.19,65.75-22.6-.13-.18-19.14c-.1-10.13.3-20.27,0-30.4-.17-5.66.65-11.36-.02-17.02-.2-1.65.03-4.1.03-5.78v-7.67c0-3.75.09-7.45.08-11.2,0-4.21.03-8.5.5-12.68-2.23-2.48.81-8.9,3.63-9.29l4.23-3.95c-1.66-2.48,4.48-6.56,5.84-3.67.41-3.4,10.09-4.38,10.6-.44.38.74,1.18,13.21-1.29,13.28h0Z"/>
  <path class="st13" d="M261.8,217.58c-.77,3.23-3.26,5.98-3.63,9.29l-47.79-47.03-9.29-9.39c0-.97.55-1.67,1.25-1.69s1.96-.11,2.25.64c1.1,2.89,9.81,8.62,10.3,9.13,1.93,1.98,33.61,29,34.7,29.66.6.36,8.14,8.59,12.22,9.39h-.01Z"/>
  <path class="st60" d="M262.61,174.69c.2.58.7.89,1.67.89l11.03.02,36.33,31.06c.98.84,1.85,1.35,1.72,2.47-4.83,1.81-9.54,4.57-12.92,8.61l-1.8.64-45.97-39.62c-1.69-.85-2.86-1.97-3.52-3.38,4-.83,7.5-4.04,11.42-5.85,1.43,1.68,1.52,3.66,2.05,5.17h-.01Z"/>
  <path class="st33" d="M236.66,177.1l2.37,1.05c11.71,9.81,23.12,19.88,34.24,30.21l-1.4,1.61c-2.19.45-4.18,2.12-5.84,3.67l-41.79-35.92c-1.13-.97-2.34-1.44-2.17-2.88,4.56,1.41,9.83,2.08,14.59,2.26h0Z"/>
  <path class="st30" d="M249.15,175.37c2.8-.03,4.73,2.28,7,4.21l38.21,32.58,6.08,5.57c-3.42,4.09-4.04,10.51-4.03,16.01l.03,29.62c-.76.08-1.18-.56-1.72-.89-1.12-2.63-1.9-9.76.76-11.08-.89-.37-1.45-1.18-1.68-2.41l.07-14.53c-4.6-3.02-9.99-6.93-12.69-11.64l-.42-14.17c-3.81-.07-6.16.76-8.88,1.33.07-1.9-1.75-2.84-3.26-4.13l-28.17-24.1c-1.69-1.44-3.4-2.7-3.79-4.63,4.03.15,8.55-.91,12.49-1.73h0Z"/>
  <path class="st33" d="M295.6,300.51c-4.98,4.2-10.07,20.6-14.36,24.49l.12-60.92,14.18,13.8.06,22.63Z"/>
  <path class="st36" d="M228.76,111.33l4.15-.34,24.42,20.91.8,2.87c.47,4.04.45,8.27.1,12.63-2.69,3.12-5.82,4.97-9.22,6.21-2.62-.17-4.99-1.63-7.11-4.38l-24.68-20.7-.82-1.99c1.78-7.03,5.75-13.07,12.36-15.22h0Z"/>
  <path class="st60" d="M249.02,153.61c-8.33,3.04-18.13,2.67-25.27-2.5-7.98-5.78-9.53-15.92-7.34-24.57,2.4.37,4.04,2.27,6.02,3.95l20.58,17.46c2.24,1.9,4.05,3.89,6.01,5.65h0Z"/>
  <path class="st31" d="M258.14,134.77l-24.81-21.08c-1.52-1.29-2.53-3.05-4.57-2.37,10.72-4.41,22.75-1.77,29.42,7.87.46,5.38.4,10.54-.05,15.57h0Z"/>
  <path class="st24" d="M295.47,251.39c0,.54.73,12.97-.76,11.08-5.15-3.14-8.74-8.17-13.62-11.66v-9.33c1.34-1.44,3.18-1.13,5.53.91,3.48,2.8,6.43,5.8,8.85,9.01h0Z"/>
  <path class="st6" d="M295.47,251.39c-1.52.38-2.23-1.36-3.47-2.13-7.66-4.77-2.6-4.33-10.89-7.78,0-6.25.25-12.45.07-18.67,2.33-.24,10.28,9.63,14.38,10.43l-.09,18.15h0Z"/>
</svg>