<?xml version="1.0" encoding="UTF-8"?>
<svg id="uuid-c089f104-b9b4-4efd-906b-5f3b7842b79b" xmlns="http://www.w3.org/2000/svg" version="1.1" viewBox="0 0 187.86 131.2">
  <!-- Generator: Adobe Illustrator 30.1.0, SVG Export Plug-In . SVG Version: 2.1.1 Build 136)  -->
  <defs>
    <style>
      .st0 {
        fill: #e8d627;
      }

      .st1 {
        fill: #e2cf1e;
      }

      .st2 {
        fill: #fee704;
      }

      .st3 {
        fill: #f4df0c;
      }

      .st4 {
        fill: #ecd711;
      }

      .st5 {
        fill: #292f77;
      }

      .st6 {
        fill: #e2d021;
      }

      .st7 {
        fill: #e1ce12;
      }

      .st8 {
        fill: #d2c12b;
      }

      .st9 {
        fill: #f7e20f;
      }

      .st10 {
        fill: #fce503;
      }

      .st11 {
        fill: #706c4f;
      }

      .st12 {
        fill: #79724a;
      }

      .st13 {
        fill: #f6e32f;
      }

      .st14 {
        fill: #e4d329;
      }

      .st15 {
        fill: #e8d734;
      }

      .st16 {
        fill: #fae629;
      }

      .st17 {
        fill: #efda0a;
      }

      .st18 {
        fill: #decd30;
      }

      .st19 {
        fill: #fee600;
      }

      .st20 {
        fill: #f0dc19;
      }

      .st21 {
        fill: #decf3e;
      }

      .st22 {
        fill: #decc23;
      }

      .st23 {
        fill: #eeda14;
      }

      .st24 {
        fill: #ead92f;
      }

      .st25 {
        fill: #f3e341;
      }

      .st26 {
        fill: #f4de13;
      }

      .st27 {
        fill: #f2e141;
      }

      .st28 {
        fill: #e9d72d;
      }

      .st29 {
        fill: #fee914;
      }

      .st30 {
        fill: #f8e41d;
      }

      .st31 {
        fill: #fefefe;
      }

      .st32 {
        fill: #e7d414;
      }

      .st33 {
        fill: #e1d131;
      }

      .st34 {
        fill: #ecd814;
      }

      .st35 {
        fill: #e4d116;
      }

      .st36 {
        fill: #d3c012;
      }

      .st37 {
        fill: #f6e21c;
      }

      .st38 {
        fill: #e4d119;
      }

      .st39 {
        fill: #ab9f2c;
      }

      .st40 {
        fill: #dccc35;
      }

      .st41 {
        fill: #dfcb0a;
      }

      .st42 {
        fill: #f0da02;
      }
    </style>
  </defs>
  <path class="st5" d="M162.6,108.58c-24.55,18.91-61.34,22.74-91.12,18.33-22.98-3.4-46.97-13.45-60.36-33.16-6.11-8.99-8.92-19.28-8.82-30.11.06-7.13,1.29-13.8,4.59-20.18,2.43-4.71,5.4-8.88,9.08-12.73,9.66-10.13,22.43-17.14,35.64-21.66C78.27-.04,110.31.03,136.91,9.33c12.55,4.39,24.77,11.1,34.09,20.6s14.88,20.76,14.33,33.95c.53,18.27-8.54,33.77-22.73,44.7Z"/>
  <path class="st19" d="M181.65,59.57c.25-.19.4.05.43.71.46,13.27-5.9,24.64-15.59,33.52-12.01,11.01-28.32,17.88-44.2,21.26-18.14,3.86-36.84,3.93-55,.22-15.77-3.22-31.96-9.8-44.11-20.43-10.49-9.17-17.85-21.55-16.63-35.97,9.91,2.12,20.35,4.58,29.64,8.58,2.75,1.19,5.37,2.41,7.7,4.16-1.09,3.26-.61,6.58,1.49,9.07,1.97,2.34,5.07,3.58,8.49,3,1.18,5.44,6.31,8.96,11.9,8.05,1.52,4.11,7.7,7.13,11.8,5.4,1.41,3.42,4.4,5.62,7.6,6.25,3.6.71,7.01-.49,9.49-3.05,4.95,2.92,12.91,4.51,16.56-.79,3.36.99,6.52.1,9.06-2.07,1.42-1.21,2.6-2.58,2.83-4.59,5.48.99,12.13-3.06,12.08-9.2,3.99.62,7.96-.93,10.17-4.3,1.68-2.57,1.47-5.64,0-8.38,2.95-1.31,5.76-2.38,8.8-3.45,9.07-3.2,18.2-5.89,27.48-8.01v.02Z"/>
  <path class="st31" d="M105.81,90.94c-.2-.44-.52-.76-.97-.95-.33-.36-.81-.66-1.19-.96-.17-.31-.41-.54-.73-.71-.66-.51-1.54-1.28-2.46-.78-.7.38-.37,1.44.11,1.96l7.35,8.01c.93,1.01-2.52,2.15-3.06,2.06-.73.08-1.45.16-2.16.24-.28.04-.54,0-.72-.24l-1.2-.21c-1.52-.3-2.86-1.07-4.43-1.66,1.72-3.96,1.12-8.28-1.67-11.47-1.65-1.88-3.98-2.99-6.38-3.2-.57-.07-1.13-.15-1.69-.24.14-2.38-.51-6.06-2.39-7.67-.28-.51-.74-.86-1.2-1.2-.07,0-.18.03-.24,0-.53-.4-1.01-.79-1.44-1.2-.96,0-2.03-.32-2.88-.72-.79-.04-1.59-.12-2.4-.24l-.05.25c-.67.03-1.29.18-1.87.48-.69.17-1.28-.56-1.45-1.2-.25-.4-.56-.72-.95-.97-.05-.09-.16-.18-.24-.24-.74-.86-1.7-1.5-2.88-1.92-2.12-.71-4.51-.9-6.72-.24-.97.47-2.08.64-2.88,1.44-.32.03-.64-.13-.96-.48-.05-.07-.16-.22-.24-.24l-.72-1c-1.93-.91-3.82-1.59-6-1.63-.16.25-.54.38-1.15.38l-.77.34c-1.26.29-2.29,1.11-3.34,1.85-.28.06-.49-.13-.5-.41-.42.08-.85-.22-1.2-.48-.36-.22-.68-.45-.96-.72l-1.92-.96c-.2-.04-.52-.17-.72-.24-.52-.48-1.16-.8-1.92-.96-.38-.35-.86-.59-1.44-.72-.73-.28-1.37-.6-1.92-.96-.48-.03-.8-.19-.96-.48-.61.15-1.37-.2-1.92-.48-.95-.28-1.91-.6-2.88-.96h-.24c-.65-.31-1.29-.63-1.92-.96-.35.08-.95.08-1.2-.24-.23-.03-.5.07-.72,0-.37-.33-.85-.48-1.44-.45-.08-.02-.17.02-.24,0-.53-.31-1.09-.56-1.68-.74-.46-.05-.94-.12-1.44-.21l-.48-.03c-.23-.26-.55-.42-.96-.48l-.72-.24c-.63-.11-1.19-.26-1.68-.48-.35.1-.85-.05-1.2-.24-.64.08-1.29-.13-1.92-.24-.65-.38-1.4-.66-2.16-.48-.32-.03-.6-.25-.96-.24l-1.2-.48c-.92-.06-1.73-.6-2.7-.95,2.22-11.57,9.69-20.93,18.66-28.18,7.95,3.24,28.31,10.3,36.26,8.39l10.16-2.44-9.29,10.24c-.88.97-1.38,2.47-.85,3.67.79,1.79,2.47,2.82,4.27,3.45,12.65,4.42,16.46-5.06,27.23-10.75,3.56-1.88,7.43-1.82,10.8.32,2.12,1.35,3.99,2.72,5.95,4.4l31.12,26.57c1.65,1.41,2.86,3.54,2.09,5.77-1.15,3.32-6.11,5.21-8.89,2.76l-14.12-12.44c-.46-.41-1.21-.39-1.6-.07-.35.28-.55,1.19-.06,1.68l12.16,12.21c1.11,1.11,1.58,2.57,1.32,4.03-.6,3.4-6.14,6.46-9.87,3.81-2.44-1.73-6.61-6.79-10.85-9.75-.5-.35-1.13-.48-1.52-.14-.29.26-.53,1.14-.13,1.59l9.01,10.13c.73.82,1.14,2.17.56,3.17-1.62,2.83-5.45,4.02-8.32,2.43-.64-.5-1.15-1.24-1.79-1.83l-3.11-2.86-.02.03Z"/>
  <path class="st31" d="M114.98,43.84c-3.12-2.68-6.04-4.95-9.3-7.12-4.45-2.96-9.71-3.06-14.37-.49-5.98,3.29-10.77,8.51-15.13,10.51-3.07,1.41-6.66,1.35-9.73.13-.63-.25-1.41-.74-1.48-1.44l8.33-8.95c1.82-1.96,3.66-3.63,5.72-5.31,3.88-3.16,8.35-5.1,13.3-5.91,9.6-1.58,17.38.92,25.99,4.82,15.91,6.67,30.63,5.11,46.02-1.94,4.44,3.77,8.22,7.89,11.31,12.75,2.85,4.5,4.89,9.29,5.85,14.72-13.26,2.89-26.08,6.83-38.45,12.31l-28.07-24.07h0Z"/>
  <path class="st19" d="M106.43,22.03c-10.23-2.19-21.94-.66-29.99,6.52-2.44.08-4.74.42-7.11,1.04l-5.14,1.34c-4.46,1.17-8.9,1.21-13.4.17-7.44-1.71-14.58-3.85-21.8-6.62,11.54-8.07,24.67-13,38.54-15.9,17.76-3.55,35.96-3.55,53.72.05,14.11,2.97,28.25,8.32,39.85,17.05-13.95,6.22-28.42,6.84-42.26.7-4.03-1.95-8.01-3.42-12.42-4.37v.02Z"/>
  <path class="st31" d="M92.37,97.99c-2.15,2.08-5.12,2.48-7.72,1.35-4.8-2.1-3.89-7.11-4.7-7.34-1.53-.43-3.01,3.31-7.12,1.22-5.77-2.94-3.18-5.55-4.3-6.41-.57-.44-1.77,1.31-4.05,1.42-2.16.1-4.22-1.07-5.48-2.51-3.13-3.6-.49-7.19-2.11-7.47-2.5,2.24-6.01,2.4-8.27-.05s-1.92-6.06.62-8.1,6.25-1.45,8.19,1.33c.73,1.06.78,2.11,1.17,3.62,1.61-3.6,5.08-5.18,8.79-4.49,5.22.97,4.46,5.61,5.06,6.06.81.61,2.48-3.42,7.42-1.49,4.46,1.75,4.5,6.13,3.16,10.09-.76,2.25,2.6.27,4.55.35,2.89.12,5.36,2.02,6.32,4.46,1.08,2.73.64,5.85-1.53,7.94v.02Z"/>
  <path class="st26" d="M68.61,68.18c.21.07.21.15,0,.24-2.17-.81-4.45-.85-6.72-.48,1.77-.86,5.36-.81,6.72.24Z"/>
  <path class="st23" d="M57.09,67.66c.14.15.18.23-.02.32-1.31-.64-2.58-1.4-4.06-1.48-.66-.12-1.33-.18-2.02-.17l.1-.31c2.16-.22,4.27.33,6,1.63h0Z"/>
  <path class="st17" d="M71.49,70.1c-.87-.67-1.84-1.29-2.88-1.68v-.24c.49-.19,3.17,1.27,2.88,1.92Z"/>
  <path class="st0" d="M51.09,66.03c-.09.51,1.61-.05,1.92.48-1.29,0-2.58-.08-3.84.24.36-.62,1.24-.65,1.92-.72Z"/>
  <path class="st10" d="M81.33,72.73c.11.21.02.29-.24.24-.99-.09-1.9-.57-2.88-.72-.11-.21-.02-.29.24-.24.98.17,1.94.36,2.88.72Z"/>
  <path class="st1" d="M76.05,71.78c.88-.02,1.52.14,1.92.48-1.3-.01-2.58-.07-3.84.25.43-.54,1.25-.56,1.92-.73Z"/>
  <path class="st32" d="M32.37,62.19c.21.07.21.15,0,.24-.76-.29-2.83-.88-2.88-1.2.99,0,2.01.45,2.88.96Z"/>
  <path class="st34" d="M35.25,63.15c.67.22,1.42.42,1.92.96h-.24c-.63-.4-1.67-.33-2.16-.96.03-.13.19-.13.48,0Z"/>
  <path class="st37" d="M43.17,66.99h-.24c-.66-.09-1.22-.49-1.68-.96.77.03,1.46.36,1.92.96Z"/>
  <path class="st13" d="M29.25,61.24c-.69,0-1.33-.39-1.92-.72-.21-.07-.21-.15,0-.24,1.1.46,2.06.31,1.92.96Z"/>
  <path class="st14" d="M82.77,73.93c-.56-.32-1.23-.49-1.68-.96.09-.07.17-.15.24-.24.58.22,1.32.59,1.44,1.2h0Z"/>
  <path class="st28" d="M23.73,59.58l-1.92-.5c-.11-.21-.02-.29.24-.24.32.11,1.99.08,1.68.74Z"/>
  <path class="st4" d="M34.29,62.67c.11.21.02.29-.24.24-.5-.07-1.18-.29-1.68-.48v-.24c.68-.02,1.26.39,1.92.48Z"/>
  <path class="st30" d="M40.53,65.79c-.69-.24-1.3-.64-1.92-.96.37,0,2.16.32,1.92.96Z"/>
  <path class="st3" d="M78.45,72.02c-.09.07-.17.15-.24.24-.08-.01-.16,0-.24,0-.3-.53-2.01.04-1.92-.48.84-.2,1.67.11,2.4.24h0Z"/>
  <path class="st21" d="M13.65,56.92c-.73-.13-1.41-.42-2.16-.48.58-.46,1.76-.12,2.16.48Z"/>
  <path class="st38" d="M38.61,64.83c-.54-.28-1.15-.38-1.68-.72h.24c.57,0,1.32.06,1.44.72Z"/>
  <path class="st33" d="M25.41,60.04c-.48-.15-1.05-.12-1.44-.45.18-.29.48-.16.68-.12.39.09.89.11.76.57Z"/>
  <path class="st15" d="M22.05,58.84c-.09.07-.17.15-.24.24-.41-.11-.85-.21-1.2-.45.42-.49.98.05,1.44.21Z"/>
  <path class="st25" d="M18.45,57.88c-.1.08-.26.08-.48,0-.39-.14-.81,0-1.2-.24-.21-.07-.21-.15,0-.24.54.19,1.26,0,1.68.48Z"/>
  <path class="st12" d="M181.75,58.39l-.32-1.98c.74.42.52,1.33.32,1.98Z"/>
  <path class="st42" d="M84.21,75.13c-.43-.37-.96-.65-1.2-1.2.62.06,1.14.58,1.2,1.2Z"/>
  <path class="st40" d="M104.85,99.57c-.6.5-1.43.15-2.16.24-.02-.2.22-.24.47-.24h1.69Z"/>
  <path class="st11" d="M182.08,60.28c-.15-.23-.24-.5-.43-.71l.38-.99c.25.66.03,1.18.05,1.7h0Z"/>
  <path class="st16" d="M27.33,60.28v.24c-.35-.19-1.16.21-1.2-.48.4.05.82.08,1.2.24Z"/>
  <path class="st35" d="M44.13,67.7c-.49-.05-.87-.38-1.2-.72h.24c.3.19.87.21.96.72Z"/>
  <path class="st7" d="M45.33,68.18c.11.21.02.29-.24.24-.32-.18-.88-.29-.96-.72.44.05.82.28,1.2.48Z"/>
  <path class="st2" d="M72.68,71.31c-.41-.21-.72-.57-.95-.97.64-.03.82.46.95.97Z"/>
  <path class="st27" d="M16.77,57.4v.24c-.34-.21-1.03.08-1.2-.48.46-.06.79.1,1.2.24Z"/>
  <path class="st39" d="M88.29,83.04c-.55-.11-1.33.29-1.69-.24.58.03,1.23-.18,1.69.24Z"/>
  <path class="st36" d="M105.81,90.94c-.37-.34-.64-.6-.97-.95.54-.01.97.42.97.95Z"/>
  <path class="st24" d="M35.25,63.15h-.48c-.24.05-.55-.13-.72-.24.09-.07.17-.15.24-.24.37.05.64.37.96.48Z"/>
  <path class="st22" d="M20.13,58.6c-.41-.02-.82-.45-1.2-.48h.24c.13.09.43-.05.61-.02.25.04.45.18.35.5Z"/>
  <path class="st20" d="M57.81,68.66c-.32-.06-.51-.51-.74-.68l.02-.32c.35.26.75.51.72,1Z"/>
  <path class="st29" d="M59.01,69.38c-.25.25-.34.33-.62,0-.12-.14-.24-.33-.34-.49.37.03.67.26.96.48h0Z"/>
  <path class="st8" d="M10.53,56.2c-.42.02-.91-.21-1.2-.48.46.03,1.07-.1,1.2.48Z"/>
  <path class="st18" d="M45.83,68.6c-.13.21-.16.38-.43.12-.08-.08-.19-.22-.31-.3.09-.07.17-.15.24-.24.2.1.43.18.5.41h0Z"/>
  <path class="st6" d="M18.45,57.88c.29-.05.5.09.72.24h-.24c-.38-.03-.62-.12-.96-.24.16-.02.32.03.48,0Z"/>
  <path class="st41" d="M103.65,89.03c-.27-.21-.62-.34-.73-.71.12.07.37,0,.5.11.18.14.24.37.23.6Z"/>
  <path class="st9" d="M101.97,99.57c-.45.19-.82-.13-1.2-.21.41-.04.92-.17,1.2.21Z"/>
</svg>