<?xml version="1.0" encoding="UTF-8"?>
<svg id="uuid-e4f1fdaa-99a7-4ea4-b5c9-3b12d2173fb5" data-name="uuid-e7490f73-f350-413e-ad62-30fb5c911f8e" xmlns="http://www.w3.org/2000/svg" viewBox="0 0 775 444">
  <defs>
    <style>
      .uuid-f777cebc-662e-4969-882c-7ad3d12e9365 {
        fill: #0567e0;
      }

      .uuid-a021d35d-56d0-453b-96c5-0e3c292eaf16 {
        fill: #017ef6;
      }

      .uuid-9699ed5f-792b-4624-b7d2-4ab5b325912d {
        fill: #016be5;
      }

      .uuid-c4146eea-7363-44da-83a6-9169d0f6519c {
        fill: #0866dd;
      }

      .uuid-005d5dfe-51f1-4ec2-8023-0ecb2e311979 {
        fill: #0868df;
      }

      .uuid-893568e0-049c-401f-9410-f2d0bc7ca8aa {
        fill: #0378f0;
      }

      .uuid-5625f128-4803-4818-9b4c-ba6771d4eed0 {
        fill: #017df5;
      }

      .uuid-c40296fa-0843-4bf0-b58c-51dcaa1a7791 {
        fill: #1d2b33;
      }

      .uuid-3360f6f5-82a8-4d5d-a7f6-652a0a175501 {
        fill: #1d2c33;
      }

      .uuid-a9fea7d0-e91d-45c2-8904-2bcd85a0a52e {
        fill: #007ff8;
      }

      .uuid-bd7b561d-40c0-4fe4-a462-4ffe0f638359 {
        fill: #076ce3;
      }

      .uuid-22b1ca47-f9fe-470e-b4d8-3466ef0935a5 {
        fill: #0082fa;
      }

      .uuid-a6d0f7c8-b402-42b6-bdd7-bc8a4f92286e {
        fill: #017df6;
      }

      .uuid-265487b7-cec8-42b6-96da-bc977dbbd0b8 {
        fill: #1d2c34;
      }

      .uuid-e32097a4-c7c7-4409-b20d-96a84f050887 {
        fill: #017ff8;
      }

      .uuid-3e3ab24f-1a98-44b8-b1b7-07e7a48931ba {
        fill: #0366df;
      }

      .uuid-bd0a40db-5d3e-41d2-b06c-1fa896d52423 {
        fill: #0177f0;
      }

      .uuid-8e6d2de0-7b72-4dc8-87b6-8eb93fd9e86c {
        fill: #0570e8;
      }

      .uuid-65767684-351d-43be-88fb-05af52265211 {
        fill: #0475ec;
      }

      .uuid-5ab6a63b-7b71-4edd-8f15-24105277e281 {
        fill: #202f37;
      }

      .uuid-719df5d1-d51c-4b20-a2a9-1d03544a122b {
        fill: #fefefe;
      }

      .uuid-08173c30-ead7-4a63-b1e7-ec305b4a14eb {
        fill: #0171ea;
      }

      .uuid-ef9a1392-586c-4cac-b186-81a39c4670c5 {
        fill: #212f37;
      }

      .uuid-c3ea18ac-487d-4c6c-b26f-270d838afd62 {
        fill: #fcfcfc;
      }

      .uuid-d75d0458-5220-4a59-969b-9f9c65440881 {
        fill: #0064de;
      }

      .uuid-b5649a48-aa70-413e-8a18-4d6e2d2b17ed {
        fill: #1c2b33;
      }

      .uuid-c6f5bead-8f9e-46da-83d2-24d4e33f74ae {
        fill: #1f2e35;
      }

      .uuid-100a871c-3ce9-4d58-ab28-5ff5c08b14c9 {
        fill: #0168e2;
      }

      .uuid-bba4732a-cc78-43b9-8937-b09887d57373 {
        fill: #fdfdfd;
      }
    </style>
  </defs>
  <path class="uuid-b5649a48-aa70-413e-8a18-4d6e2d2b17ed" d="M409.06,222.12l-.25-78.63-30.32,54.04c-5.52.42-10.51.36-16.13.04l-30.36-54.12-.35,78.57c-5.68.34-10.82.45-16.88-.04v-104.33l20.78-.08,35,63.02,35.12-62.93h20.54v104.3c-5.85.53-10.53.31-17.16.15h.01Z"/>
  <path class="uuid-b5649a48-aa70-413e-8a18-4d6e2d2b17ed" d="M660.53,221.99l-15.75.21-1.12-9.33c-7.73,9.17-18.51,12.69-30.75,10.91-26.3-3.82-36.09-36.8-25.7-60.51,6.29-14.35,20.24-22.23,35.58-20.88,8.36.74,15.4,4.26,20.95,10.52,1.01-3.18.13-5.55.75-8.51,5.36-.2,10.51-.44,16,.14l.04,77.45h0Z"/>
  <path class="uuid-b5649a48-aa70-413e-8a18-4d6e2d2b17ed" d="M504.04,200.86c3.79,3.21,6.32,7.02,9.34,11.08-9.48,9.02-21.54,12.51-34.4,12.27-16.67-.31-30.96-10.35-35.86-26.37-3.28-10.7-2.91-22.13,1.17-32.42,5.92-14.94,19.79-23.44,35.73-23.22,26.25.37,37.3,24.38,34.93,47.3l-56.62.06c1.07,12.17,11.4,20.82,23.64,20.16,8.16-.04,15.48-2.48,22.08-8.86h-.01Z"/>
  <path class="uuid-b5649a48-aa70-413e-8a18-4d6e2d2b17ed" d="M575.46,208.32c.57,4.7.37,8.72.14,13.78-8.26,2.37-17.32,3-25.81-.1s-13.85-11.68-13.95-21.01l-.48-42.41-15.26-.52c-.15-4.77-.28-9.15.14-13.7l15-.34.56-22.68h16.04l.24,22.77,23.47.27c.38,4.58.38,8.87.02,13.67l-23.51.29.24,39.32c.04,6.5,4.3,11.17,10.68,11.47,4.14.19,7.8-.12,12.49-.82h0Z"/>
  <path class="uuid-22b1ca47-f9fe-470e-b4d8-3466ef0935a5" d="M187.22,183.05c-5.67,11.05-12.04,21.88-20.81,31.33-8.18,8.82-19.19,11.98-31.34,8.55-9.51-2.69-16.56-11.48-19.14-21.94l15.12-7.45,1.93,1.47,2.2.5c2.13,8.59,12.41,11.64,18.4,4.8,6.59-7.53,12.66-15.47,17.8-24.12l3.72-2.2,1.66.64c5.1-4.67,10.74,2.92,10.46,8.41h0Z"/>
  <path class="uuid-d75d0458-5220-4a59-969b-9f9c65440881" d="M184.84,122.39l.53,2.4c-4.28,3.07-8.28,6.45-11.98,10.14l-3.39-.93-2.14,1.21c-9.7-3.87-18.59,3.63-23.31,11.66l-2.38.17c-2.93,5.03-15.59-.34-17.05-5.25,10.11-23.79,37-35.23,53.11-24.01l6.62,4.61h0Z"/>
  <path class="uuid-c40296fa-0843-4bf0-b58c-51dcaa1a7791" d="M539.63,327.21c-3.29,3.59-7.49,5.72-12.16,5.67-4.91-.05-9.76-2.24-12.75-6.67-4.41-6.55-4.77-14.78-1.51-21.88,2.33-5.09,6.87-8.2,11.63-9,5.78-.97,10.91,1.18,15.1,5.71l.54-17.61c1.77-.65,3.47-.48,6.43-.45v48.98c-2.56.2-3.67.08-5.32.01-1.49-.06-.84-1.99-1.96-4.75h0Z"/>
  <path class="uuid-b5649a48-aa70-413e-8a18-4d6e2d2b17ed" d="M350.29,315.38l-.33,16.51c-2.44.23-4.46.27-6.98-.02v-47.87c7.83.17,15.18-.36,22.73.27,8.35.7,14.64,6.69,15.17,14.32.58,8.32-5.33,15.31-13.98,16.46-5.29.71-10.36.07-16.62.32h0Z"/>
  <path class="uuid-a9fea7d0-e91d-45c2-8904-2bcd85a0a52e" d="M268.02,139.04c10.49,17.35,14.02,38.96,10.85,59.63-1.05,6.81-3.94,11.78-7.78,16.26-3.99-.57-5.33-9.39-5.22-13.09,1.89-12.84,3.07-25.62,3.54-38.33-2.54-7.62-7.38-13.81-14.5-18.59-3.29,1.23-7.76-5.4-5.96-8.2,0-.97.02-2.35.73-2.64,4.86-1.93,15.1.57,18.33,4.95h.01Z"/>
  <path class="uuid-005d5dfe-51f1-4ec2-8023-0ecb2e311979" d="M216.94,164.13l.18,2.1c-1.08.8-4.82,5.37-4.72,6.05.25,1.71,6.26,14.13,8.36,13.16,1.83-.84,3.23-2.36,4.13-4.14l2.25-.35c2.96-1.22,7.92,6.6,5.88,8.98,2.68,5.12-4.16,13.89-7.62,18.05-.38.46-1.62-.27-2.31-.97,3.27,8.51-27.88-43.85-26.09-39.92-2.95.92-5.68-5.43-3.29-7.23l-.43-2.41c4.48-3.65,9.08-6.83,13.78-9.55.17-1.05.49-1.01.93.02.73-.29,1.84-.65,2.18-.19.88,1.19,7.82,13.37,7.82,14.18,0,.87-.49,1.6-1.07,2.21h.02Z"/>
  <path class="uuid-22b1ca47-f9fe-470e-b4d8-3466ef0935a5" d="M268.02,139.04c-4.49-1.58-15.1-5.51-19.07-2.31l-1.22.58c-8.15-6.92-16.28-8.42-24.4-4.52l-2.32-.8c-4,1.55-8.68-8.18-6.02-10.95,8.51-7.69,20.25-9.1,31.4-4.26,11.15,4.84,16.24,13.35,21.63,22.26h0Z"/>
  <path class="uuid-265487b7-cec8-42b6-96da-bc977dbbd0b8" d="M306.09,331.83c-.59-8.29.65-16.42-.51-24.66-.72-5.1-5.82-7.09-10.02-6.23s-7.9,3.97-7.92,9.01l-.06,21.63c-2.21.63-4.17.66-6.59.25v-48.63c2.39-.45,4.46-.39,6.54.23l.54,16.73c4.3-4.16,9.38-5.94,14.75-4.62,4.8,1.19,9.54,5.23,9.59,11.04l.24,24.99c-2.31.65-4.31.66-6.55.26h-.01Z"/>
  <path class="uuid-b5649a48-aa70-413e-8a18-4d6e2d2b17ed" d="M563.37,316.46c-.32,4.16,2.88,7.71,5.78,9.18,7.96,4.05,14.47-2.64,15.88-1.91,1.3.68,2.13,1.8,3.48,3.64-5.89,6.02-16.11,7.26-23.28,3-8.09-4.81-11.13-14.79-7.8-23.63,2.08-5.52,6.53-9.44,11.21-10.85,5.83-1.76,11.83-.83,16.23,3.23s6.26,10.49,6.17,17.04l-27.67.29h0Z"/>
  <path class="uuid-b5649a48-aa70-413e-8a18-4d6e2d2b17ed" d="M207.37,316.46c-.32,4.16,2.88,7.71,5.78,9.18,7.96,4.05,14.47-2.65,15.88-1.91,1.3.68,2.13,1.8,3.49,3.64-5.89,6.03-16.11,7.26-23.29,3-8.09-4.81-11.13-14.79-7.8-23.63,2.08-5.52,6.53-9.44,11.21-10.85,5.83-1.76,11.83-.83,16.23,3.23s6.26,10.49,6.17,17.04l-27.67.29h0Z"/>
  <path class="uuid-3360f6f5-82a8-4d5d-a7f6-652a0a175501" d="M427.98,295.44c10.95-1.76,19.94,5.89,21.43,15.73s-5.38,19.79-15.45,21.43-19.39-5.04-21.45-14.66c-2.18-10.2,4.25-20.69,15.47-22.5h0Z"/>
  <path class="uuid-5625f128-4803-4818-9b4c-ba6771d4eed0" d="M271.09,214.93c-3.09,3.6-5.13,5.92-9.99,7.19-.79-.05-1.95-.23-2.06-.81-.24-1.27-1.18-14.86-1.04-15.63l1.03-1.76-.73-2.4c8.21-16.77,1.59-37.83-4.59-54.39l1.21-2.2c7.48.09,17.51,13.92,16.84,22.31-.76,9.55-1.93,19.21-3.56,28.91-1.11,6.63.5,13.01,2.89,18.79h0Z"/>
  <path class="uuid-b5649a48-aa70-413e-8a18-4d6e2d2b17ed" d="M179.01,331.61c-2.36.84-4.52.44-7.02.21l-.03-41.13-14.71-.9c-1.06-.74-1-4.45.03-5.73l36.58.03c1.3,1.2,1.28,5.08,0,5.97l-14.72.41-.13,41.14h0Z"/>
  <path class="uuid-b5649a48-aa70-413e-8a18-4d6e2d2b17ed" d="M482.6,296.88c.82-2.02,5.44-.89,6.94-.24l-14.64,34.9c-1.37.78-5.66,1.09-6.43-.11l-15.07-34.85c1.66-.65,5.87-1.49,6.93.06l11.23,27.5,11.04-27.26Z"/>
  <path class="uuid-265487b7-cec8-42b6-96da-bc977dbbd0b8" d="M253.98,303.18c-6.33,5.13-6.73,14.96-1.01,20.71,10.46,10.51,17.39-6.71,20.55,3.95-7.22,7.03-19.24,6.5-26.07-.76-6.98-7.42-7.17-18.7,0-26.13s18.55-8,26.03-.82c-.56,1.38-2.82,4.33-4.25,3.73-4.84-3.23-10.34-4.65-15.25-.67h0Z"/>
  <path class="uuid-3e3ab24f-1a98-44b8-b1b7-07e7a48931ba" d="M196.86,134c2.04,1.95,1.43,4.05-1.83,6.32-2.36,2.4-9.32,8.57-11.69,5.94l-2.64.06c-2.97-3.75-6.39-7.01-10.24-9.77l-.46-2.56c2.05.23,3.25-1.73,4.73-3.29,3.19-3.35,7.43-4.99,10.11-8.32,4.54,3.16,8.56,7.3,12.02,11.6v.02Z"/>
  <path class="uuid-c6f5bead-8f9e-46da-83d2-24d4e33f74ae" d="M388.39,331.66v-35.23c2.24-.67,4.21-.59,6.52-.32.5,2.12-.52,3.74.56,6.03,2.01-4.14,6.72-6.8,11.85-6.85,1.36-.01,1.34,4.33.12,5.26-5.61.67-12.28,3.76-12.33,10.4l-.14,20.9c-2.12.35-3.8.37-6.59-.18h.01Z"/>
  <path class="uuid-c6f5bead-8f9e-46da-83d2-24d4e33f74ae" d="M599.39,331.66v-35.23c2.24-.67,4.21-.59,6.52-.32.5,2.12-.52,3.74.56,6.03,2.01-4.14,6.7-6.8,11.86-6.85,1.35-.01,1.34,4.33.11,5.26-5.6.67-12.28,3.76-12.33,10.4l-.14,20.9c-2.12.35-3.8.37-6.59-.18h.01Z"/>
  <path class="uuid-e32097a4-c7c7-4409-b20d-96a84f050887" d="M193.73,159.89l3.29,7.23c-3.09,5.32-7,10.47-9.8,15.93-2.22-.59-4.06-7.29-5.91-7.89-1.52-.49-2.63,1.4-5.64.79-.85-.17-.84-1.06-.58-1.94-.55-.59-1.35-1.46-1.09-2.03,1.2-2.69,9.76-16.76,11.51-18.6l2.46-.17c2.62-1.69,7.55,4.24,5.76,6.7v-.02Z"/>
  <path class="uuid-f777cebc-662e-4969-882c-7ad3d12e9365" d="M199.87,136.79c2.19-.47,7.21,6.4,7.85,8.23.41,1.16.45,1.82-.65,2.9,1.1,2.74-11.59,9.49-13.35,11.97l-5.76-6.7c-2.86,1.46-6.36-4.66-4.63-6.93,2.05-.89,15-9.73,13.52-12.26.75.93,2.54,1.66,3.01,2.79h0Z"/>
  <path class="uuid-a021d35d-56d0-453b-96c5-0e3c292eaf16" d="M132.98,195.02c-4.17.88-14.38,9.68-17.05,5.98-2.94-11.92-1.35-25.71-1.17-23.99,1.83-.31,2.6,1.07,2.3,4.14,4.19.41,13.85.96,13.37-5.17.81-.68,1.67-.62,2.57.02l1.86,2.05c-.64,4.93-.72,9.86-.26,14.78l-1.63,2.18h0Z"/>
  <path class="uuid-a6d0f7c8-b402-42b6-bdd7-bc8a4f92286e" d="M214.99,121.04c1.49,3.96,2.87,8.03,6.02,10.95l-.15,2.74c-3.8,3.9-7.17,8.17-10.09,12.81l-2.76.4c-.31-.18-.62-.22-.93-.02-1.98-4-5.51-6.98-7.2-11.13,3.11-6.98,9.89-11.01,15.12-15.75h-.01Z"/>
  <path class="uuid-5ab6a63b-7b71-4edd-8f15-24105277e281" d="M502.67,331.4c-2.19,1.02-4.27.74-6.69.43v-35.65c2.41-.41,4.39-.4,6.61.26l.07,34.95h.01Z"/>
  <path class="uuid-bd0a40db-5d3e-41d2-b06c-1fa896d52423" d="M133.6,170.13c2.55,1.5,2.27,4.95-.6,5.87-1.59.32-.51,2.69-1.27,3.98-2.1,3.57-11.87,3.4-16.5,3.73l-.47-6.7c-.28-2.77,1.26-5.54,1.2-7.97,4.42-.99,9.84-1.29,16.26-.89l1.38,2v-.02Z"/>
  <path class="uuid-bd7b561d-40c0-4fe4-a462-4ffe0f638359" d="M239.85,199.94c.33,3.47-3.83,14.43-6.16,16.6-.59.55-1.74.03-2.53-.53-2.8-3.03-6.42-4.76-8.04-8.98,1.42,1.01,11.04-15.94,9.92-17.09,3.08-1.29,10.47,7.93,6.81,9.99h0Z"/>
  <path class="uuid-8e6d2de0-7b72-4dc8-87b6-8eb93fd9e86c" d="M239.85,199.94c2.48-1.85,7.93,2.23,6.26,5.24.76.2,1.83.63,1.79,1.21-.15,2.29-3.12,14.42-4.25,15.66l-2.45.03c-4.44-1.25-6.9-2.67-10.04-6.07,3.17-.76,6.96-18.07,8.7-16.07h0Z"/>
  <path class="uuid-08173c30-ead7-4a63-b1e7-ec305b4a14eb" d="M135.74,161.86c3.07.43.87,8.43-2.14,8.27l-17.35.05c-.27-.3-.23-.83-.29-1.15-.09-3.65.96-6.81,2.14-10.01l1.44-1.79c5.04.81,10.07,1.62,15.11,2.43l1.08,2.2h0Z"/>
  <path class="uuid-893568e0-049c-401f-9410-f2d0bc7ca8aa" d="M259.02,203.93c1.95-.93,1.85,17.22,2.07,18.2-3.58.94-6.08,1.91-10.06,1.89l-1.8-2.54c-.22-4.02.54-12.19,2.85-15.14.78-2.84,4.59-4.4,6.93-2.4h0Z"/>
  <path class="uuid-100a871c-3ce9-4d58-ab28-5ff5c08b14c9" d="M142.17,147.04c2.9,1.15-1.41,8.97-4.32,8.08l-1.72,1.51c-3.67,0-14.87-1.54-15.06-5.64,1.32-3.55,2.65-5.92,4.04-9.2,2.32-.08,3.72,2.09,5.84,3.38-.88-.53,12.1,4.21,11.21,1.87h0Z"/>
  <path class="uuid-65767684-351d-43be-88fb-05af52265211" d="M252.09,206.33c.41,5.95-.64,11.77-1.06,17.69-3.95-.02-6.32-.95-9.85-1.93,1.87-1.47,4.29-13.87,4.91-16.9,1.54-2.79,5.16-1.61,5.99,1.15h0Z"/>
  <path class="uuid-9699ed5f-792b-4624-b7d2-4ab5b325912d" d="M137.85,155.13c2.24,1.77.79,6.41-2.12,6.73l-17.64-2.84,2.98-8.03,5.06,1.84c3.9,1.42,8.13.79,11.72,2.29h0Z"/>
  <path class="uuid-ef9a1392-586c-4cac-b186-81a39c4670c5" d="M498.36,282.25c2.19-.53,4.02,1.04,4.47,2.48.72,2.36-.43,4.53-2.57,5.15s-4.28-.48-4.95-2.6.57-4.43,3.05-5.03h0Z"/>
  <path class="uuid-719df5d1-d51c-4b20-a2a9-1d03544a122b" d="M643.42,194.51c-1.03,8.01-10.05,12.73-15.59,13.94-8.48,1.85-16.65.09-21.89-6.6-7.79-9.95-7.95-25.23-1-35.71,4.73-7.12,12.87-9.54,20.87-8.59,7.01.83,15.94,5.63,17.55,13.92,1.36,7.01,1.08,15.17.07,23.04h0Z"/>
  <path class="uuid-719df5d1-d51c-4b20-a2a9-1d03544a122b" d="M498.61,176.97l-40.44-.09c1.09-8.63,6.11-16.49,14.42-19.12,6.36-2.01,13.2-1.23,18.69,3.08,4.19,3.29,7.27,9.45,7.33,16.13h0Z"/>
  <path class="uuid-719df5d1-d51c-4b20-a2a9-1d03544a122b" d="M170,134c5.43,2.78,9.31,7.87,13.34,12.26,1.92,2.09,2.85,4.86,4.63,6.93l-12.88,20.81c-5.71,9.23-11.69,18.51-19.19,26.78-3.67,4.05-8.4,6.22-14.07,4.83-3.96-.97-7.76-5.72-8.86-10.6-1.4-6.26-.37-12.69.02-19.02.1-1.62.2-4.35.6-5.87l2.14-8.27c.54-2.07,1.16-4.95,2.12-6.73l4.32-8.08c5.26-9.84,16.31-18.94,27.83-13.04h0Z"/>
  <path class="uuid-719df5d1-d51c-4b20-a2a9-1d03544a122b" d="M540.37,314.51c-.26,7.57-5.15,13.1-11.82,12.75s-10.65-6.39-10.66-13.26c0-6.91,4.16-12.97,10.69-13.26,7.11-.32,12.07,5.89,11.8,13.77h-.01Z"/>
  <path class="uuid-bba4732a-cc78-43b9-8937-b09887d57373" d="M374.06,299.5c.31,12.14-15.88,9.18-24.04,9.51l.04-18.4c7.79-.32,23.72-2.5,24.01,8.89h-.01Z"/>
  <path class="uuid-719df5d1-d51c-4b20-a2a9-1d03544a122b" d="M248.96,136.73c1.89,2.65,3.73,5.89,5.96,8.2,6.52,14.23,14.59,45.79,4.11,58.99-1.98.84-4.73,2.15-6.93,2.4-1.96.22-4.03-1.13-5.99-1.15-1.47-2.04-4.57-3.68-6.26-5.24-.87-3.91-4.79-6.9-6.81-9.99l-5.88-8.98c-5.85-3.47-9.87-10.03-10.21-16.83l-8.93-16.19c3.99-5.37,7.62-11.74,13-15.94,6.24-4.88,15.65-4.66,21.84.03,2.2,1.66,4.82,2.91,6.1,4.71h0Z"/>
  <path class="uuid-c4146eea-7363-44da-83a6-9169d0f6519c" d="M227.15,180.96c-.88,3.35-5.68,8.29-9.26,6.2-3.28-4.81-3.91-7.95-7.72-14.85-.14-.25,4.24-7.56,6.77-8.17,3.16,5.73,6.61,11.34,10.21,16.83h0Z"/>
  <path class="uuid-c3ea18ac-487d-4c6c-b26f-270d838afd62" d="M584.48,310.9h-21.05c.04-5.5,5.23-9.47,10.12-9.78,5.89-.37,10.3,3.53,10.93,9.78Z"/>
  <path class="uuid-c3ea18ac-487d-4c6c-b26f-270d838afd62" d="M228.48,310.9h-21.05c.03-5.5,5.23-9.47,10.12-9.78,5.89-.37,10.3,3.53,10.93,9.78h0Z"/>
  <path class="uuid-719df5d1-d51c-4b20-a2a9-1d03544a122b" d="M443,313.49c.27,8.33-6.25,14.83-13.94,13.56-6.45-1.07-10.16-6.91-10.34-12.55-.2-6.19,3.55-12.36,10.35-13.54,7.23-1.25,13.68,4.7,13.94,12.53h-.01Z"/>
</svg>