<?xml version="1.0" encoding="UTF-8"?>
<svg id="uuid-234361a8-226f-4070-b041-da3890d26e87" data-name="Capa 1" xmlns="http://www.w3.org/2000/svg" viewBox="0 0 512 512">
  <defs>
    <style>
      .uuid-2021f35c-706c-43ef-9dc4-1246476b14a2 {
        fill: #19202c;
      }

      .uuid-e9907992-0d70-4c6b-bffc-07deffa53560 {
        fill: #141e2f;
      }

      .uuid-cd5c4abb-3825-4532-85c0-b4a99c0d433d {
        fill: #1b222c;
      }

      .uuid-4fe88e1d-0f58-4928-b865-01b70ef7e5ce {
        fill: #1a222e;
      }

      .uuid-2c9be10a-2791-4984-9e64-463cebb0394c {
        fill: #fefefe;
      }

      .uuid-04c022ff-f438-49ee-8208-23d99bd24291 {
        fill: #14212d;
      }

      .uuid-a122d1cd-d3f1-4ded-ba89-9f271d8abf10 {
        fill: #12202d;
      }
    </style>
  </defs>
  <path class="uuid-e9907992-0d70-4c6b-bffc-07deffa53560" d="M411.83,88.74l1.71,3.87.12,12.88c2.33.04,4.62-.31,6.9-1.04,1.36,2.98,2.5,5.97,3.43,8.95,1.7.5,3.09,1.78,4.16,3.82,10.71,20.4,15.52,40.47,21,63.51,8.04,33.76,12.68,67.38,16.63,101.72,3.9,26.04,1.72,67.64-10.36,91.31l-3.12,6.11c-1.4,2.75-2.49,5.88-4.23,8.49-9.31,13.98-22.12,24.51-36.75,32.89-19.33,11.06-39.63,19.23-61.35,24.18l-51.45,11.73c-25.98,5.92-51.96,9-78.69,11.15-17.81,1.44-34.54.4-51.86-1.12-4.05-.36-7.59-1.06-11.62-1.95-27.16-6.01-49.02-21.71-64.55-44.67-7.26-10.73-11.74-22.64-17.32-34.46l-3.82-8.09c-6.82-14.44-9.34-29.94-12.99-45.76-7.38-32-12.65-63.87-15.92-96.58-.87-8.66-1.77-9.39-2.2-18.64s-.54-18.17.13-27.28c1.88-25.56,5.89-44.2,19.29-66.6,8.71-14.56,22.42-25.25,37.08-34.02,11.75-7.03,23.94-11.89,36.36-16.47,3.94-.08,7.3-1.19,10.08-3.31l.91-.11c3.64-.54,5.92-1.3,6.83-2.29,19.99-6.39,40.51-9.75,61.39-14.46,28.95-6.54,58.09-9.63,87.84-10.86,11.7-.48,40.43,1.54,51.15,4.28,23.1,5.89,43.21,18.34,57.75,37.24,1.42,1.85,2.46,3.96,3.49,5.61Z"/>
  <path class="uuid-04c022ff-f438-49ee-8208-23d99bd24291" d="M424.49,109.74c.07,1.45.66,2.54,1.76,3.26.19,1.29,1.29,3.07,1.89,4.22-6.63-6.38-5.07-.39-8.05-11.69-2.21,1.93-4.94,2.02-8.11,1.38l-.16-18.17c6.13,5.63,9.41,13.39,12.66,21Z"/>
  <path class="uuid-2021f35c-706c-43ef-9dc4-1246476b14a2" d="M142.48,69.35c-.41,1.48-1.02,2.84-1.99,3.85l-8.09-.53c3.27-1.21,6.51-2.86,10.08-3.31Z"/>
  <path class="uuid-2021f35c-706c-43ef-9dc4-1246476b14a2" d="M150.22,66.95l.3.66c.78,1.74-7.38,1.66-7.13,1.63,1.81-1.64,4.55-1.56,6.83-2.29Z"/>
  <path class="uuid-cd5c4abb-3825-4532-85c0-b4a99c0d433d" d="M426.26,113c-.47-.05-1.82.57-2.36-.41-.47-.86.85-2.04.6-2.85.48,1.13,1.54,1.74,1.76,3.26Z"/>
  <path class="uuid-2c9be10a-2791-4984-9e64-463cebb0394c" d="M200.47,320.41c1.7-.68,3.83.31,5.04,1.73.68.18,1.69,1.07,2.44.84,2.38.55,4.59,1.6,6.62,3.16,25.6,14.3,59.11,16.14,84.76.23,9.41-5.83,12.98-15.9,10.33-25.97-1.59-6.04-4.93-9.92-10.77-12.41-9.31-3.98-19.23-6.19-29.6-7.13l-37.03-3.36c-15.32-1.39-29.78-6.42-43.16-13.73-16.85-9.21-27.08-24.26-32.08-42.69-2.62-9.64-1.87-19.9.75-30.08,5.67-22.1,20.43-39.24,40.4-50.32,18.95-10.52,40.33-13.98,62.42-13.86,18.92.1,37.81,6.42,54.11,16.2,12.13,7.28,14.33,23.37,7.01,34.26-7.41,11.04-21.7,14.38-33.68,7.79-21.69-11.92-47.33-12.19-68.69.43-7.06,4.17-11.68,11-13.34,18.68-1.6,7.46,1.57,13.49,8.27,16.95,8.43,4.35,17.65,6.85,27.4,7.72l36.28,3.24c14.02,1.25,27.54,5.08,40.62,10.57,21.5,9.02,36.24,27.51,39.98,50.52.45,2.75,1.53,5.35,1.83,8.09,2.03,18.2-4.08,35.82-15.82,49.8-8.76,10.42-19.38,17.83-31.76,23.82-20.16,9.76-42.61,12.79-64.86,11.64-2.95-.15-5.35.33-8.45-.19-20.13-3.32-39.28-9.85-56.95-20.23-8.2-4.82-12.43-13.97-11.53-23.26,1.32-13.58,16.6-24.59,29.48-22.42Z"/>
  <path class="uuid-a122d1cd-d3f1-4ded-ba89-9f271d8abf10" d="M281.76,55.04l-16.56.05-.23-4.93c-1.96-.46-3.85-.08-5.32-1.72,2.5-2.8,8.01.75,13.95-2.19,1.98,2.51,4.61,1.91,7.37,2.43,1.45.65,1.02,3.81.78,6.36Z"/>
  <path class="uuid-4fe88e1d-0f58-4928-b865-01b70ef7e5ce" d="M214.57,326.14c-2.35-.58-4.77-1.59-6.62-3.16,3.45-1.07,5.17,1.75,6.62,3.16Z"/>
  <path class="uuid-4fe88e1d-0f58-4928-b865-01b70ef7e5ce" d="M205.51,322.14c-1.72-.45-3.39-1.06-5.04-1.73-1.23-2.88,4.68.41,4.08-.33.55.68.69,1.42.96,2.06Z"/>
</svg>