<?xml version="1.0" encoding="utf-8"?>
<!-- Generator: Adobe Illustrator 30.1.0, SVG Export Plug-In . SVG Version: 9.03 Build 0)  -->
<svg version="1.0" id="Capa_1" xmlns="http://www.w3.org/2000/svg" xmlns:xlink="http://www.w3.org/1999/xlink" x="0px" y="0px"
	 viewBox="0 0 530.28 594.48" style="enable-background:new 0 0 530.28 594.48;" xml:space="preserve">
<style type="text/css">
	.st0{clip-path:url(#SVGID_00000005970612291002780750000008468068114530441359_);}
	.st1{fill:#95BF46;}
	.st2{clip-path:url(#SVGID_00000058583933858289282920000015678217467914959032_);}
	.st3{fill:#5E8E3E;}
	.st4{fill:#FFFFFF;}
</style>
<g>
	<defs>
		<rect id="SVGID_1_" x="9.79" y="9.66" width="508.74" height="577.33"/>
	</defs>
	<clipPath id="SVGID_00000090279149942837278130000010429496813147519402_">
		<use xlink:href="#SVGID_1_"  style="overflow:visible;"/>
	</clipPath>
	<g style="clip-path:url(#SVGID_00000090279149942837278130000010429496813147519402_);">
		<path class="st1" d="M454.49,122.56c-0.4-2.9-2.94-4.5-5.04-4.68c-2.09-0.18-46.47-3.46-46.47-3.46s-30.82-30.55-34.2-33.93
			c-3.39-3.38-9.99-2.35-12.56-1.6c-0.38,0.11-6.73,2.07-17.24,5.32c-10.29-29.58-28.46-56.77-60.42-56.77
			c-0.89,0-1.79,0.04-2.7,0.09c-9.09-12.01-20.35-17.22-30.08-17.22c-74.45,0-110.03,92.95-121.18,140.18
			c-28.93,8.95-49.48,15.32-52.11,16.14c-16.15,5.06-16.66,5.56-18.78,20.76C52.12,198.9,9.86,525.22,9.86,525.22l329.26,61.6
			l178.4-38.54C517.51,548.28,454.89,125.46,454.49,122.56L454.49,122.56z M320.78,89.83l-27.86,8.61c0.01-1.96,0.02-3.89,0.02-5.99
			c0-18.39-2.56-33.19-6.66-44.93C302.75,49.59,313.72,68.3,320.78,89.83z M265.86,51.17c4.58,11.46,7.55,27.9,7.55,50.09
			c0,1.14-0.01,2.17-0.02,3.22c-18.12,5.6-37.81,11.69-57.54,17.79C226.93,79.57,247.7,58.95,265.86,51.17z M243.74,30.25
			c3.21,0,6.45,1.09,9.55,3.22c-23.86,11.21-49.44,39.45-60.24,95.85l-45.48,14.07C160.22,100.37,190.25,30.25,243.74,30.25
			L243.74,30.25z"/>
	</g>
</g>
<g>
	<defs>
		<rect id="SVGID_00000097469245176459053930000012680445448091379862_" x="338.58" y="77.66" width="179.95" height="509.33"/>
	</defs>
	<clipPath id="SVGID_00000059994765642140601070000016799063369388466093_">
		<use xlink:href="#SVGID_00000097469245176459053930000012680445448091379862_"  style="overflow:visible;"/>
	</clipPath>
	<g style="clip-path:url(#SVGID_00000059994765642140601070000016799063369388466093_);">
		<path class="st3" d="M449.45,117.88c-2.09-0.18-46.47-3.46-46.47-3.46s-30.82-30.55-34.2-33.93c-1.27-1.26-2.97-1.91-4.76-2.18
			l-24.89,508.51l178.38-38.54c0,0-62.63-422.82-63.02-425.72C454.1,119.67,451.56,118.06,449.45,117.88"/>
	</g>
</g>
<path class="st4" d="M278.56,216.32l-22,65.34c0,0-19.27-10.27-42.9-10.27c-34.64,0-36.38,21.7-36.38,27.17
	c0,29.84,77.91,41.28,77.91,111.18c0,55-34.93,90.41-82.03,90.41c-56.52,0-85.42-35.12-85.42-35.12l15.14-49.93
	c0,0,29.71,25.47,54.78,25.47c16.38,0,23.05-12.88,23.05-22.29c0-38.93-63.91-40.67-63.91-104.64c0-53.84,38.7-105.94,116.81-105.94
	C263.69,207.71,278.56,216.32,278.56,216.32"/>
</svg>
