<?xml version="1.0" encoding="UTF-8"?>
<svg id="uuid-74d211a3-c9c3-48dd-a825-b5eede81514b" xmlns="http://www.w3.org/2000/svg" version="1.1" viewBox="0 0 2095.24 2160">
  <!-- Generator: Adobe Illustrator 30.1.0, SVG Export Plug-In . SVG Version: 2.1.1 Build 136)  -->
  <defs>
    <style>
      .st0 {
        fill: #863efe;
      }

      .st1 {
        fill: #fff;
      }

      .st2 {
        fill: #fefefe;
      }
    </style>
  </defs>
  <path class="st0" d="M1580.33,182c125.1,75.8,229.3,178.3,313.2,299.6,50.5,73,98.4,152.5,122.7,238.3v2c8.4,19.2,14.5,39.7,20,60,0,.7,0,1.3.1,2l3.9,12c0,.6,0,1.4.1,2,6.8,20.8,11.7,42.4,15.9,64v2c1.4,2.3,2,4.9,2,8v2c1.3,2.3,2,4.9,2,8v2c.1,0,6,34,6,34v2c1.4,3,2,6.3,1.9,10,.5,1,0,2.8.3,4,1,3.7,1.6,7.7,1.8,12,0,.7,0,1.4.1,2,1.2,4.3,1.8,9,1.8,14,.6.9,0,2.9.3,4,1.1,5,1.6,10.4,1.7,16,0,2,0,4,.3,6,1.1,5.8,1.6,11.8,1.7,18,0,2.7,0,5.3.3,8,1.1,10.5,1.6,21.2,1.6,32v68c0,10.8-.5,21.5-1.6,32-.3,2.7-.3,5.3-.4,8,0,6.1-.6,12.1-1.6,18-.4,2-.2,4-.3,6,0,5.5-.7,10.8-1.7,16-.2,1.1.3,3.1-.3,4,0,5-.6,9.6-1.8,14,0,.7,0,1.3-.1,2-.1,5-.8,9.7-1.9,14-.1.6-.1,1.4-.1,2-.1,4.4-.8,8.4-1.9,12-.1.6.2,1.5-.1,2,0,3.7-.7,7-1.9,10,0,.6.1,1.5-.1,2,0,3.7-.7,7-1.9,10,0,.7-.2,1.3-.1,2-1.8,12.9-4.4,25.5-7.9,38-.1.6-.2,1.4-.1,2l-3.9,16c0,.6-.2,1.4-.1,2l-1.9,6c0,.6-.2,1.4-.1,2l-1.9,6c0,.6-.2,1.4-.1,2l-1.9,6c0,.6-.2,1.4-.1,2l-1.9,6c0,.7-.2,1.3-.1,2l-3.9,12c-.1.6-.1,1.4-.1,2l-3.9,12c-.1.6-.2,1.4-.1,2l-9.9,30c-.1.6,0,1.3-.1,2-3.4,10.9-7.4,21.6-11.9,32-.2.6,0,1.4-.1,2-13.1,33.8-27.2,67.8-43.9,100l-.2,2c-14.8,42.5-41.2,82.6-66.3,120-46.9,70-108.8,136.2-171.6,192.5-47,42.2-96.6,82.2-151.7,113.4l-60.7,35.4c-34.9,20.6-71.3,36.7-109.3,48.2h-2c-20.1,8.9-40.8,16.2-62,22h-2c0,.1-12,4-12,4-.6,0-1.4,0-2,.1l-12,3.9c-.6,0-1.4,0-2,.1-27.9,8.5-57.1,15-86,19.9-.7,0-1.3,0-2,.1-7.2,2.1-14.5,3.4-22,3.9-.7,0-1.3.1-2,.1-3,1.2-6.3,1.8-10,1.8-1,.5-2.8,0-4,.3-3.7,1-7.7,1.6-12,1.8-.7,0-1.4,0-2,.1-4.3,1.2-9,1.8-14,1.8-.9.6-2.9.2-4,.3-5.1,1.1-10.5,1.7-16,1.7-.9.6-2.9,0-4,.3-6.5,1-13.1,1.6-20,1.7-2-.2-4,0-6,.3-10.5,1.1-21.2,1.6-32,1.6h-66c-10.2,0-20.2-.5-30-1.6-2.7-.4-5.3-.4-8-.4-6.1,0-12.1-.5-18-1.6-2-.4-4-.2-6-.3-5.6,0-10.9-.7-16-1.7-1.3-.2-2.7-.3-4-.3-4.3-.1-8.3-.7-12-1.7-1.3-.2-2.7-.3-4-.3-4.4,0-8.4-.7-12-1.8-.6-.1-1.4-.1-2-.1-4.4-.1-8.4-.8-12-1.9-.6-.1-1.5.2-2-.1-3.7,0-7-.7-10-1.9-.7,0-1.3-.2-2-.1l-20-3.9h-2c-3-.2-5.7-.8-8-2h-2c-3-.2-5.7-.8-8-2h-2c0-.1-24-6-24-6h-2c0-.1-6-2-6-2h-2c0-.1-6-2-6-2h-2c0-.1-6-2-6-2-.7,0-1.3-.2-2-.1l-12-3.9c-.6-.1-1.4-.2-2-.1l-12-3.9h-2c-36-8.5-70.7-22.2-104-38-.6-.2-1.4,0-2-.2l-38-17.8-2-.2-36-17.5-24-14.3-2-.2c-36.6-16.8-69.6-40.9-101.7-65-85.3-63.9-162.4-139-226.1-225.4-51.9-70.4-94.9-147.7-127.8-229.1-.2-.6.1-1.4-.1-2-3.3-5.6-6-11.6-7.9-18,0-.6,0-1.4-.1-2-9-20-15.7-41-21.9-62v-2c-.1,0-6-18-6-18,0-.6,0-1.4-.1-2-2.5-6.5-4.5-13.1-5.9-20v-2c-.1,0-2-6-2-6,0-.6,0-1.4-.1-2l-1.9-6c0-.6,0-1.4-.1-2l-1.9-6c0-.6,0-1.4-.1-2l-1.9-6c0-.6,0-1.4-.1-2l-3.9-16v-2c-1.4-2.3-2-4.9-2-8v-2c-1.3-2.3-2-4.9-2-8v-2c-1.3-2.3-2-4.9-2-8v-2c-1.3-3-2-6.3-2-10-.2-.5-.1-1.4-.1-2-1.2-3-1.8-6.4-1.9-10-.3-.5,0-1.4-.1-2-1.1-3.6-1.7-7.6-1.9-12,0-.6,0-1.4-.1-2-1.1-3.7-1.7-7.7-1.9-12,0-.7,0-1.4-.1-2-1.2-4.3-1.8-9-1.8-14-.6-.9-.2-2.9-.3-4-1.1-4.5-1.6-9.1-1.7-14-.6-.9,0-2.9-.3-4-1-5.8-1.6-11.8-1.7-18,0-2,0-4-.3-6-1-7.1-1.6-14.5-1.6-22,.6-4.1-.4-8-.4-12-1.8-30-1.8-62,0-92,0-4,1-7.9.4-12,0-7.5.6-14.8,1.6-22,.3-2,.2-4,.3-6,0-6.1.6-12.1,1.7-18,.2-1.1-.3-3.1.3-4,0-4.9.6-9.6,1.7-14,.1-1.1-.3-3.1.3-4,0-5,.6-9.7,1.8-14,0-.6.1-1.3.1-2,.1-4.4.8-8.4,1.9-12,.1-.6.2-1.4.1-2,1.1-11.5,3.1-22.8,5.9-34,0-.6.2-1.4.1-2,1.8-12.9,4.4-25.5,7.9-38,.1-.6.1-1.3.1-2,3-15.6,7-30.9,11.9-46,.1-.6.2-1.4.1-2l1.9-6c0-.6,0-1.4.1-2,62.6-225.7,202-426.8,389.8-563.7C781.33-16.1,1222.93-34.7,1580.23,181.9l.1.1Z"/>
  <path class="st2" d="M14.73,1126c-.8.3-2.1-.6-2.1-2.1v-87.7c0-1.5,1.3-2.4,2.1-2.1v92-.1Z"/>
  <path class="st2" d="M1578.63,1980c55.1-35.8,108.1-73.7,157-119,102.1-94.5,168.3-185.6,232.5-307-6.8,86.4-90.2,163.5-154.2,230.9l-17.7,18.7c-45.6,48.1-152.7,144.9-206.6,171.1l-11,5.3Z"/>
  <path class="st2" d="M53.03,792c40.6-155.1,121.9-298.5,228.1-419,9-10.2,18.6-17.6,26.3-28s20.9-20.2,31.4-30.8c32.3-32.5,67.8-60,103.9-86.1-28.2,23.5-57.8,44.7-85.3,70.7s-47.3,45.4-69.7,70c-111.4,122-188.4,266.1-234.8,423.1l.1.1Z"/>
  <path class="st1" d="M1110.63,2127.8c4.6,4-31.3,1.6-32,1.6,10.1-3.6,21.3-.3,32-1.6Z"/>
  <path class="st2" d="M2076.53,1146c1.4-10.7-2-21.9,1.6-32,0,.7,2.4,36.5-1.6,32Z"/>
  <path class="st2" d="M2078.13,1046c-3.7-10.1-.2-21.3-1.6-32,4-4.6,1.6,31.3,1.6,32Z"/>
  <path class="st1" d="M1012.63,2129.5c-.7,0-34.2,2.4-30-1.6,10,1.3,20.5-2,30,1.6Z"/>
  <path class="st2" d="M546.63,1999.5c-39-3.1-208.5-150.4-253.1-198.6-69.3-74.8-127-158.2-171.6-249.9-11.8-24.2-23.6-46.5-30.9-71,23.5,52.7,47.9,104.7,78.8,154.8,46.5,75.3,108,153.3,172.7,213.1l25.1,23.2c54.6,50.5,115.9,90.7,178.9,128.4h.1Z"/>
  <path class="st2" d="M2016.23,720c-51-136.2-125.5-260.8-226.5-367-67.3-70.7-128.8-118.6-209.4-171,56.4,34.2,110.2,72.8,159.3,119,95.5,89.9,270.2,322.2,276.6,418.9v.1Z"/>
  <path class="st2" d="M15.13,1022c-.2-1-2.2-24.7,1.6-22-1.2,7.3,1.9,15.3-1.6,22Z"/>
  <path class="st2" d="M16.73,1160c-3.8,2.7-1.8-21-1.6-22,3.6,6.7.4,14.7,1.6,22Z"/>
  <path class="st1" d="M1136.63,2125.9c2.4,3.8-18.6,1.8-20,1.7,6-3.7,13.4-.4,20-1.7Z"/>
  <path class="st2" d="M2074.53,1172c1.1-6-1.9-12.7,1.6-18,0,5.9,2.9,13.6-1.6,18Z"/>
  <path class="st1" d="M974.63,2127.5c-5.9,0-13.6,3-18-1.6,6,1.1,12.6-1.8,18,1.6Z"/>
  <path class="st2" d="M18.73,1184c-4.7-4.4-1.4-12.1-1.7-18,3.6,5.3.5,12,1.7,18Z"/>
  <path class="st2" d="M2076.13,1006c-3.5-5.3-.5-12-1.7-18,4.6,4.3,1.6,12.1,1.7,18Z"/>
  <path class="st2" d="M17.13,994c.3-5.9-3.1-13.7,1.7-18-1.2,6,1.9,12.7-1.7,18Z"/>
  <path class="st1" d="M1156.63,2123.8c-3.6,4.7-10.7,1.5-16,1.7,4.7-3.1,10.6-1,16-1.7Z"/>
  <path class="st2" d="M2072.53,1194c1.1-5.3-1.8-11.4,1.7-16-.2,5.3,2.9,12.4-1.7,16Z"/>
  <path class="st1" d="M950.63,2125.5c-5.3-.2-12.4,2.9-16-1.7,5.3,1,11.4-1.7,16,1.7Z"/>
  <path class="st2" d="M2074.13,982c-3.4-4.6-.6-10.7-1.7-16,4.7,3.6,1.5,10.7,1.7,16Z"/>
  <path class="st1" d="M1174.63,2121.7c-2.7,4.7-9.4,1.7-14,1.8,4.1-2.7,9.3-1.2,14-1.8Z"/>
  <path class="st2" d="M2068.33,1228c1.1-4.6-1.5-10.1,1.9-14-.3,4.6,2.8,11.3-1.9,14Z"/>
  <path class="st2" d="M22.93,1220c-4.7-2.7-1.7-9.4-1.8-14,2.7,4.1,1.2,9.3,1.8,14Z"/>
  <path class="st2" d="M2070.33,1212c.6-4.7-.9-9.9,1.8-14-.2,4.6,2.9,11.3-1.8,14Z"/>
  <path class="st2" d="M20.73,1202c-4.4-2.9-1.6-9.4-1.7-14,2.8,4.1,1.2,9.3,1.7,14Z"/>
  <path class="st2" d="M19.13,972c.1-4.6-2.8-11.1,1.7-14-.5,4.7,1.1,9.9-1.7,14Z"/>
  <path class="st2" d="M2072.13,962c-2.7-4.1-1.2-9.3-1.8-14,4.7,2.7,1.7,9.4,1.8,14Z"/>
  <path class="st2" d="M21.13,954c.1-4.6-2.9-11.3,1.8-14-.6,4.7.9,9.8-1.8,14Z"/>
  <path class="st2" d="M2066.23,918c-3.1-10.9-5.1-22.5-5.9-34,4.7,10.1,5.2,22.8,5.9,34Z"/>
  <path class="st2" d="M25.03,924c-.7-4.8,2.7-33.8,5.9-34-1.4,11.4-2.8,23-5.9,34Z"/>
  <path class="st2" d="M23.03,938c0-4-2.6-10,1.9-12-.9,3.9,1.3,9.1-1.9,12Z"/>
  <path class="st2" d="M2070.23,946c-3.2-2.9-1-8.1-1.8-12,4.2,2.2,1.7,8,1.8,12Z"/>
  <path class="st2" d="M1968.33,1552l43.9-100c-11.6,34.4-25.1,69.1-43.9,100Z"/>
  <path class="st1" d="M900.63,2119.6c-4,0-10.1,2.6-12-1.9,3.9.9,9.1-1.3,12,1.9Z"/>
  <path class="st1" d="M648.63,2049.5c-10.2-1.6-19.3-7.6-29.4-12.1s-8-1.7-8.6-5.7c13,1,26,10.7,38,17.8Z"/>
  <path class="st1" d="M1578.63,1980c-52.4,34.1-109.7,79.5-170,83.6,58.7-23.9,113.1-56,170-83.6h0Z"/>
  <path class="st1" d="M1226.63,2113.7c-6,4.3-14.7,4.4-22,3.9,6.9-2.6,14.7-3,22-3.9Z"/>
  <path class="st1" d="M930.63,2123.5c-4,0-9.8,2.6-12-1.7,4,.7,9-1.3,12,1.7Z"/>
  <path class="st1" d="M1188.63,2119.8c-2.2,4.2-8,1.7-12,1.8,2.9-3.2,8.1-1,12-1.8Z"/>
  <path class="st2" d="M2066.33,1242c.9-3.9-1.3-9.1,1.9-12,0,4,2.5,10-1.9,12Z"/>
  <path class="st2" d="M24.93,1234c-4.4-2-1.8-8-1.9-12,3.2,2.9,1,8.1,1.9,12Z"/>
  <path class="st2" d="M26.93,1248c-4.4-2-1.8-8-1.9-12,3.2,2.9,1,8.1,1.9,12Z"/>
  <path class="st1" d="M914.63,2121.5c-4,0-10,2.7-12-1.8,3.9.8,9-1.2,12,1.8Z"/>
  <path class="st2" d="M2054.33,1306c2.3-12.7,4.1-25.7,7.9-38,.5,5.3-4.3,36.4-7.9,38Z"/>
  <path class="st2" d="M30.93,1272c-4.1-1.3-2-6.7-1.9-10,2.1,2.9,1.6,6.6,1.9,10Z"/>
  <path class="st2" d="M2062.33,1266c0-3.4-.2-7.1,1.9-10,.2,3.3,2.2,8.7-1.9,10Z"/>
  <path class="st2" d="M28.93,1260c-4.1-1.3-2-6.7-1.9-10,2.1,2.9,1.8,6.6,1.9,10Z"/>
  <path class="st2" d="M2064.33,1254c.1-3.4-.3-7.1,1.9-10,.2,3.3,2.2,8.7-1.9,10Z"/>
  <path class="st1" d="M1314.63,2093.7c-1.4,2.7-4.8,3.2-8.4,4-26.4,5.8-51.6,14.4-77.6,15.9l86-19.9Z"/>
  <path class="st2" d="M31.03,888c-.5-5.3,4.3-36.4,7.9-38-2.3,12.7-4.1,25.7-7.9,38Z"/>
  <path class="st1" d="M874.63,2115.6c-6.6.4-14.7.3-20-3.9,6.7.5,14,1,20,3.9Z"/>
  <path class="st2" d="M2056.23,862l-15.9-64c3,1.8,3.6,6,4.4,10,3.7,18.7,10.3,36,11.5,54Z"/>
  <path class="st1" d="M1202.63,2117.7c-1.3,4.1-6.7,2-10,1.8,3-1.9,6.5-1.8,10-1.8Z"/>
  <path class="st2" d="M2068.13,930c-1.9-3-1.6-6.5-1.8-10,4.1,1.3,2,6.7,1.8,10Z"/>
  <path class="st1" d="M886.63,2117.6c-3.3.2-8.7,2.2-10-1.9,3.4,0,7.1-.2,10,1.9Z"/>
  <path class="st2" d="M54.93,1374c-4.7-5.1-5.4-13.2-5.9-20,3.8,5.8,4.1,13.3,5.9,20Z"/>
  <path class="st2" d="M2050.33,1324c.8-5.4.9-11.4,3.9-16,.2,5.4.2,12.1-3.9,16Z"/>
  <path class="st2" d="M40.93,1320c-4.1-3.9-3.5-10.6-3.9-16,3,4.6,3,10.6,3.9,16Z"/>
  <path class="st2" d="M36.93,1302c-3.6-.7-2.2-5.3-1.9-8,1.8,2.3,1.7,5.2,1.9,8Z"/>
  <path class="st2" d="M34.93,1292c-3.6-.7-2.2-5.3-1.9-8,1.8,2.3,1.7,5.2,1.9,8Z"/>
  <path class="st2" d="M32.93,1282c-3.6-.7-2.2-5.3-1.9-8,1.8,2.3,1.7,5.2,1.9,8Z"/>
  <path class="st2" d="M572.63,2014c-3.5-1.2-24.9-11.1-24-14.3,8.6.7,16.9,8.2,24,14.3Z"/>
  <path class="st1" d="M832.63,2107.6c-8-.5-17.3-1.6-24-5.9,8.1.6,16.5,2.6,24,5.9Z"/>
  <path class="st1" d="M842.63,2109.6c-2.7.3-7.3,1.7-8-1.9,2.8.2,5.7.1,8,1.9Z"/>
  <path class="st1" d="M852.63,2111.6c-2.7.3-7.3,1.7-8-1.9,2.8.2,5.7,0,8,1.9Z"/>
  <path class="st2" d="M2060.23,882c-1.8-2.3-1.7-5.2-1.9-8,3.6.7,2.2,5.3,1.9,8Z"/>
  <path class="st2" d="M2058.23,872c-1.8-2.3-1.7-5.2-1.9-8,3.6.7,2.2,5.3,1.9,8Z"/>
  <path class="st2" d="M39.03,848c0-6,7.7-43.2,11.9-46-3.8,15.4-6.8,31-11.9,46Z"/>
  <path class="st2" d="M2036.23,782l-19.9-60c3.2,1.5,4,5.4,5.1,9.2,5.1,17.5,12.6,33.6,14.8,50.8h0Z"/>
  <path class="st1" d="M806.63,2101.6c-2.1.4-5.8,1.2-6-1.9,2.1.1,4.8-.2,6,1.9Z"/>
  <path class="st1" d="M798.63,2099.6c-2.1.4-5.8,1.2-6-1.9,2.1.1,4.8-.2,6,1.9Z"/>
  <path class="st1" d="M790.63,2097.6c-2.1.4-5.8,1.2-6-1.9,2.1.1,4.8-.2,6,1.9Z"/>
  <path class="st1" d="M782.63,2095.6c-4.3.2-9.4,0-12-3.9,4.1.8,8.7,1,12,3.9Z"/>
  <path class="st1" d="M1328.63,2089.7c-2.6,3.8-7.7,4.1-12,3.9,3.3-2.9,7.9-3,12-3.9Z"/>
  <path class="st1" d="M768.63,2091.6c-4.3.2-9.4,0-12-3.9,4.2.3,8.7,1,12,3.9Z"/>
  <path class="st1" d="M1342.63,2085.7c-2.6,3.8-7.7,4.1-12,3.9,3.3-2.9,7.8-3.6,12-3.9Z"/>
  <path class="st1" d="M754.63,2087.6c-35.5-2.4-69-22.2-103.2-35.6-.1-1.5-.4-2.1-.8-2.3,34,14.6,69.4,25.2,104,37.9h0Z"/>
  <path class="st1" d="M1406.63,2063.7c-4.4,5.8-55.5,21.4-62,21.9l62-21.9Z"/>
  <path class="st2" d="M90.93,1478c-5.2-4.3-6.9-11.5-7.9-18,4.1,5.2,5.2,12,7.9,18Z"/>
  <path class="st2" d="M82.93,1458c-5.6-5.3-21.4-54.7-21.9-62l21.9,62Z"/>
  <path class="st2" d="M2012.33,1450c4.2-10.6,5.8-22.4,11.9-32-.3,2.2-8.5,33.1-11.9,32Z"/>
  <path class="st2" d="M2024.33,1416c2.3-10.2,5.6-20.5,9.9-30,.4,4.2-7,28.7-9.9,30Z"/>
  <path class="st2" d="M60.93,1394c-4.2-4.6-5.8-11.8-5.9-18,3.3,5.4,5.5,11.8,5.9,18Z"/>
  <path class="st2" d="M2034.33,1384c.8-4.1,1-8.7,3.9-12,.2,4.3,0,9.4-3.9,12Z"/>
  <path class="st2" d="M2038.33,1370c.8-4.1,1-8.7,3.9-12,.2,4.3,0,9.4-3.9,12Z"/>
  <path class="st2" d="M2042.33,1356c.1-2.1-.2-4.8,1.9-6,.3,2.1,1.2,5.8-1.9,6Z"/>
  <path class="st2" d="M48.93,1352c-3-.2-2.2-3.9-1.9-6,2.1,1.2,1.7,3.9,1.9,6Z"/>
  <path class="st2" d="M2040.23,796c-2.9-3.3-3.1-7.9-3.9-12,3.8,2.6,4.1,7.7,3.9,12Z"/>
  <path class="st2" d="M51.03,800c-.3-2.1-1.2-5.8,1.9-6-.2,2.1.2,4.8-1.9,6Z"/>
  <path class="st2" d="M2044.33,1348c.1-2.1-.2-4.8,1.9-6,.3,2.1,1.1,5.8-1.9,6Z"/>
  <path class="st2" d="M46.93,1344c-3-.2-2.2-3.9-1.9-6,2.1,1.2,1.8,3.9,1.9,6Z"/>
  <path class="st2" d="M2046.33,1340c.1-2.1-.2-4.8,1.9-6,.3,2.1,1.1,5.8-1.9,6Z"/>
  <path class="st2" d="M44.93,1336c-3-.2-2.2-3.9-1.9-6,2.1,1.2,1.7,3.9,1.9,6Z"/>
  <path class="st2" d="M2048.33,1332c.1-2.1-.2-4.8,1.9-6,.3,2.1,1.2,5.8-1.9,6Z"/>
  <path class="st2" d="M42.93,1328c-3-.2-2.2-3.9-1.9-6,2.1,1.2,1.7,3.9,1.9,6Z"/>
  <path class="st1" d="M608.63,2031.5c-5.7-.4-31.9-14-36-17.5,12.6,4.1,24.3,11.2,36,17.5Z"/>
  <path class="st1" d="M1502.73,1388.7c-17.6,29.9-36.4,56-58.7,80.6-48.1,53.2-104.6,64.7-173.5,65.4-89.9.9-167.9-37.2-199.9-124.4-9.3-26.3-13.3-52.1-13.4-80.4l-.7-217.4-143.5,269.7c-16.2,30.5-34.6,57.6-57.4,83-50.7,54.6-106.1,69-179,69.4-128.5.7-213.6-77.5-213.7-209.1v-458.2c-.1,0-105.4-.5-105.4-.5-20.4,0-39.6-4.2-58.4-11.5-59-23.2-76.8-87.6-63.8-144.8,13.4-59.3,69-84,125.5-84h257.6c58.2,0,115.8,20.5,137.1,78.7,7.7,22.4,12.8,44.3,12.8,69.1l.7,378.7,209.9-412.4c11.2-21.9,23.6-40.9,38.9-59.7,23.2-28.1,54.1-45.9,90.4-51.3,73.8-11.1,151.8-.7,181.1,77.9,8.7,24.2,12.8,48,12.9,74.8l.6,370.3,220.1-418c11-20.8,23.8-38.1,39.1-55.4,25.4-27.4,58-44.8,95.4-50.1s110.3-3.5,153.9,21.8c65.6,38.1,56.7,116.5,23.4,173.2l-332,564.4v.2Z"/>
</svg>