<?xml version="1.0" encoding="UTF-8"?>
<svg id="uuid-ebf93fa8-6ffa-4032-b33b-30a4d81f0ce3" data-name="Capa 1" xmlns="http://www.w3.org/2000/svg" viewBox="0 0 850 400">
  <defs>
    <style>
      .uuid-d64d1c7a-1504-4999-9ae1-81400ff852c8 {
        fill: #f2f2f2;
      }
    </style>
  </defs>
  <polygon class="uuid-d64d1c7a-1504-4999-9ae1-81400ff852c8" points="116.7 49.4 116.7 71.1 57.5 71.1 57.5 111.3 104.8 111.3 104.8 133 57.5 133 57.5 190 28.7 190 28.7 49.4 116.7 49.4"/>
  <path class="uuid-d64d1c7a-1504-4999-9ae1-81400ff852c8" d="M343.3,190h-27.1v-67.8c0-1-3.9-8.6-5.1-10.1-9-11.3-28.1-5.2-37.3,3.4v74.5h-27.1v-102.1l23.7.7,2.4,12.6c14.6-15.6,47.8-23.2,62.7-5,14.9,18.2,7.6,12.6,7.6,16v77.8h.2Z"/>
  <path class="uuid-d64d1c7a-1504-4999-9ae1-81400ff852c8" d="M228.4,144.7h-72.7c.5,36.8,39,33.6,63.2,20l7.6,15c-34.4,21.9-92.2,17.1-97.8-30.9-9.8-83.7,107.8-85.7,99.6-4ZM202.9,131.3c0-41-48.1-40.4-47.3,0h47.3Z"/>
  <polygon class="uuid-d64d1c7a-1504-4999-9ae1-81400ff852c8" points="79.4 367.3 124.3 245.1 137 243.6 83.8 385.8 75.5 385.5 21.9 243.6 34.3 243.8 79.4 367.3"/>
  <path class="uuid-d64d1c7a-1504-4999-9ae1-81400ff852c8" d="M650.3,335.6c-4.6,1,1.4,18.2,3.2,21.9,10.7,19.7,32,23.7,52.2,16.3,8.3-3,16.9-14.5,19.7-.7-30.5,24.9-77.3,16.6-87.1-24-19.2-80,92.7-98.2,88.8-13.5h-76.9.2ZM715.4,327.2c-.3-52.3-64.7-49.9-65.9,0h65.9Z"/>
  <path class="uuid-d64d1c7a-1504-4999-9ae1-81400ff852c8" d="M241.8,335.6h-77.8c-.3,32.6,26.6,50.1,57.5,37.7,6.1-2.5,15.4-12.6,18-2.5,2.5,10.1-12.9,11.4-17.6,12.9-32.7,10.9-66.1-5.2-69.7-40.5-8.1-80.2,93.4-86.4,89.7-7.6h0ZM230.1,327.2c0-51.8-64.6-50.3-65.9,0h65.9Z"/>
  <path class="uuid-d64d1c7a-1504-4999-9ae1-81400ff852c8" d="M466.8,281.9v66.1c0,.7,2,11.3,2.5,12.6,7.8,25.9,47.5,16,60.2-.8v-77.8h11.9v102.1h-9.8c0-.2-1.9-13.5-1.9-13.5-16.9,16.6-53.7,24-68.5,1.5-14.7-22.5-5.9-15.8-5.9-19.2v-71.1h11.9l-.3.2Z"/>
  <path class="uuid-d64d1c7a-1504-4999-9ae1-81400ff852c8" d="M351.7,384.2h-11.9v-71.1c0-2.9-5.1-13.5-7.5-16-13.7-14.1-42.5-4.9-53.4,9.2v77.8h-11.9v-102.1h10.2l.8,13.5c16.6-15.5,51.5-23.9,66.8-2.5,15.3,21.4,6.8,14.3,6.8,16.8v74.5-.2Z"/>
  <path class="uuid-d64d1c7a-1504-4999-9ae1-81400ff852c8" d="M823.7,290.3l-7.6,9.8c-11.2-8.9-27.5-12.1-41.5-9.1s-17.3,13.5-11.5,23.4c9.7,16.8,63.2,5,64.2,40.4,1,39-57.5,37.7-79.7,18.5-3.1-1.5,3.9-9.1,4.4-9.2,12.7,12.8,59.5,20.8,63.2-2.7,5.9-37-68.1-14.1-65.9-55.1,1.7-33.1,54.2-30.4,74.6-16l-.2.2Z"/>
  <path class="uuid-d64d1c7a-1504-4999-9ae1-81400ff852c8" d="M400.9,246.8v35.1h32.2v10.1h-32.2v72.8c0,13.1,23.2,12.4,32.2,9.2l-1,10.3c-10.7,2.4-30.7,4.2-38-6.1-7.3-10.3-5.1-13.3-5.1-15.1v-71.1h-18.6v-10.1h18.3c0-.2,3.6-35.1,3.6-35.1h8.6Z"/>
  <path class="uuid-d64d1c7a-1504-4999-9ae1-81400ff852c8" d="M571.7,281.9h10.2l2.5,18.3c10.5-12.4,22.9-19.8,39.8-20v11.8c-11-.2-23.9,3.2-32.2,10.8-8.3,7.6-8.5,9.4-8.5,10.1v71.1h-11.9v-102.1Z"/>
  <path class="uuid-d64d1c7a-1504-4999-9ae1-81400ff852c8" d="M438,17.6l15.1,29.3-14.9,28.2-3.4,1-15.1-29.3c0-1.7,12.7-23.9,14.7-27.1,2-3.2-.2-3,3.7-2.2h-.2Z"/>
  <polygon class="uuid-d64d1c7a-1504-4999-9ae1-81400ff852c8" points="500.5 52.8 483.8 82.9 448.2 82.9 466 52.8 500.5 52.8"/>
  <path class="uuid-d64d1c7a-1504-4999-9ae1-81400ff852c8" d="M424.4,82.9h-35.6l-15.3-30.1h33c7.3,8.9,12.7,19.8,17.8,30.1Z"/>
</svg>