<?xml version="1.0" encoding="UTF-8"?>
<svg id="uuid-dc186636-3e4b-4b4c-a715-f7dfdf8723f7" data-name="Capa 1" xmlns="http://www.w3.org/2000/svg" viewBox="0 0 1200 600">
  <defs>
    <style>
      .uuid-4628306d-9249-4f7d-92e6-165561675ccf {
        fill: none;
        stroke: #f2f2f2;
        stroke-miterlimit: 10;
        stroke-width: 10px;
      }

      .uuid-daa45cc3-4da0-4e68-ac5d-adce5bfb2e8d {
        fill: #f2f2f2;
      }
    </style>
  </defs>
  <g>
    <path class="uuid-daa45cc3-4da0-4e68-ac5d-adce5bfb2e8d" d="M350.8,101.2c55.9,19.5,76.5,98.6,63.4,151-5.6,22.3-24,37.2-44.8,35l-.2-29.4c10.5.6,19.3-7.9,20.8-19.5,4.4-33.4-4.8-85.2-33.3-106.4-13.1-9.7-29.2-8.9-41,1.9-8.2,7.5-14.4,16-20.3,24.6-1.4-2.4-4.3-3.6-5.9-5.6-3-3.7-4.5-9.4-7.3-13.2,10.6-17,26.1-29.5,44-38.5h24.6Z"/>
    <path class="uuid-daa45cc3-4da0-4e68-ac5d-adce5bfb2e8d" d="M229.8,101.2c29.8,11.1,31.1,18.2,52.4,38.5,2.7,3.8,4.2,9.5,7.3,13.2-5.1,9.3.9,25.9-5.5,28.6-4,1.7-8,.7-11.4-.3-1.8-5.1-6.2-9.2-10-12.1-5.4-12.5-15.4-23.7-27.3-32-13-8.9-29.9-7.1-40.4,5.4-7.3,8.6-16.1,19.5-19.8,30.1-1.6-3.1-4.5-5.7-9-5.7h-18.5c10.4-33.2,24.6-49.7,55.6-65.7h26.7Z"/>
    <path class="uuid-daa45cc3-4da0-4e68-ac5d-adce5bfb2e8d" d="M904.3,468.3h-13.7c-26.4-9.8-32.2-41.2-23.2-64.2,5.5-14,18-22.1,33.1-21.8,9.7.2,16.2,5,22.3,13.1l1.7-37.8c.5-2.9,9-2.4,12.1-.7l.2,108.4c-3.6,1-8.7,2.5-11.1,0s.2-7.8-2.5-11.6c-4.9,8.3-11.7,11.3-19,14.5ZM921.6,440.9c3.5-10.3,3.4-21.1.4-30.8-3.1-10.3-11.4-16-20.6-16.2-10.1-.3-18.4,4.8-22.2,14.9-4.1,11-3.8,23.4.9,34.2,4.1,9.3,12.1,13.8,21.3,13.5,8.8-.3,16.8-5.4,20.2-15.6Z"/>
    <path class="uuid-daa45cc3-4da0-4e68-ac5d-adce5bfb2e8d" d="M1005,468.3h-19.9c-19.6-9.1-29.6-26.8-26.9-49.4,1.8-14.9,9.6-28.7,22.6-33.7,14.2-5.5,30.9-2.9,40.9,8.8,8.3,9.8,10.2,23.1,8.6,34.9l-58.7.3c-1.6,12.2,6.1,23.1,16.9,26.2,28.3,8,24.1-21.4,39.9-7.2-3.6,14.7-15.6,15.1-23.3,20.1ZM1017.9,417.4c-1.1-17.1-12.1-24.7-26-23.3-10.6,1-20.9,10.8-20.7,23.8l46.6-.5Z"/>
    <path class="uuid-daa45cc3-4da0-4e68-ac5d-adce5bfb2e8d" d="M246.2,468.3h-16.4c-14.2-5.2-25.7-14.4-28.7-30.7-4.3-23.4,4.3-49.4,27-54.2,13.9-2.9,27.6.5,36.1,11.2,7.6,9.7,9.5,22,8,34.1l-58.9.5c-1.3,12.4,6.5,22.9,16.7,26,11.7,3.5,23.1,0,29.3-10.5,3.5-.9,8.7.9,11.9,2.8-6.4,16.8-16,15.3-24.9,20.7ZM259.6,417.7c.3-14.9-10.4-24.1-22.7-23.9-12.6.2-23.3,9.6-23.8,24h46.5Z"/>
    <path class="uuid-daa45cc3-4da0-4e68-ac5d-adce5bfb2e8d" d="M699.4,468.3h-14.4c-21.9-8.1-31.5-24.7-29.2-49.6,1.5-16.5,11.4-30.6,25.7-34.6s33,.2,42,14.5c7.3,11.6,8.2,25.4,5.9,38.6-3,16.9-14.9,26.6-30,31.2ZM715.5,440c3.5-10.4,3-20.9-.4-30.3-3.8-10.7-12.7-16-22.9-15.8s-17.5,6-21.1,15.8c-3.5,9.5-3.6,20-.6,29.6,3.4,10.7,11.8,17.1,21.8,17.3,10.2.2,19.4-5,23.3-16.6Z"/>
    <path class="uuid-daa45cc3-4da0-4e68-ac5d-adce5bfb2e8d" d="M332.3,468.3h-16c-19.5-7.7-29.9-25.3-28.1-47.1,1.1-13,6.5-25.2,15.8-32,11.2-8.1,24.7-9,37.4-3.4,7.5,3.3,17.9,13.8,15.1,20.9-18.2,9-7.9-16.2-35.2-12.4-19.9,2.7-25.9,31.9-15.7,50.6,4.6,8.5,12.7,11.6,21.2,11.6,8.8,0,14.2-5.6,19.1-13.4,1.6-2.4,10.1-1.3,11.4.4-1.3,14.1-13.5,20.7-25.2,24.7Z"/>
    <path class="uuid-daa45cc3-4da0-4e68-ac5d-adce5bfb2e8d" d="M638.4,284.8l-.8-135-51.7,92.4c-9.4,1.3-17.9,1-27.4.1l-51.4-91-1.3,133.2c-9.8.4-18.8.9-28.2-.2V107.4c12.5-.8,23-.7,35.2,0l59.8,107.4,59.6-107.3c11.8-.8,22.3-.8,34.6,0v176.9c-8.9,1.3-17,.6-28.4.4Z"/>
    <path class="uuid-daa45cc3-4da0-4e68-ac5d-adce5bfb2e8d" d="M1065.5,284.2c-9.3,1.6-17.8.8-26.6.4-1.6-5.2.8-9.6-2-16.1-13.3,16-31.4,21.8-52.7,18.6-16.9-2.5-33.7-14.7-42.2-33-18.6-40.2-3.2-95.4,41.7-103.9,20.7-3.9,39.4,1.7,53.4,16.8,2.4-5.3.7-9.2,1.6-14.3,8.5-.7,16.4-.7,26.7,0l.2,131.4ZM1036.8,237.6c1.7-13.5,2.2-27.3-.1-39.2-2.7-14-18.1-22.3-28.9-23.6s-28.2,1.8-36.5,14c-12.4,18.2-12,45.4,2.1,62.5,9.1,11,23.2,13.2,36.8,10.3,9.8-2.1,25-10.3,26.7-24.1Z"/>
    <path class="uuid-daa45cc3-4da0-4e68-ac5d-adce5bfb2e8d" d="M799.6,248.9c6.3,6,10.8,11.6,15.2,18.6-15.3,14.6-34.8,20.5-55.9,20.6-31.4.2-57.8-19.8-64.4-50.6-3.2-14.9-2.7-30.1,2-44.5,8.9-27.5,33.6-44.5,62.4-43.8,43.4.9,62.5,39.6,59.3,79.7l-96.5.3c1.3,20.6,18.6,35.2,39.3,34.8,14.5-.2,27-3.9,38.7-15ZM790.4,207.6c-.5-12.7-5-21.9-13.5-28.1-10.6-7.8-24.9-8.4-36.7-2-9.9,5.4-17.9,16.9-18.6,30.5l68.9-.4Z"/>
    <path class="uuid-daa45cc3-4da0-4e68-ac5d-adce5bfb2e8d" d="M920.3,261.5c1,8.2,1.2,15.3,0,23.4-14.1,3.4-28,4.4-41.7-.2-15.2-5.2-24.5-19.7-24.6-35.9l-.8-72.1c-8.7-1.8-16.7,0-25.5-1-1.5-7.5-1.3-15.1-.2-23.1l25.5-.6.4-38.4c9.6.3,18.4-.6,27.5.7l.8,37.9,39,.3c.7,7.8.4,14.7,0,23l-39.5,1c0,23.4-.8,45.5.4,67.9.5,10.2,7.3,17.5,17.1,18.3,7.1.6,12.8,0,21.6-1.2Z"/>
    <path class="uuid-daa45cc3-4da0-4e68-ac5d-adce5bfb2e8d" d="M272.6,181.2c1.4,3.9,4.6,6.8,6.6,10.3-2,0-3.8,1-5.1,3.3-14.5,25.8-32.2,60.6-53.1,80.3-13.2,12.4-30.5,15.7-49.2,10.7-14.4-3.9-25.7-17.2-31.5-33.5-5.3-14.8-2.5-28.3-2.7-42.3,19.1.2,6.6,3.5,29-.2.2-.9-3.8,38,14.4,46.1,17.9,7.9,32-12.1,41.7-26.7l39.8-60.2c3.9,2.9,8.2,7,10,12.1Z"/>
    <path class="uuid-daa45cc3-4da0-4e68-ac5d-adce5bfb2e8d" d="M553.4,425.8c-9.9.6-19.2-.6-28.6,1l-1,38c-1.6,2.5-12.5,2.6-12.5-.5l-.3-108.2c14.7-.7,28.5-.6,42.7,0,19.5.8,31.9,15.4,32.1,34.2.2,19.2-11.9,34.2-32.4,35.4ZM572.6,389.3c-1.2-27.1-29.6-21.1-48-21.3v45.2c8.2,1.7,15.4.2,23,.8,14.8,1.1,25.7-8.6,25-24.6Z"/>
    <path class="uuid-daa45cc3-4da0-4e68-ac5d-adce5bfb2e8d" d="M443,465c-2.3,2.4-9.1,1.5-12.2.5-1.6-19.4,1.3-38.4-1.2-57.5-1.5-11.4-12.5-15.3-22.2-14-9.9,1.4-17.7,9.1-17.8,20.9l-.3,50.4c-4.2,1.2-7.5,1.5-12.4.2l.4-108.2c.6-2.7,9.1-1.9,11.7-.9l1.3,40.6c4.7-10.2,13.2-14.5,24-14.8,16.1-.4,28.2,10.1,28.7,26.7.5,18.3.6,36.4,0,56.1Z"/>
    <path class="uuid-daa45cc3-4da0-4e68-ac5d-adce5bfb2e8d" d="M295.4,158.6l41.3,69.7c1.5,4.9-5.3,4.1-7.9,6.6-5.6,5.4-5.2,14.2-9.3,19.8-2.2-1-4.1-3-5.8-5.8l-34.5-57.5c-2.1-3.4-5.3-6.4-6.6-10.3,3.4,1,7.4,2,11.4.3,6.4-2.7.4-19.3,5.5-28.6,1.6,2,4.5,3.2,5.9,5.6Z"/>
    <path class="uuid-daa45cc3-4da0-4e68-ac5d-adce5bfb2e8d" d="M162.2,465.3c-4.6,2.1-9,1.2-13.4-.1l-.3-97.2-33.2-.7c-2.1-2.3-1.9-8.4,0-11.3l79.7.2c2.7.1,2.5,9.2.7,11-10.3,1.7-22.1,0-33.6.8v97.4Z"/>
    <path class="uuid-daa45cc3-4da0-4e68-ac5d-adce5bfb2e8d" d="M800.9,385.2c1.4-3.8,10-1.5,13.3-1.1l-30,81c-1.8,2.4-9.8,1.6-13.3.5l-29.8-81c3.7-1.5,11-2.5,12.9,0l23.7,63.8,23-63.2Z"/>
    <path class="uuid-daa45cc3-4da0-4e68-ac5d-adce5bfb2e8d" d="M369.2,257.9l.2,29.4c-7.8-.8-15.5.7-23.7-4.6s-21.6-16.2-26.2-27.9c4.1-5.7,3.7-14.4,9.3-19.8,2.6-2.5,9.4-1.7,7.9-6.6,3.6,6.1,10,11.8,14.4,18.4,4.2,6.3,11.4,10.8,18.1,11.2Z"/>
    <path class="uuid-daa45cc3-4da0-4e68-ac5d-adce5bfb2e8d" d="M646.2,394.9c-12.3-2.1-27.1,2.7-27.3,15.8l-.8,54.4c-3.7,1.8-7.9,1.7-12.4.2l.2-79.3c0-3.9,6.4-2.5,8.7-2.7,3.5-.3,3.5,5,4.2,10.3,6.2-8.2,16.5-13.5,27-10.8,2.1,2.5,1.4,8.6.4,12Z"/>
    <path class="uuid-daa45cc3-4da0-4e68-ac5d-adce5bfb2e8d" d="M1062.4,465.1c-2.5,2.3-8.7,1.3-12.3.7l.5-80.9c.9-2.3,8.8-2.1,10.6-.7s.8,6.1,2.7,10c5.2-8.7,16.6-14.6,26.6-11,2.7,1,1.9,11.6-1.2,11.3-12.1-1-25.6,3.7-25.9,16.7l-1,53.9Z"/>
    <path class="uuid-daa45cc3-4da0-4e68-ac5d-adce5bfb2e8d" d="M175.1,172.6c-4.1,11.7-5.1,25.2-8.5,37.3-22.4,3.7-9.9.4-29,.2-.2-15.9,5.4-28.9,9.9-43.3h18.5c4.5,0,7.5,2.7,9,5.8Z"/>
    <path class="uuid-daa45cc3-4da0-4e68-ac5d-adce5bfb2e8d" d="M843.9,464.8c-1.8,2.7-9.3,1.8-12.5.5l.2-81.4c4.6-.6,8.5-1.2,12.5.4l-.3,80.4Z"/>
    <path class="uuid-daa45cc3-4da0-4e68-ac5d-adce5bfb2e8d" d="M834.8,353.1c5.4-1.8,10,1,11.3,4.2,1.9,5,0,10.3-4.6,11.6-4,1.1-8.9.4-11-3.4s-1.6-10.4,4.4-12.4Z"/>
  </g>
  <rect class="uuid-4628306d-9249-4f7d-92e6-165561675ccf" x="22.4" y="31.8" width="1155.1" height="536.4" rx="60" ry="60"/>
</svg>