<?xml version="1.0" encoding="UTF-8"?>
<svg id="uuid-ec8e96ca-c411-4bf7-b263-748597243e17" data-name="Capa 1" xmlns="http://www.w3.org/2000/svg" viewBox="0 0 600 400">
  <defs>
    <style>
      .uuid-a8bc734a-3dc0-4b5c-b449-c2f3f8b35247 {
        fill: #f2f2f2;
      }
    </style>
  </defs>
  <path class="uuid-a8bc734a-3dc0-4b5c-b449-c2f3f8b35247" d="M180.3,181l-1.1-125.5-70.5,127.5L38.2,55.1l-1.2,126.2-20.8-.9V14.7s23.9.5,23.9.5l68.5,125.3L177.4,15.3c7.2-.7,15.5-.7,23.8-.1v165.6s-20.8.3-20.8.3Z"/>
  <path class="uuid-a8bc734a-3dc0-4b5c-b449-c2f3f8b35247" d="M417.4,376c-4.7,4.6-16.7,5-24.1,2.5l-68.7-125.3-.9,125.8h-20.8c0,0,0-165.4,0-165.4l23.2-.8,68.6,124.5,1.5-123.7,20.9-1.1.3,163.3Z"/>
  <path class="uuid-a8bc734a-3dc0-4b5c-b449-c2f3f8b35247" d="M501,287.8l75.2,89.9c-5.4,2.8-22.5,4.9-26.7,0l-67.1-78.9-1.7,80.8-20.8-.5v-164.6c.1,0,20.8-2.1,20.8-2.1l1.4,65.6,63-65.3,26.5,1.1-70.6,74.1Z"/>
  <path class="uuid-a8bc734a-3dc0-4b5c-b449-c2f3f8b35247" d="M85.5,307.9l-46.9.7-.8,70c-6.3,2-16.9,1.6-21.1-2v-164.1c.1,0,72.7.7,72.7.7,26.5.3,41.1,23.3,40.8,47.6-.3,25.9-15.9,46.7-44.7,47.1ZM96,284.4c9.7-2.7,12.5-20.6,12-28.2-2.2-33-46-22.2-69.9-23.2v54.4c20.2.4,38.1,2.5,57.9-3Z"/>
  <path class="uuid-a8bc734a-3dc0-4b5c-b449-c2f3f8b35247" d="M255.5,379.7l-95.8.5c-3.6-.4-4.7-13.5-3.2-17.6l39.7-1.4v-129.7c0,0-40.2-1-40.2-1l.7-18,99.7.2c2.2,4.2,2.2,17.1-1.8,17.7l-36.8,1.1v129.4c-.1,0,36.9,1.2,36.9,1.2,3.9.1,5,17.6.8,17.6Z"/>
  <path class="uuid-a8bc734a-3dc0-4b5c-b449-c2f3f8b35247" d="M273.3,105l-26.6-3.2c-2.4-.9-2.9-13.2-1.5-18.8l35.7-.6c13.9-.2,25-5.2,27-17.4,2-12.1-1.6-29-17.6-29.5l-42.2-1.5c-4.5-1-5.3-15-2.2-19.7,14.7-.5,32.8-.5,47.3.7,24.7,2.1,38.7,22.2,37.6,45-1,20.7-11.5,36.3-34.4,41.5l47.9,77.9c-7.3,2-17.8,2.4-25,.2l-46-74.6Z"/>
  <path class="uuid-a8bc734a-3dc0-4b5c-b449-c2f3f8b35247" d="M554.1,45.2c7.3,8.4,43.7-18.4,19.6,5.2-7,6.8-21.3,5.9-27.6-3.1-4.4-6.3-4.6-18.2.2-26.2,4.4-7.4,20.4-8.6,26.1-3.5,24.5,21.6-13.7-2.7-19.3,7.3-3.1,5.6-2.8,16.1.9,20.3Z"/>
  <path class="uuid-a8bc734a-3dc0-4b5c-b449-c2f3f8b35247" d="M528,14.1l-9.1,34.3c-1.7,1.5-4.7,4.8-6,6.2-1.3,1.4-6.9-3.9-7.4-6l-10-35c15.3,4.9,9.8,17.2,17.2,27.7,5.9-9.3-1.2-20,15.3-27.2Z"/>
</svg>