<?xml version="1.0" encoding="UTF-8"?>
<svg id="uuid-a0ea6e6b-c4d3-497f-b2df-a4da63ca8b35" data-name="Capa 1" xmlns="http://www.w3.org/2000/svg" viewBox="0 0 1200 600">
  <defs>
    <style>
      .uuid-c09fe409-f686-44ff-bfda-dc4af2dbedec {
        fill: none;
        stroke: #f2f2f2;
        stroke-miterlimit: 10;
        stroke-width: 10px;
      }

      .uuid-57021734-2858-42b4-9471-cde35d0f2e26 {
        fill: #f2f2f2;
      }
    </style>
  </defs>
  <g>
    <path class="uuid-57021734-2858-42b4-9471-cde35d0f2e26" d="M316.3,136.5l-7.3,143.6c-2.3,44.8-5.7,88.1-5.3,131.4l-179.7-33,25-192.3,37.7-14.5c6.5-24.8,16.9-48.4,35.2-63.6,16.8-14,32-12.2,49-3.6,13.8,7,27.2,12.1,31,31.3,6.6-1.8,10.2-.2,14.3.7ZM252.5,110.5c-23.9-6.9-50.5,39-51,56.9,38.7-1.4,11.4-25.4,51-56.9ZM266.8,147.8c.3-11.3,0-19.1-5.1-26.7-13.5,8.7-20.3,19.6-23.2,34.5,10.7.1,18.4-3.3,28.3-7.7ZM290.8,140.2c-.2-9.1-5.8-17.1-13.9-19.3-1.2,9,1.6,15,1.7,22.2,4.3.3,12.3.5,12.2-2.9ZM236.9,358.6c18-10.7,21.8-31.1,20.3-49.7-2.3-30.1-37.5-38.1-39.8-50.2-1-5.3-.6-12.1,4.9-14.9,11.3-5.5,23.1-1.8,35.7,1.8,4.9-12.3,10.1-23.6,12-36.8-26.9-9.2-56.3-3.6-74.8,16.6-11.4,12.4-14.5,27.6-12.8,45.4,2.3,23.3,31.6,31.7,33.9,47.3.6,4.5-2.4,11.8-8.4,13-12.2,2.4-20.9-5.4-32.1-12.3-3.8,6.2-10.8,19.4-7.8,28.1,15.4,18.4,46.9,24.7,68.8,11.7Z"/>
    <path class="uuid-57021734-2858-42b4-9471-cde35d0f2e26" d="M303.7,411.6c-.5-43.3,3-86.6,5.3-131.4l7.3-143.6c19.6,4.1,1.4,17.9,49,20.3l34.7,234.1-96.3,20.6Z"/>
    <path class="uuid-57021734-2858-42b4-9471-cde35d0f2e26" d="M769.6,314.2c-10.1,2.3-19.8,2-30.5.4l26.7-148.2c9-1.3,19.7-2.5,26.2,1.2-7.8,25.9,9.1-6.8,34.4-3.9,9.2,1.1,19.9,6,23.9,17,9.6,26.5,2.1,56.9-16.7,77.5-14.7,16.1-35,19.7-55.8,14l-8.1,42.1ZM802,249.6c15.8-11.6,21.5-31.7,19.9-49.7-.7-7.2-7.1-11-12.4-10.4-20,2.3-25.7,40-25.4,57.4,0,4.4,13.1,6.1,17.8,2.6Z"/>
    <path class="uuid-57021734-2858-42b4-9471-cde35d0f2e26" d="M593.5,271.5l11.9-69.8c.8-4.6-1.3-9.4-4.3-11.6-9.4-7.1-23.9,10.3-27.5,28.3l-10.6,53.5c-10.5,1.2-19.6,1.2-30.6-.1l28.6-150.7c10-3.2,20.6-1.8,30.8-.8l-9.4,55.4c10-6.6,18.6-12.4,30.7-12.3,46.3.4,12.7,79.3,10.9,108-10.1,2.1-19,2-30.4.1Z"/>
    <path class="uuid-57021734-2858-42b4-9471-cde35d0f2e26" d="M1086.5,167.1c-25.1,45.4-53.5,142.1-105.1,153.3-5-7.9-8.5-16.6-8.1-25.6,9.3-6.3,31.1-14,30.9-28.5-.6-33.4-12.7-64.8-15.8-99.1,9.3-2.1,20.5-1.6,31.2-.5l8.8,66.7,26-66.5c10.9-1.5,20.7-1.9,32.3.2Z"/>
    <path class="uuid-57021734-2858-42b4-9471-cde35d0f2e26" d="M697.6,273.8c-16.1,3.2-30.5-.5-40.5-9.5-9.9-8.9-13-22.9-12-37.6,2-29.1,19.2-55.7,48.1-61.8,14.3-3,28.7-.8,38.5,6.9,11.8,9.2,15.4,23.6,14.5,39.4-1.6,29.1-18.3,56.6-48.7,62.7ZM705.8,188.3c-4.6-1.5-11.1-.6-15.5,4.4-16.4,18.4-19.8,56.7-1.4,57.9,23.2,1.4,35.9-56,17-62.3Z"/>
    <path class="uuid-57021734-2858-42b4-9471-cde35d0f2e26" d="M957.8,190.2l-15.8,81c-9.7,2.3-18.9,2.1-30.3.2l13.7-79c.6-3.4-9.8-2.6-11.1-4.8-.6-5.5-.3-15.8,4.3-20.5,3.4-3.4,13.1-.5,14.3-8.1,2.1-14,9.6-26.8,17.9-32.8,14-10.2,28.8-11,44.3-6.7-.8,6.6-.1,18.6-6.5,21.8-6,3.1-15.7.2-19.4,6.5-2.4,4-10.2,15.3-4.5,16.2l17.1,2.7c0,7.4-.9,15-4.5,21.9l-19.5,1.5Z"/>
    <path class="uuid-57021734-2858-42b4-9471-cde35d0f2e26" d="M508.6,268.2c-19.1,9.6-41.2,8.4-58-1,1.7-8.4,3.4-15.5,8.3-21.2,10.4,3.5,24.1,9.7,33.1,1.7,15.8-14.1-26.7-20.1-28.9-45.1-1.1-12,4.1-23.8,15.2-30.9,15.9-10.1,36.3-9.6,54.2-3.8-1,7.3-1.5,17.2-6.5,20.4-6,2.1-27.4-7.7-31.4,5.5-4.3,14.3,30.1,15.9,32,40.3,1.1,13.7-4,27.1-17.9,34.1Z"/>
    <path class="uuid-57021734-2858-42b4-9471-cde35d0f2e26" d="M886.1,270.6c-10.2,3.7-20.4,2.6-31.1.5l19.9-104.1c10.5-1.6,20.4-2,30.9.2l-19.7,103.3Z"/>
    <path class="uuid-57021734-2858-42b4-9471-cde35d0f2e26" d="M517.8,429.3c-5.3,19-2,23.7-8.9,36-.6,1.1-5.9,0-5.6-1.7l21.5-121.2c9.7.4,5.4,6.5,7.3,12.6,9-6.1,13.9-11.7,21.5-12.8,8.2-1.1,19.2-.4,23.7,9.2,9.8,21.1,1.7,46.7-12.5,64.6-11.8,14.8-28.9,18.2-47.1,13.2ZM556.3,412.5c17.1-20.5,23.7-54.7,7.6-62.3-26.9-12.7-45.5,44.5-42.7,66.9,6.7,11.5,26.6,5.5,35.1-4.6Z"/>
    <path class="uuid-57021734-2858-42b4-9471-cde35d0f2e26" d="M646.9,428.3c-.1,3.9-6.9,2.7-7.2,1.5-.5-2,0-6.2-3-11.9-10.9,10.9-30.2,21.7-42.2,6.4-11.4-14.4-5.6-36.1,1.6-51.5,11.7-25.3,37.3-37.2,64-29.2-5.2,28.7-12,54.2-13.1,84.7ZM648.1,350.1c-8.8-8.6-52.5,7.4-51.1,55.5.2,7.8,3.3,14.1,9.6,16.6,28.4,11.6,47.1-66.7,41.6-72.1Z"/>
    <path class="uuid-57021734-2858-42b4-9471-cde35d0f2e26" d="M819.2,352.2c-12.6-11.7-35.7,8.8-40.1,32l-8.2,43.8c-.5,2.9-3.4,3.1-4.7,3.2-2.4.3-3.5-2.6-2.9-6.1l14.5-81.2c3-3.6,9.3,3.6,9.2,9.7,10-8.3,21.2-15.6,34.3-10.2,22.8,9.5.8,64.9-.9,87.1-.3,1.2-7.2.9-7-.3l10-64.7c.8-5.5-1.5-10.8-4.3-13.3Z"/>
    <path class="uuid-57021734-2858-42b4-9471-cde35d0f2e26" d="M856.2,414.9c10.5,17.9,35.5-1,36.1,5.3,1,11.1-35.3,17.1-44.5-2.2-12.4-25.9.5-61.9,25.4-74.5,10.5-5.3,23.4-2.6,28.7,5.4,5.4,8.2,3.8,21.1-4.8,28.6-11.5,10-26.7,7-41.2,11.8-8.6,2.8-3.3,19.4.4,25.6ZM891.8,371.1c5.8-5.1,5.5-13.6,3-17.3-3.1-4.6-10.3-6.6-16.3-4.5-13.4,4.7-20.5,17.7-23.7,29.9,13,1.8,26.6,1,37-8.1Z"/>
    <path class="uuid-57021734-2858-42b4-9471-cde35d0f2e26" d="M731.7,408.6c-.9,4.6.2,9.7,3.1,12.4,1.9,1.8,7.8,1,10,3.6.4,7.9-9.5,6.3-14.6,4.2s-8.6-9.2-7.2-17.1l10.3-59.9c-2.4-1.4-7.8-2-9.6-2.4s-1.1-4.4.4-6c19.4,1.4,11.8-25.9,22.7-17.7,1.3,1-1.9,10.2-.9,13.3,2.2,6.4,13.5,2.4,16.4,4.8,1.1,1,1.7,5.5-.6,5.7l-18.9,1.8-11,57.1Z"/>
    <path class="uuid-57021734-2858-42b4-9471-cde35d0f2e26" d="M682.1,382.9l-8.3,43.7c-.7,3.9-2.1,4.3-4.3,4.6-4.5.6-4.5-3.1-3.7-7.5l14.2-79.1c.3-1.8,4.6-2.5,5.1-1.3.7,1.7,2,6.9,3.7,9.5,8.1-4.1,13.5-16.3,26.1-7.7-18.5,7.9-29.3,19.5-32.7,37.6Z"/>
    <path class="uuid-57021734-2858-42b4-9471-cde35d0f2e26" d="M959.7,345.3c-48.8,19-26.5,68.7-48.1,88.4l13.6-92c10.6,2.1,3.9,9,6.2,15.9,8.7-8.6,14.4-20.4,28.3-12.2Z"/>
    <path class="uuid-57021734-2858-42b4-9471-cde35d0f2e26" d="M910.9,143.5c-3.4,8.5-11.9,10.7-18,10.2s-12.4-6.2-13-12.7c-.7-8.4,2.5-16.3,11.6-19.1,6-1.8,12.1-.8,16.4,2.8,4.2,3.5,6.1,11.1,2.9,18.8Z"/>
  </g>
  <rect class="uuid-c09fe409-f686-44ff-bfda-dc4af2dbedec" x="19.2" y="31.7" width="1155.1" height="536.4" rx="60" ry="60"/>
</svg>