<?xml version="1.0" encoding="UTF-8"?>
<svg id="uuid-a9e3dacf-d75a-4f95-9c86-d1d83f9710c9" data-name="Capa 1" xmlns="http://www.w3.org/2000/svg" viewBox="0 0 1920 200">
  <defs>
    <style>
      .uuid-fbb282e3-c6c9-4310-95ca-b8d1b2a8b0b6 {
        fill: #f2f2f2;
      }
    </style>
  </defs>
  <g>
    <path class="uuid-fbb282e3-c6c9-4310-95ca-b8d1b2a8b0b6" d="M937.6,180c-19.2-5.5-38.3-16.2-46.2-35.3-7.9-19-6.5-22.1-6.5-25.5V21.6l3-3h33.4v98.7c0,3.6,7.7,19.2,10.7,22.3,10.9,10.7,36.9,10.5,47.8-.4,10.9-10.9,10.3-18.4,10.3-21.9V18.6h33.4l3,3v93.8c0,19.7-13.2,47.2-31.8,56.5l-22.9,8.3h-34.4v-.2Z"/>
    <path class="uuid-fbb282e3-c6c9-4310-95ca-b8d1b2a8b0b6" d="M115.9,180c-6.5.8-21.9.8-28.4,0-6.5-.8-53.1-16.4-52.3-26.5l19.2-22.9c18.2,10.5,35.5,21.7,57.9,17.2,12.6-2.4,18.6-16.2,7.5-24.5-18.2-13.4-55.5-8.1-72.7-32-17.2-23.9-8.5-40.1,2-53.9,23.9-31.4,80.2-23.3,107.2,0l-19.2,26.5c-11.3-10.1-54.5-26.1-60.6-5.3-3.4,12,8.5,16.2,17.8,19.7,20.9,7.5,58.5,10.7,65,37.7,6.5,26.9-10.5,59.8-43.6,64Z"/>
    <polygon class="uuid-fbb282e3-c6c9-4310-95ca-b8d1b2a8b0b6" points="1884.7 178 1767.2 178 1767.2 18.6 1882.7 18.6 1882.7 36.4 1785.5 36.4 1785.5 90.3 1872.6 90.3 1872.6 106.3 1785.5 106.3 1785.5 160.2 1884.7 162.2 1884.7 178"/>
    <path class="uuid-fbb282e3-c6c9-4310-95ca-b8d1b2a8b0b6" d="M1308,180h-34.4c-96.6-24.5-79.4-168.4,23.3-163.7,21.1,1,41.7,9.5,55.3,25.3-10.7,21.7-13.8,9.3-28.2,1.6-64.6-34-120.1,36.3-83.9,92.6,22.9,35.5,74.4,34.6,101.3,4.3,20.3,10.7,11.3,17.2-3.4,26.5-14.8,9.3-19.9,9.1-30.2,13.2l.2.2Z"/>
    <path class="uuid-fbb282e3-c6c9-4310-95ca-b8d1b2a8b0b6" d="M584.5,18.6c39.5,3.4,60.4,24.7,55.7,64.8-2,17.6-16.4,31.4-32.4,37.9l38.5,56.7h-41.5l-33.8-49.4-28-.4v49.8h-36.5V18.6h78ZM543,96.4h41.5c1.8,0,11.1-5.1,13.2-6.9,7.1-6.3,8.5-19.7,3.6-27.8-4.9-8.1-11.1-9.1-13-9.1h-45.6v44l.2-.2Z"/>
    <path class="uuid-fbb282e3-c6c9-4310-95ca-b8d1b2a8b0b6" d="M1097.5,130.2v47.8h-36.5V18.6h69.9c46.6,0,75.4,52.7,46.6,89.7-19,24.7-51.7,22.5-80,21.9ZM1097.5,98.4h35.5c8.1,0,19.2-14.6,19.2-22.9s-8.9-22.9-17.2-22.9h-37.5v45.8Z"/>
    <polygon class="uuid-fbb282e3-c6c9-4310-95ca-b8d1b2a8b0b6" points="310.2 18.6 310.2 52.4 261.6 52.4 261.6 178 225.3 178 225.3 52.4 176.7 52.4 176.7 18.6 310.2 18.6"/>
    <polygon class="uuid-fbb282e3-c6c9-4310-95ca-b8d1b2a8b0b6" points="794 18.6 794 52.4 745.4 52.4 745.4 178 708.9 178 708.9 52.4 660.3 52.4 660.3 18.6 794 18.6"/>
    <path class="uuid-fbb282e3-c6c9-4310-95ca-b8d1b2a8b0b6" d="M1405,90.3h88.1l3-3V18.6h18.2v159.6h-18.2v-68.9l-3-3h-88.1v71.7h-20.3V18.6c6.7.8,15.4-2.4,20.3,3v68.9-.2Z"/>
    <polygon class="uuid-fbb282e3-c6c9-4310-95ca-b8d1b2a8b0b6" points="1643.8 18.6 1643.8 160.2 1734.8 160.2 1734.8 178 1625.6 178 1625.6 18.6 1643.8 18.6"/>
    <rect class="uuid-fbb282e3-c6c9-4310-95ca-b8d1b2a8b0b6" x="1560.8" y="18.6" width="18.2" height="159.6"/>
    <rect class="uuid-fbb282e3-c6c9-4310-95ca-b8d1b2a8b0b6" x="799.9" y="90.3" width="58.8" height="33.8"/>
  </g>
  <polygon class="uuid-fbb282e3-c6c9-4310-95ca-b8d1b2a8b0b6" points="339.8 18.8 396.7 18.8 468.4 73.5 468.4 122.3 395.3 179.2 339.8 179.2 443.7 99 339.8 18.8"/>
</svg>